<svg xmlns="http://www.w3.org/2000/svg" width="972" height="972" style="shape-rendering:geometricPrecision;text-rendering:geometricPrecision;image-rendering:optimizeQuality;fill-rule:evenodd;clip-rule:evenodd"><path style="opacity:.998" fill="#ed1b23" d="M1.5 58.5c119.667-.167 239.334 0 359 .5A976243.06 976243.06 0 0 0 2 915.5c-.5-285.666-.667-571.333-.5-857z"/><path style="opacity:.997" fill="#ed1b23" d="M610.5 58.5h359c.333 285.667 0 571.334-1 857a485048.066 485048.066 0 0 0-358-857z"/><path style="opacity:.997" fill="#ed1c24" d="M484.5 374.5c.876-.131 1.543.202 2 1 75.72 180.007 151.72 359.84 228 539.5-50.666.5-101.332.667-152 .5a7584.427 7584.427 0 0 0-67-170.5c-55.666-.5-111.332-.667-167-.5a44170.745 44170.745 0 0 1 156-370z"/></svg>