<svg version="1.0" id="Layer_1" xmlns="http://www.w3.org/2000/svg" x="0" y="0" viewBox="0 0 796 562" style="enable-background:new 0 0 796 562" xml:space="preserve"><style>.st0{fill:#01147b}</style><path class="st0" d="M515.6 249.6c.2 2.7-.3 5.3-1.6 7.7-2.1 3.8-4.2 7.7-6.4 11.5-2 3.4-3.2 7.2-3.7 11.1-.3 1.1-.1 2.3.3 3.4 2.9-4.2 5.7-8.3 8.8-12.2 3.5-4.6 7.6-8.8 12-12.6 2.4-2.1 5.2-3.7 8.2-4.6 3.9-1.3 8.2.3 10.1 3.9 2 3.3 2.6 7 2.7 10.7.5 13.7-9.2 28.8-21.9 34.2-3.7 1.6-7.8 2.1-11.7 1.5-1.3-.2-1.7.1-2.1 1.2-5.5 13.3-9.3 27.4-11.2 41.7-.5 3.6-2.3 4.5-5.3 2.4-4.6-3.2-7.4-8.4-7.5-14-.3-7.6 1.7-14.9 4-22.1 1.9-5.8 4.1-11.4 6.7-16.9.5-.7.6-1.6.2-2.3-3.6-6.8-3.4-13.8-1.2-20.8 3-9.3 8.5-17.6 15.9-24.1.4-.3.8-.6 1.3-.9 1.4-.6 2.3-.4 2.4 1.2zm-312.7-58.5c23.3.6 44.8 7.9 65.2 18.5 13.7 7 26.1 16.3 36.6 27.6 5.5 5.9 10 12.6 13.4 20 5.5 12.4 4 24.1-3.6 35.2-6.2 9-15.1 14.1-25.1 17.4-15.9 5.3-32 5.6-48.3 1.8-1.5-.4-1.8 0-1.9 1.4-.3 4.5-1.5 5.8-5.1 6.2-4.4.4-7-1.2-8-5.2-.5-2.1-.9-4.3-1-6.5 0-1.2-.8-2.3-1.9-2.7-10.6-4.9-20.1-11.7-28.1-20.2-1.6-1.7-3.1-3.7-4.3-5.7-3.2-5.4-2.2-10.3 2.7-14.2 3.2-2.5 6.8-4.5 10.6-5.8 6.2-2.5 12.6-4.2 19.2-5.2 1.6-.2 2.2-.8 2.2-2.4 0-7.4.8-14.7 2.3-21.9.2-.9.5-1.9.8-2.8.7-1.9 1.9-2.2 3.6-1 1.6 1.3 2.8 3 3.4 5 2.4 6 2.7 12.3 3 18.6.1 2.7.1 2.7 2.7 2.6 10.7-.3 21.4 1.4 31.5 5 4 1.3 7.5 3.8 10.1 7.1 3.4 4.5 3.4 9.4-.1 13.6-4.3 5.1-8.9 5.2-13.9 3.4-.5-.2-1.1-.5-1.1-1.2-.1-.7.5-1 1-1.3 1.5-.7 2.9-1.6 4.2-2.7 2.1-2 1.9-3.9-.8-5.1-3.6-1.5-7.4-2.6-11.3-3.3-6.7-1.4-13.5-2.3-20.3-2.6-1.4 0-1.9.2-1.8 1.7.3 10.8.5 21.6.7 32.3 0 .8-.1 1.5 1.2 1.7 16.1 2.6 31.9 2.4 47.1-4 6.1-2.6 11.5-6.2 15-12 4.8-8.1 4.6-16.4.9-24.8C298.5 248 290 239 280 231.5c-19.8-14.9-42.2-23.9-66.5-28.1a113.4 113.4 0 0 0-33.9-1.2c-3 .3-6 1.1-8.7 2.3 1.2.5 2.4.7 3.7.8 1 0 2 .3 2.9.9.8.4 1.2 1.2 1.2 2.1-.2.8-.8 1.3-1.6 1.4-3.3.8-6.8.5-9.8-.9-1.9-.9-2-2.6-1.5-4.3 1.4-5 5.3-8.8 10.3-10.1 8.6-2.3 17.7-3.5 26.8-3.3zm282.8 58.8c3.2-.1 6.2 1.4 7.9 4 .8 1.1 1.6 2.3 2.2 3.6 1.3 2.5.6 3.8-2 4.3-4.6.8-9.3 1.3-14 1.6-2.4.2-4.9.3-7.3.4-.9 0-1.4.3-1.6 1.2-.4 1.4-.8 2.7-1.3 4-.4 1.2-.2 1.5 1.1 1.4 4.1-.3 8.3-.3 12.4 0 2.2.2 2.9.8 2.9 3-.1 5.8-.1 6-5.4 6.3-4.5.2-9 .5-13.5.6-1.1-.2-2.1.6-2.3 1.7v.2c-.5 2.3-1.3 4.6-2 6.9-.5 1.6 0 1.9 1.5 1.5 6.1-1.3 12.3-2.4 18.5-3.1 1.8-.3 3.7.4 4.8 1.8 2.1 2.4 2.1 4.8-.2 6.9-4.6 4.1-10.1 7.3-15.9 9.3-2.1.7-4.2 1.3-6.3 1.7-8.3 2-16.2-6.2-15.1-14.7.4-3.3 1.1-6.6 2.3-9.8.6-1.3.7-2.7.1-4.1-.4-.9-.6-1.8-.6-2.8-.3-3 .4-4 3.5-4.4 1.1 0 2-.8 2.4-1.8.9-2.1 2-4.2 3-6.3 0-.2.1-.3.1-.5-3.5-.3-6.4-1.6-8.3-4.8-1.6-2.7-1.3-3.8 1.8-4.5 6.4-1.5 12.9-2.5 19.5-3.1 3.5-.3 7.6-.4 11.8-.5zm110.6-13c1.6 8.6 2.7 17.4 3.2 26.1.1 1.6.5 2 2.1 2 8.5-.1 16.9 0 25.4-.1 1.4-.1 2.7.4 3.6 1.5v7.8c-.8 1.1-2.2 1.6-3.5 1.5-8.4 0-16.8 0-25.2-.1-1.5 0-1.8.4-1.8 1.8.1 8.2-.2 16.4-1 24.6-.3 3-.8 3.5-3.8 3.5h-4.1c-2.2 0-3-.9-2.8-3.1.9-8.3 1.2-16.6 1.2-24.9 0-1.6-.5-1.9-1.9-1.9-8.2.1-16.4 0-24.6 0-3 0-3.6-.6-3.6-3.6v-3.9c0-2.4.7-3.1 3.1-3.1H587c1.8 0 2.3-.4 2.1-2.2-.6-8.3-1.7-16.6-3.3-24.8-.5-2.8 0-3.6 2.8-3.6 1.5 0 3 .1 4.4 0 1.5-.3 2.9.7 3.2 2.2.1.1.1.2.1.3zm-262.7 15c2.2 1.1 3.1 3 3.6 5.2 1.3 5.4 1.5 11 1.9 16.5.3 4.1.4 8.1.6 12.2.1 4.6.5 9.1.2 13.8-.2 3.5-1.5 5.3-3.9 5.6-4.2.6-7-.9-8.1-4.2-.7-2.4-1-4.8-1-7.3-.5-11.8-.4-23.6 1.8-35.3.3-1.9.9-3.8 1.7-5.5.5-1.1 1.7-1.7 2.9-1.2 0 0 .2.1.3.2zm43.7-2.6c6 0 11.9.5 17.5 2.8 1.3.6 3.3.8 3.3 2.8-.1 1.9-1.2 3.6-3 4.4-2.5 1.3-5.4 1.3-8.1 1.6-7.3.5-14.6.4-21.9 1.2-3.5.3-6.9.9-10.2 1.9-.7.2-1.6.4-1.6 1.1 0 1 1 1.1 1.7 1.2 4.9 1 9.8 1.3 14.8 1.9 5.4.6 10.8 1.5 16.2 2.7 12.8 3.1 13.3 19.6 6.7 26-3.6 3.4-8.1 5.7-12.9 6.4-9.8 2-20-.3-28-6.3-2.4-1.6-4.2-3.9-5.3-6.5-1.5-4.1.1-8.2 4.2-10.5 3-1.6 6.3-2.4 9.7-2.2 6.8 0 13.5 1.4 19.7 4.1 1 .5 2.2.9 2.1 2.2 0 1.3-1 1.9-2 2.4-4.6 2.3-9.4 3.2-14.3 1.1-2.8-1.4-5.7-2.5-8.7-3.2-1.5-.3-3-.2-4.4.4-1.2.4-2.1 1.5-2.2 2.7 0 1.1.7 2.2 1.8 2.6 2.1 1.2 4.4 1.9 6.8 2.1 8.3.5 16.4-.4 23.9-4.2.6-.3 1.2-.7 1.8-1.1 1.4-.9 3-1.8 2.9-3.8-.2-2-1.9-2.7-3.4-3.4-4.7-2.1-9.7-2.7-14.7-3.2-6.4-.8-12.8-.9-19.1-1.9-6.5-1.1-8.8-5-6.8-11.3 1.1-3.3 3.4-6 6.4-7.7 5-3.2 10.7-4.4 16.4-5.4 3.5-.6 7.1-.9 10.7-.9zm54.3-6.6c1.8 1.1 3.4 2.5 4.9 4.1 5.1 5.7 7.9 12.4 9.3 19.9 1.7 9 1.7 17.9-1.2 26.8-.5 1.4-1.2 2.7-2.2 3.8-3.5 4.2-8.6 4.5-12.4.5s-6.5-8.8-9.1-13.6c-1.9-3.4-3.7-6.9-5.6-10.4-.3-.5-.5-1.3-1.2-1.1-.7.1-.5.9-.6 1.5-.5 4.2-.7 8.5-.8 12.8.1 4.2-.3 8.4-1.1 12.5-.6 2.8-2.1 4.1-4.5 4.3-2.4.1-4.6-1.4-5.3-3.7-1.4-3.6-1.1-7.4-1.2-11.1.1-9.1 1.4-18.1 4-26.9.5-2 1.4-3.9 2.5-5.6 2.2-3.3 4.7-3.5 7.5-.7 4.7 4.8 8.2 10.4 11.8 16 2.3 3.7 4.6 7.3 6.9 11 .4.6.8 1.5 1.7 1.3s.7-1.3.7-2c-.2-5.8-1.6-11.5-2.9-17.1-1.3-5.5-2.8-10.8-4.2-16.3-.5-1.3-.6-2.8-.4-4.2.3-2.5 1.5-3.1 3.4-1.8zm-208 22.8c-4.2.3-8.5.6-12.7 1.4-5.2.9-10.4 1.7-15.3 4-3.4 1.6-3.7 3.3-1.3 6.2.5.6 1 1.1 1.6 1.7 4.9 5.1 10.7 8.8 16.8 12.3 3.8 2.1 7.8 3.9 11.9 5.2.1-.1.1-.2.1-.3v-29.6c.2-1-.3-1-1.1-.9zm310.6.9-8.7 10.6c-3.2 4.4-6.1 8.9-8.6 13.7 2.8-.3 5.5-1 8-2.2 8.4-4 13.6-10.4 14.5-19.9.2-1.5.5-3.6-1.3-4.3-1.8-.7-2.8 1.1-3.9 2.1zm-188.5-65.1c3.9-.1 7.6 1.5 10.1 4.5.5.6 1.2.9 2 1 7.1 1.6 10.5 7.6 8.1 14.6-.6 2-1.7 3.8-3 5.4-6.5 7.4-14.2 12.9-23.9 15.1-3.8.9-7.7.7-11.5-.5-1-.3-1.5-.2-1.9.8l-.1.2c-.8 1.5-1.6 3.2-3.6 3-2-.2-2.7-2-3.4-3.6-.4-.7-.5-1.5-.5-2.2.3-2.8-.9-4.9-2.3-7.1-1.2-2-1.7-4.2-1.7-6.5 0-3.1.9-6.1 2.7-8.6 6.9-10.2 16.5-15.9 29-16.1zm7.7 12.4c-2 .4-3.8 1.1-5.5 2.2-4.2 2.7-8 5.9-11.4 9.5-1.7 1.9-3.2 3.8-4.7 5.9-.6.8-.5 1.1.5 1.1h3.5c6.9.1 13.6-2.2 18.9-6.6 2-1.4 3.6-3.4 4.4-5.8 1.3-4-1.6-7.2-5.7-6.3zm-17.5-1c-5.4-.2-13.5 6.1-14.6 11.1-.4 1.4-.1 3 .9 4.1 3.7-5.7 8.4-10.8 13.7-15.2z"/><radialGradient id="SVGID_1_" cx="28.06" cy="93.395" r="17.15" gradientTransform="translate(47.7 -1574.93) scale(19.25)" gradientUnits="userSpaceOnUse"><stop offset="0" style="stop-color:#01147b"/><stop offset=".03" style="stop-color:#011098"/><stop offset=".06" style="stop-color:#010abd"/><stop offset=".1" style="stop-color:#0006da"/><stop offset=".14" style="stop-color:#0003ee"/><stop offset=".18" style="stop-color:#0001fb"/><stop offset=".22" style="stop-color:#00f"/><stop offset="1" style="stop-color:#0ff;stop-opacity:0"/></radialGradient><path d="M409.3 97.5c-5.3 0-10.5.3-15.8 1-11.7 1.6-23.2 3.2-34.6 6.2-11.6 3.1-22.9 7.3-33.7 12.5-22.5 10.7-42.6 25.7-59.4 44.1-6.7 7.5-12.9 15.4-18.6 23.7-1.3 1.8-.7 3.3 1.3 4.1 1.3.4 2.6.9 3.8 1.3 2.3.8 3.1.5 4.5-1.6 3.3-4.6 6.5-9.5 10.3-13.7 4.2-4.5 8.3-9.1 12.4-13.6 4.8-4.5 9.8-8.8 14.9-12.9 70.5-56 171-53.6 238.8 5.7 17.8 15.6 32.4 34.5 43 55.7 1.2 2.4 2.5 4.9 3.6 7.4 2.8 6.2 1.7 6.1 7.4 6.1h2.2c2 0 3.5-.9 2.8-3.1-3.9-11.2-10.2-22-16.6-32-6.6-10.2-14-19.7-22.3-28.5l-.5-.5c-13.1-13.9-28.1-25.8-44.7-35.3-6.6-3.9-13.5-7.4-20.6-10.2-5.6-2.6-11.4-4.8-17.3-6.6-12.3-4-25.1-6.8-38-8.2-7.6-.9-15.2-1.4-22.9-1.4v-.2z" style="fill:url(#SVGID_1_)"/><path class="st0" d="M527.8 383.6c11.2 0 20.7 4.2 26.6 12.9h.3v-10.8h14.4v76.8h-14.4v-11.9h-.3c-5.4 9.2-15.1 13.9-26.1 13.9-22.5 0-40.8-16.9-40.8-39.1.1-24.6 17.7-41.8 40.3-41.8zm-229.3 0c21.2 0 41.2 16.6 40.9 41-.3 20.9-18.1 40.5-43.5 39.8-21.5-.7-39.7-19.1-39.5-40.6.4-23.1 18.7-40.2 42.1-40.2zm116.2 0c12.8 0 23.2 8.9 23.6 22.5h-14.4c-.7-5.5-3.9-9.3-9.8-9.3-5.5 0-9 3.8-9 8.2 0 6.5 6.7 8.5 14.3 10.8 10.8 3.3 20.8 9.8 20.8 24.1 0 14.8-10.8 24.5-25.8 24.5-13.9 0-27.2-9.4-27.2-27.2h14.4c.7 9.3 5.4 14 13 14 6.7 0 11.1-4.3 11.1-10.5 0-5.3-4-8.7-13-11.6-18.9-6-22.1-14.1-22.1-22.9 0-13.6 11.5-22.6 24.1-22.6zM175 359.9c8 0 14.4 6.5 14.4 14.4v19.5h.3c4.6-6.8 11.9-10.3 21.5-10.3 18.3 0 32 11.6 32 32.7v46.2h-14.4v-41.7c0-16.5-6.4-24-19.1-24s-20.2 9.2-20.2 24.1v41.6H175V359.9zm195.2 0v25.8h12.6v13.2h-12.6v63.6c-8 0-14.4-6.5-14.4-14.4v-49.2h-6v-13.2h6v-25.8h14.4zm100.2 0v25.8H483v13.2h-12.6v63.6c-8 0-14.4-6.5-14.4-14.4v-49.2h-6v-13.2h6v-25.8h14.4zM621 383.6v14.8c-12.5.4-18.9 8-18.9 20.9V448c0 8-6.4 14.4-14.4 14.4v-76.8h13.5v6.9h.3c3.4-5 9.4-8.3 19.5-8.9zm-92.8 13.2c-15.2 0-27.5 13.8-26.1 30 1.2 13.4 12.1 24.2 25.5 24.5 15.2.3 27.3-12.3 27.3-27 .1-15-10.7-27.5-26.7-27.5zm-230.4 0c-15.1.2-27.1 12.6-26.9 27.7 0 2.1.3 4.2.8 6.2 3 12.1 14.1 20.9 26.6 20.6 15-.4 26.9-12.9 26.5-28-.3-14.7-12.3-26.4-27-26.5z"/><path style="fill:none" d="M148 31h500v500H148z"/></svg>