<svg xmlns="http://www.w3.org/2000/svg" width="3000" height="3000" style="shape-rendering:geometricPrecision;text-rendering:geometricPrecision;image-rendering:optimizeQuality;fill-rule:evenodd;clip-rule:evenodd"><path style="opacity:.986" d="M1077.5 1290.5c80.36-5.22 144.86 23.78 193.5 87 33.31 49.22 44.65 103.22 34 162-23.04 91.88-80.88 147.54-173.5 167-84.43 8.52-151.597-21.15-201.5-89a402.628 402.628 0 0 1-14-23c-5.598 46.02-29.098 79.52-70.5 100.5-13.633 5.57-27.633 9.57-42 12-62.332.5-124.666.67-187 .5v-410c65.668-.17 131.334 0 197 .5 28.521 3.68 52.354 16.18 71.5 37.5 11.549 13.75 20.549 29.09 27 46a75.917 75.917 0 0 1 4 24c24.348-47.34 61.181-81.18 110.5-101.5 17.05-5.34 34.05-9.84 51-13.5zm-354 99c18.67-.17 37.336 0 56 .5 14.588 1.39 23.754 9.22 27.5 23.5 3.779 16.41-1.054 29.58-14.5 39.5a87.14 87.14 0 0 1-10 3c-19.664.5-39.331.67-59 .5v-67zm368 6c44.76-2.04 78.6 15.96 101.5 54 14.58 30.98 15.25 62.32 2 94-22.33 40.7-56.83 59.86-103.5 57.5-50.18-8.51-80.35-37.68-90.5-87.5-4.704-46.43 12.8-81.59 52.5-105.5 12.1-6.31 24.76-10.48 38-12.5zm-197 130c-9.8-11.24-21.467-20.07-35-26.5 13.087-5.96 24.92-13.79 35.5-23.5-1.784 16.57-1.951 33.24-.5 50zm-171 17c19.003-.17 38.003 0 57 .5 14.141 1.81 22.974 9.64 26.5 23.5 3.911 18.01-1.923 31.84-17.5 41.5a43.2 43.2 0 0 1-9 2c-18.997.5-37.997.67-57 .5v-68z"/><path style="opacity:.968" fill="#8f28e5" d="M1518.5 1290.5c3.94-.39 7.61.28 11 2-6.26 16.27-12.43 32.94-18.5 50-1.24 4.17-1.41 8.34-.5 12.5-.39 4.39-1.39 8.56-3 12.5.36.68.7 1.35 1 2h-12c1-1.29.83-2.62-.5-4-.33 1-.67 2-1 3 .94-8.95 2.78-17.79 5.5-26.5-.24-.87-.57-1.71-1-2.5 1.83-8.5 4.5-16.67 8-24.5-1.24-.46-2.08.04-2.5 1.5-.87-.61-1.37-1.44-1.5-2.5 1.36-1.57 2.02-3.4 2-5.5 1.62-.14 2.79.53 3.5 2 3.08-6.73 6.24-13.4 9.5-20z"/><path style="opacity:.997" fill="#6b6cdd" d="M2096.5 1290.5h30c-1.42 1.81-3.42 2.47-6 2h-11c-.71 7.49-1.37 15.15-2 23-.21 17.1 3.79 33.44 12 49-1.25 2.28-3.25 3.45-6 3.5a94.73 94.73 0 0 1 19 3.5c6.92.97 13.26 3.31 19 7-13.81-5.37-28.15-8.37-43-9-2.59-.59-4.26-2.25-5-5 1.21-1.22 1.21-2.39 0-3.5.81-.31 1.47-.81 2-1.5-9.05-20.9-11.38-42.56-7-65-1.45-.67-2.78-1.34-4-2 1.33 0 2-.67 2-2z"/><path style="opacity:1" fill="#6c73e1" d="M2120.5 1292.5c.15 3.22.98 3.55 2.5 1 .17.5.33 1 .5 1.5l-4 4c.92 1.81 1.76 1.64 2.5-.5.17.67.33 1.33.5 2-.9 10.91-1.23 21.74-1 32.5.67.33 1.33.67 2 1-.12 1.27-.45 2.6-1 4 3.15 10.49 7.81 20.66 14 30.5-1.4 1.02-2.73 2.02-4 3a94.73 94.73 0 0 0-19-3.5c2.75-.05 4.75-1.22 6-3.5-8.21-15.56-12.21-31.9-12-49 .63-7.85 1.29-15.51 2-23h11z"/><path style="opacity:1" fill="#6c78e3" d="M2126.5 1290.5c6.72 1.16 13.38 2.49 20 4-.6.64-1.43.97-2.5 1-4.15-1-8.32-1.5-12.5-1.5.93.39 1.59 1.05 2 2-1.22 2.38-1.22 4.72 0 7-1.51 1.47-2.17 3.31-2 5.5.51 5.97.68 11.97.5 18 1.54 1.05 1.71 2.38.5 4 1.8 7.86 3.97 15.2 6.5 22 4.44 7.13 8.77 13.8 13 20 1.28-.12 2.45.38 3.5 1.5-.56 1.57.11 2.9 2 4-.75.67-1.09 1.5-1 2.5-2.05.1-3.72-.57-5-2-5.74-3.69-12.08-6.03-19-7 1.27-.98 2.6-1.98 4-3-6.19-9.84-10.85-20.01-14-30.5.55-1.4.88-2.73 1-4-.67-.33-1.33-.67-2-1-.23-10.76.1-21.59 1-32.5-.17-.67-.33-1.33-.5-2-.74 2.14-1.58 2.31-2.5.5l4-4c-.17-.5-.33-1-.5-1.5-1.52 2.55-2.35 2.22-2.5-1 2.58.47 4.58-.19 6-2z"/><path style="opacity:.991" fill="#8d2ee4" d="M1529.5 1292.5c7.46.69 14.79 2.03 22 4-6.05 9.06-11.55 19.06-16.5 30-.67 1.67-.67 3.33 0 5 .33-1 .67-2 1-3 .65-1.2 1.15-1.2 1.5 0-4.6 13.13-8.6 26.47-12 40 .44 1.24 1.11 2.24 2 3-6.31-.85-12.65-1.52-19-2-.3-.65-.64-1.32-1-2 1.61-3.94 2.61-8.11 3-12.5-.91-4.16-.74-8.33.5-12.5 6.07-17.06 12.24-33.73 18.5-50z"/><path style="opacity:1" fill="#6d80e6" d="M2146.5 1294.5c4.26.4 8.26 1.4 12 3-3.99-.69-7.99-.86-12-.5-5.1 29.03 2.9 54.03 24 75 4.14 1.57 7.81 3.9 11 7 8.01 4.06 15.84 7.22 23.5 9.5 2.39-1.45 4.56-1.12 6.5 1 4.82-1.31 9.65-1.31 14.5 0 1.83-1.94 3.83-2.28 6-1 .35-2.31 1.35-2.64 3-1 .95-.41 1.61-1.07 2-2 1.71 1.43 3.05 1.09 4-1l1 1c1.07-.69 2.23-1.19 3.5-1.5 7.52-3.26 14.52-7.26 21-12 7.82-8.15 14.49-17.15 20-27 1.69-6.57 3.52-13.41 5.5-20.5 1.24 3.42 2.41 3.58 3.5.5-1.59-3.11-2.59-6.44-3-10 1.65-4 2.82-8.17 3.5-12.5.17 11.17.67 22.17 1.5 33 .17 9.34 0 18.67-.5 28-.33-2.33-.67-4.67-1-7-5.4 8.84-11.74 16.84-19 24l-1-1c-.83 2.17-2.33 3.67-4.5 4.5l1 1c-4.88 2.05-9.71 4.88-14.5 8.5-1.02-1.13-1.68-.8-2 1l-1-1c-1.14 2.42-2.81 3.08-5 2-1.97 1.89-4.3 3.22-7 4l-1-1c-.95 2.09-2.29 2.43-4 1-1.19 2.03-2.69 2.36-4.5 1a6.872 6.872 0 0 1-4 2c-8.82.45-17.66-.21-26.5-2-1.72.11-1.89.61-.5 1.5-1.81-.05-3.48.12-5 .5-1-2.67-2.67-3.34-5-2a16.064 16.064 0 0 0-6.5-3c-.95.41-1.61 1.07-2 2-.82-1.32-1.98-1.99-3.5-2a149.398 149.398 0 0 0-24-17c-.09-1 .25-1.83 1-2.5-1.89-1.1-2.56-2.43-2-4-1.05-1.12-2.22-1.62-3.5-1.5-4.23-6.2-8.56-12.87-13-20-2.53-6.8-4.7-14.14-6.5-22 1.21-1.62 1.04-2.95-.5-4 .18-6.03.01-12.03-.5-18-.17-2.19.49-4.03 2-5.5-1.22-2.28-1.22-4.62 0-7-.41-.95-1.07-1.61-2-2 4.18 0 8.35.5 12.5 1.5 1.07-.03 1.9-.36 2.5-1z"/><path style="opacity:.997" fill="#713dd3" d="M1779.5 1294.5c10.62 15.38 19.28 32.05 26 50 2.29-.58 3.46-1.58 3.5-3 2.54 2.64 5.71 4.14 9.5 4.5-1.07 1.16-.73 1.99 1 2.5.79.28 1.46.78 2 1.5-6.28-1.66-7.11-.49-2.5 3.5 1.49-2.06 3.33-2.39 5.5-1-1.23.78-2.56 1.28-4 1.5 1.48.98 2.81 2.15 4 3.5 1.19-1.39 1.85-1.23 2 .5-.34 1.03-1 1.53-2 1.5-1.27-.98-2.6-1.98-4-3-1.2.35-1.2.85 0 1.5-3.53.88-4.19.38-2-1.5-2.24-.97-4.58-1.31-7-1 .27-3.28-.73-4.11-3-2.5 2.19.6 2.35 1.77.5 3.5-1.05-1.61-2.55-2.27-4.5-2v-3c-2.64-2.18-6.31-3.68-11-4.5 1.2-.65 1.2-1.15 0-1.5-.73 1.43-1.73 2.6-3 3.5 2.39.69 2.39 1.69 0 3 .67.33 1.33.67 2 1-1.4.59-2.73.43-4-.5-1.02 1.35-2.36 2.02-4 2 .47-1.7.47-3.2 0-4.5a27.1 27.1 0 0 1-6.5-1.5c-.44 2.44-.44 5.11 0 8-1.25-1.5-2.25-3.17-3-5-.33.67-.67 1.33-1 2-2.45-.91-4.95-1.74-7.5-2.5 2.1-.56 2.26-1.06.5-1.5-.77.14-1.44.48-2 1a149.332 149.332 0 0 0-21-34 73.265 73.265 0 0 0-10.5-9c-1.06-3.23-3.06-5.73-6-7.5-4.33-1.83-8.66-3.66-13-5.5-.67.17-1.33.33-2 .5 2.11.42 2.95 1.59 2.5 3.5-1.42-.96-2.92-1.79-4.5-2.5 1.2-.65 1.2-1.15 0-1.5-1.72 1.59-2.72 1.26-3-1 23.97-4.24 47.97-3.91 72 1z"/><path style="opacity:1" fill="#6a61d8" d="M2096.5 1290.5c0 1.33-.67 2-2 2-3.02-.16-6.02 0-9 .5.52.56.86 1.23 1 2-.98.38-1.65 1.21-2 2.5.9 2.3 1.06 4.63.5 7l-1-1c-.67 8-.67 16 0 24 1.02-1.21 1.52-.87 1.5 1-.9 2.3-1.06 4.63-.5 7 .89-1.39 1.39-1.22 1.5.5-2.05 6.64-1.39 13.14 2 19.5-.67.33-1.33.67-2 1 2.16 2.27 2.33 4.61.5 7l-1-1c-1.67 2.09-2.17 4.26-1.5 6.5-.92.28-1.58.78-2 1.5a326.38 326.38 0 0 1-17 4.5c1.33-.67 2.67-1.33 4-2-.81-.31-1.47-.81-2-1.5.35-1.2.85-1.2 1.5 0-1.26-2.65-.43-4.49 2.5-5.5-.44-2.16-.77-4.33-1-6.5.35-1.2.85-1.2 1.5 0 1.37-1.49 1.53-2.99.5-4.5.81-.31 1.47-.81 2-1.5-5.45-18.61-6.79-37.44-4-56.5-1.24-.23-2.24-.73-3-1.5 3.53-.06 6.53-1.06 9-3 6.53-1.65 13.2-2.32 20-2z"/><path style="opacity:.994" fill="#9812e9" d="M1482.5 1292.5c-3.74 6.87-6.74 14.2-9 22 1.22 1.3.88 2.3-1 3-1.35 2.66-1.68 5.33-1 8-.35 1.2-.85 1.2-1.5 0-.33 1.33-.67 2.67-1 4-.5 16-.67 32-.5 48-13.15 5.82-23.48 14.82-31 27 .51-30.08 5.01-59.75 13.5-89 .78-2.93.61-5.76-.5-8.5.78-2.7 2.11-5.03 4-7-.56-.38-.89-.88-1-1.5 9.37-3.27 19.04-5.27 29-6z"/><path style="opacity:.999" fill="#7948dc" d="M1707.5 1293.5c.28 2.26 1.28 2.59 3 1 1.2.35 1.2.85 0 1.5 1.58.71 3.08 1.54 4.5 2.5.45-1.91-.39-3.08-2.5-3.5.67-.17 1.33-.33 2-.5 4.34 1.84 8.67 3.67 13 5.5 2.94 1.77 4.94 4.27 6 7.5.79 1.47.79 2.8 0 4a46.535 46.535 0 0 1-6-5.5c-.98-.59-1.65-.26-2 1 3.17 2.77 6.17 5.77 9 9-.31 2.99-.64 5.99-1 9 1.91 1.47 2.58 3.14 2 5-.67.67-1.33.67-2 0a64.088 64.088 0 0 0-7-6.5c-.81.31-1.47.81-2 1.5 1.33 2 1.33 4 0 6 2.45 1.74 3.95 3.91 4.5 6.5-3.75-2.16-7.58-4.83-11.5-8-9.43-7.38-20.1-12.72-32-16-.67.17-1.33.33-2 .5 1.47.71 2.14 1.88 2 3.5-5.97-.74-11.97-1.07-18-1-9.34 2-18.34 5-27 9-.44.07-.77-.1-1-.5 1.54-1.37 2.87-2.87 4-4.5 8.64-6.43 17.98-11.93 28-16.5 11.88-4.02 23.88-7.52 36-10.5z"/><path style="opacity:1" fill="#6959d5" d="M2067.5 1295.5c.76.77 1.76 1.27 3 1.5-2.79 19.06-1.45 37.89 4 56.5-.53.69-1.19 1.19-2 1.5 1.03 1.51.87 3.01-.5 4.5-.65-1.2-1.15-1.2-1.5 0 .23 2.17.56 4.34 1 6.5-2.93 1.01-3.76 2.85-2.5 5.5-.65-1.2-1.15-1.2-1.5 0 .53.69 1.19 1.19 2 1.5-1.33.67-2.67 1.33-4 2a326.38 326.38 0 0 0 17-4.5c5.62-.85 11.29-1.19 17-1-16.53 1.4-32.2 6.06-47 14-.81-1.15-1.81-1.15-3 0-.53-5.77 1.81-10.27 7-13.5a14.931 14.931 0 0 1-3-3.5c2.29-3.73 4.96-7.23 8-10.5l-1-1c1.55-2.22 2.55-4.72 3-7.5-1.98-1.25-2.31-2.75-1-4.5-2.02-1.13-2.36-2.8-1-5-3.68-13.48-3.85-26.98-.5-40.5 2.15-.73 4.32-1.4 6.5-2z"/><path style="opacity:1" fill="#6d86e9" d="M2158.5 1297.5c4.57.89 8.91 2.22 13 4-3.8.09-7.47-.58-11-2-.94.11-1.78.44-2.5 1-5.38 30.55 4.95 53.88 31 70 1.02-1.13 1.68-.8 2 1 1.02-1.13 1.68-.8 2 1l1-1c14.84 7.14 30 7.81 45.5 2 .59.21 1.09.54 1.5 1l4-4c3.25-.15 6.75-1.65 10.5-4.5 20.42-17.05 28.42-38.88 24-65.5-1.18-1.14-4.51-1.47-10-1h-12c-5.73.18-11.4.85-17 2 2.78-1.43 5.78-2.6 9-3.5 15.17-.83 30.17-.66 45 .5a7.48 7.48 0 0 0 2 3c1 11.31 1.33 22.65 1 34-.83-10.83-1.33-21.83-1.5-33-.68 4.33-1.85 8.5-3.5 12.5.41 3.56 1.41 6.89 3 10-1.09 3.08-2.26 2.92-3.5-.5-1.98 7.09-3.81 13.93-5.5 20.5a131.751 131.751 0 0 1-20 27c-6.48 4.74-13.48 8.74-21 12-1.27.31-2.43.81-3.5 1.5l-1-1c-.95 2.09-2.29 2.43-4 1-.39.93-1.05 1.59-2 2-1.65-1.64-2.65-1.31-3 1-2.17-1.28-4.17-.94-6 1-4.85-1.31-9.68-1.31-14.5 0-1.94-2.12-4.11-2.45-6.5-1-7.66-2.28-15.49-5.44-23.5-9.5-3.19-3.1-6.86-5.43-11-7-21.1-20.97-29.1-45.97-24-75 4.01-.36 8.01-.19 12 .5z"/><path style="opacity:.985" d="M299.5 1297.5h114v152h70v-152h112v410h-112v-159h-70v159h-114v-410z"/><path style="opacity:.999" fill="#6853d2" d="M2076.5 1292.5c-2.47 1.94-5.47 2.94-9 3-2.18.6-4.35 1.27-6.5 2-3.35 13.52-3.18 27.02.5 40.5-1.36 2.2-1.02 3.87 1 5-1.31 1.75-.98 3.25 1 4.5-.45 2.78-1.45 5.28-3 7.5l1 1a66.517 66.517 0 0 0-8 10.5c.81 1.31 1.81 2.48 3 3.5-5.19 3.23-7.53 7.73-7 13.5 1.19-1.15 2.19-1.15 3 0-22.92 13.59-38.92 32.92-48 58-.27-2.34-1.11-2.34-2.5 0-3.11-1.17-3.28-.67-.5 1.5-2.07.32-2.4 1.16-1 2.5-2.81 2.52-5.64 2.52-8.5 0-.68 1.28-.52 2.45.5 3.5-2.1 1.69-4.1 3.52-6 5.5-20.88-4.25-41.88-5.91-63-5a84.686 84.686 0 0 1 4.5-15c16.69.95 33.36 2.61 50 5 1.66-.98 3.32-1.98 5-3 .33.67.67 1.33 1 2 .28-2.39 1.28-3.05 3-2 .59-1.4.43-2.73-.5-4 2.27-.81 4.6-1.31 7-1.5l-1-1c1.26-1.11 2.43-1.28 3.5-.5 1.45-1.41 1.29-2.91-.5-4.5 1.28-.68 2.45-.52 3.5.5 1.11-1.26 1.28-2.43.5-3.5h4c-.33-1-.67-2-1-3 2-.67 3.33-2 4-4 1.24-.46 2.08.04 2.5 1.5l1-1c3.43-4.68 6.76-10.01 10-16 1.47.37 2.97-.13 4.5-1.5-.67-.33-1.33-.67-2-1 1.32-2.32 2.99-4.32 5-6-1.51-.84-2.01-2-1.5-3.5 1.02 1.13 1.68.8 2-1 .33.67.67 1.33 1 2 2.28-1.61 3.78-3.78 4.5-6.5-.67-.33-1.33-.67-2-1 1.44-2.24 3.44-4.57 6-7-2.19-.6-2.35-1.77-.5-3.5l1 1c.83-1.5 2-2.67 3.5-3.5-1.51-2.45-.85-4.12 2-5-.95-.72-1.12-1.55-.5-2.5.65 1.2 1.15 1.2 1.5 0-1.22-4.32.44-7.16 5-8.5-1.02-.52-1.68-1.35-2-2.5.4-1.49.73-2.99 1-4.5-2.41-14.35-3.41-28.68-3-43 1.05-.49 2.05-.33 3 .5 1.2-.35 1.2-.85 0-1.5 3.43-1.06 6.43-2.56 9-4.5 6.23-1.81 12.56-3.14 19-4z"/><path style="opacity:.991" fill="#6e5ad8" d="M2350.5 1297.5h13c4.88.74 9.88 1.57 15 2.5l-1.5 1.5c-.75 10.19-.58 20.35.5 30.5-.25 1.72-.91 3.22-2 4.5 1.02 1.93 1.19 3.93.5 6-.65-1.2-1.15-1.2-1.5 0 .51 4.34.01 8.67-1.5 13-1.87 6.82-4.37 13.15-7.5 19a57.432 57.432 0 0 1-8-12c.62.11 1.12.44 1.5 1 .45-2.63 1.28-5.13 2.5-7.5-.14-.77-.48-1.44-1-2 2.09-.95 2.43-2.29 1-4 .67-.33 1.33-.67 2-1-.33-1-.67-2-1-3 2.29-1.43 2.62-3.26 1-5.5 2.84-12.21 3.51-24.54 2-37 .21-1.49.88-2.66 2-3.5-5.82-.81-11.48-1.64-17-2.5z"/><path style="opacity:.992" fill="#6e54d7" d="M2363.5 1297.5h18c1.65 1.43 3.65 2.26 6 2.5.69 1.07 1.19 2.23 1.5 3.5.67 8 .67 16 0 24-1.5 2.29-1.67 4.63-.5 7-1.68 7.57-3.18 15.23-4.5 23-2.59 7.78-5.09 15.28-7.5 22.5-.07 2.47-.07 4.97 0 7.5-.73.59-1.73.59-3 0-3.43-3.86-6.1-8.19-8-13 3.13-5.85 5.63-12.18 7.5-19 1.51-4.33 2.01-8.66 1.5-13 .35-1.2.85-1.2 1.5 0 .69-2.07.52-4.07-.5-6 1.09-1.28 1.75-2.78 2-4.5a169.795 169.795 0 0 1-.5-30.5l1.5-1.5c-5.12-.93-10.12-1.76-15-2.5z"/><path style="opacity:.991" fill="#990ae8" d="M2645.5 1297.5c-.66 28.35.01 56.35 2 84a3103.813 3103.813 0 0 1-42 63c.33-45.74-.01-91.41-1-137 12.32-8.4 25.98-11.73 41-10z"/><path style="opacity:.983" fill="#a004ee" d="M2645.5 1297.5c17-.17 34 0 51 .5 2.41.76 3.41 2.42 3 5-.17 1.17-.33 2.33-.5 3.5a6471.32 6471.32 0 0 1-51.5 75c-1.99-27.65-2.66-55.65-2-84z"/><path style="opacity:.999" fill="#674ed0" d="M2057.5 1296.5c-2.57 1.94-5.57 3.44-9 4.5 1.2.65 1.2 1.15 0 1.5-.95-.83-1.95-.99-3-.5-.41 14.32.59 28.65 3 43-.27 1.51-.6 3.01-1 4.5.32 1.15.98 1.98 2 2.5-4.56 1.34-6.22 4.18-5 8.5-.35 1.2-.85 1.2-1.5 0-.62.95-.45 1.78.5 2.5-2.85.88-3.51 2.55-2 5-1.5.83-2.67 2-3.5 3.5l-1-1c-1.85 1.73-1.69 2.9.5 3.5-2.56 2.43-4.56 4.76-6 7 .67.33 1.33.67 2 1-.72 2.72-2.22 4.89-4.5 6.5-.33-.67-.67-1.33-1-2-.32 1.8-.98 2.13-2 1-.51 1.5-.01 2.66 1.5 3.5a21.812 21.812 0 0 0-5 6c.67.33 1.33.67 2 1-1.53 1.37-3.03 1.87-4.5 1.5-3.24 5.99-6.57 11.32-10 16l-1 1c-.42-1.46-1.26-1.96-2.5-1.5-.67 2-2 3.33-4 4 .33 1 .67 2 1 3h-4c.78 1.07.61 2.24-.5 3.5-1.05-1.02-2.22-1.18-3.5-.5 1.79 1.59 1.95 3.09.5 4.5-1.07-.78-2.24-.61-3.5.5l1 1c-2.4.19-4.73.69-7 1.5.93 1.27 1.09 2.6.5 4-1.72-1.05-2.72-.39-3 2-.33-.67-.67-1.33-1-2-1.68 1.02-3.34 2.02-5 3a585.642 585.642 0 0 0-50-5 84.686 84.686 0 0 0-4.5 15c.2 2.45-.13 4.78-1 7-.01 3.03-.34 6.03-1 9-.14 1.53-.81 2.53-2 3 1.2-12.02 3.54-23.69 7-35 1.51-3.85 2.84-7.85 4-12 14.94.48 29.6 1.81 44 4 .33-.17.67-.33 1-.5-1.66-1.44-2.32-3.28-2-5.5 1.64.02 2.98-.65 4-2 2.15 2.31 4.15 1.98 6-1-1.03.2-2.03-.3-3-1.5 1.61-.72 3.11-.55 4.5.5 1.07-1.12 2.24-2.12 3.5-3-1.09-1.11-1.09-2.11 0-3 1.15 2.36 2.49 2.52 4 .5a7.379 7.379 0 0 1-3-2c3.01-1.84 6.01-3.67 9-5.5-.21-.59-.54-1.09-1-1.5 2.31-1.66 4.64-3.33 7-5-.79-1.09-1.46-2.25-2-3.5 1.26-.88 2.43-1.88 3.5-3l1 1c.47-1.43 1.3-2.6 2.5-3.5-1.46-.42-1.96-1.26-1.5-2.5 3.11-3.77 6.61-7.27 10.5-10.5-.67-.33-1.33-.67-2-1 2.27-2.96 4.94-6.29 8-10-2.67-.67-2.67-1.33 0-2l-1-1c1.26-1.11 2.43-1.28 3.5-.5.62-.95.45-1.78-.5-2.5 1.96-1.75 2.96-3.91 3-6.5h3v-4h3c.18-4.82-.49-9.48-2-14-.16-3.45.17-6.95 1-10.5-.67-2.33-1.33-4.67-2-7 1.19-3.83 2.19-7.66 3-11.5 7.19-2.73 14.53-5.06 22-7z"/><path style="opacity:1" fill="#6c6dde" d="M2336.5 1332.5c-6.16-8.97-12.32-17.97-18.5-27-.74-2.38-.24-4.38 1.5-6 7.99-1.14 15.99-.98 24 .5-1.44.22-2.77.72-4 1.5 1.23 10.31 1.23 20.64 0 31h-3z"/><path style="opacity:1" fill="#6c66dc" d="M2339.5 1297.5c5.18.89 10.51 1.73 16 2.5.43 13.15-.4 26.32-2.5 39.5-.69 3.44-1.69 6.77-3 10-1.31-1.69-2.81-3.03-4.5-4a89.443 89.443 0 0 1-9-13h3c1.23-10.36 1.23-20.69 0-31 1.23-.78 2.56-1.28 4-1.5a73.832 73.832 0 0 0-24-.5c.11-.62.44-1.12 1-1.5 6.32-.5 12.66-.67 19-.5z"/><path style="opacity:1" fill="#6d8cec" d="M2171.5 1301.5c2.05-.1 3.72.57 5 2-1.97.24-3.8-.09-5.5-1-4.47 15.11-1.63 28.61 8.5 40.5l-1 1a36.28 36.28 0 0 1 11 11.5c1.22 1.21 2.39 1.21 3.5 0 2.45 1.56 4.78 3.9 7 7 1.06-.6 2.23-.93 3.5-1 13.18 5 25.68 3.67 37.5-4l1 1c4.57-2.23 8.57-5.23 12-9 .48-.95.65-1.95.5-3h3c.35-3.69 2.01-6.69 5-9 6.04-12 7.04-24.33 3-37 1.6.27 2.93-.07 4-1 5.49-.47 8.82-.14 10 1 4.42 26.62-3.58 48.45-24 65.5-3.75 2.85-7.25 4.35-10.5 4.5l-4 4c-.41-.46-.91-.79-1.5-1-15.5 5.81-30.66 5.14-45.5-2l-1 1c-.32-1.8-.98-2.13-2-1-.32-1.8-.98-2.13-2-1-26.05-16.12-36.38-39.45-31-70 .72-.56 1.56-.89 2.5-1a27.45 27.45 0 0 0 11 2z"/><path style="opacity:1" fill="#6d98f1" d="M2257.5 1299.5c-.71.9-1.71 1.24-3 1 .83 2.25.83 4.42 0 6.5 4.52 17.71-1.48 31.71-18 42-23.9 9.14-41.9 2.48-54-20v-4c-1.72-.81-2.05-2.31-1-4.5-.57-1.87-1.23-3.7-2-5.5 1.8-2.59 2.13-5.26 1-8 1.95-.16 3.62-.33 5-.5h1c3.27 3.31 7.27 5.65 12 7 1.65.16 2.99.83 4 2-2.31-.49-4.64-.83-7-1-.7 6.89 1.64 12.73 7 17.5-1.25 2.58-.58 3.42 2 2.5 6.47 3.8 13.47 4.97 21 3.5a81.33 81.33 0 0 1 11-5c-.81-2.29.02-4.12 2.5-5.5 1.73-3.76 3.23-7.59 4.5-11.5a70.177 70.177 0 0 0-4-11c.83-.91 1.83-1.58 3-2-1-.67-2-.67-3 0a87.378 87.378 0 0 0-9 5.5c2.27-3.81 5.61-6.14 10-7 5.6-1.15 11.27-1.82 17-2z"/><path style="opacity:1" fill="#6d92ee" d="M2257.5 1299.5h12c-1.07.93-2.4 1.27-4 1 4.04 12.67 3.04 25-3 37-2.99 2.31-4.65 5.31-5 9h-3c.15 1.05-.02 2.05-.5 3a39.503 39.503 0 0 1-12 9l-1-1c-11.82 7.67-24.32 9-37.5 4-1.27.07-2.44.4-3.5 1-2.22-3.1-4.55-5.44-7-7-1.11 1.21-2.28 1.21-3.5 0a36.28 36.28 0 0 0-11-11.5l1-1c-10.13-11.89-12.97-25.39-8.5-40.5 1.7.91 3.53 1.24 5.5 1 3.36.19 6.36 1.19 9 3-1.38.17-3.05.34-5 .5 1.13 2.74.8 5.41-1 8 .77 1.8 1.43 3.63 2 5.5-1.05 2.19-.72 3.69 1 4.5v4c12.1 22.48 30.1 29.14 54 20 16.52-10.29 22.52-24.29 18-42 .83-2.08.83-4.25 0-6.5 1.29.24 2.29-.1 3-1z"/><path style="opacity:1" fill="#6d5fda" d="M2339.5 1297.5h11c5.52.86 11.18 1.69 17 2.5-1.12.84-1.79 2.01-2 3.5 1.51 12.46.84 24.79-2 37 1.62 2.24 1.29 4.07-1 5.5.33 1 .67 2 1 3-.67.33-1.33.67-2 1 1.43 1.71 1.09 3.05-1 4 .52.56.86 1.23 1 2a25.787 25.787 0 0 0-2.5 7.5c-.38-.56-.88-.89-1.5-1a231.5 231.5 0 0 1-12-17c1.69.97 3.19 2.31 4.5 4 1.31-3.23 2.31-6.56 3-10 2.1-13.18 2.93-26.35 2.5-39.5a525.22 525.22 0 0 1-16-2.5z"/><path style="opacity:.994" fill="#6a34ca" d="M1779.5 1294.5c46.43 8.78 80.93 33.78 103.5 75 1.8 3.57 3.3 7.24 4.5 11-1.51-1-3.18-1.67-5-2 .88-4.89-1.12-7.39-6-7.5a25.62 25.62 0 0 0-7-6 8.394 8.394 0 0 0-4-.5c.19-1.6-.31-2.94-1.5-4h-6c-2.93-.52-5.43-1.86-7.5-4-.67.33-1.33.67-2 1 .1-1.12-.4-2.12-1.5-3-1.73-1.15-3.4-1.15-5 0a31.588 31.588 0 0 0-8-5c-.42 3.69-1.26 3.86-2.5.5-1.63-.59-3.13-1.42-4.5-2.5-2.68 1.56-4.68.89-6-2-.51 1.03-1.01 2.03-1.5 3-1.73-.51-2.07-1.34-1-2.5-3.79-.36-6.96-1.86-9.5-4.5-.04 1.42-1.21 2.42-3.5 3-6.72-17.95-15.38-34.62-26-50z"/><path style="opacity:.991" fill="#8a35e4" d="M1551.5 1296.5a210.72 210.72 0 0 1 22 7c-2.38 2.37-4.54 5.04-6.5 8a356.214 356.214 0 0 0-16 32c-.37 2.2-.87 4.36-1.5 6.5 2.19 6.44 2.19 12.94 0 19.5.17.67.33 1.33.5 2 .33-1 .67-2 1-3 .59 3.19.43 6.36-.5 9.5.57 1.61 1.24 3.11 2 4.5-8.06-4.53-16.39-8.2-25-11-.89-.76-1.56-1.76-2-3 3.4-13.53 7.4-26.87 12-40-.35-1.2-.85-1.2-1.5 0-.33 1-.67 2-1 3-.67-1.67-.67-3.33 0-5 4.95-10.94 10.45-20.94 16.5-30z"/><path style="opacity:.998" fill="#6647cd" d="M2035.5 1303.5c-.81 3.84-1.81 7.67-3 11.5.67 2.33 1.33 4.67 2 7-.83 3.55-1.16 7.05-1 10.5 1.51 4.52 2.18 9.18 2 14h-3v4h-3c-.04 2.59-1.04 4.75-3 6.5.95.72 1.12 1.55.5 2.5-1.07-.78-2.24-.61-3.5.5l1 1c-2.67.67-2.67 1.33 0 2-3.06 3.71-5.73 7.04-8 10 .67.33 1.33.67 2 1a78.915 78.915 0 0 0-10.5 10.5c-.46 1.24.04 2.08 1.5 2.5-1.2.9-2.03 2.07-2.5 3.5l-1-1a23.215 23.215 0 0 1-3.5 3c.54 1.25 1.21 2.41 2 3.5-2.36 1.67-4.69 3.34-7 5 .46.41.79.91 1 1.5-2.99 1.83-5.99 3.66-9 5.5.83.91 1.83 1.58 3 2-1.51 2.02-2.85 1.86-4-.5-1.09.89-1.09 1.89 0 3-1.26.88-2.43 1.88-3.5 3-1.39-1.05-2.89-1.22-4.5-.5.97 1.2 1.97 1.7 3 1.5-1.85 2.98-3.85 3.31-6 1-1.02 1.35-2.36 2.02-4 2-.32 2.22.34 4.06 2 5.5-.33.17-.67.33-1 .5-14.4-2.19-29.06-3.52-44-4-1.16 4.15-2.49 8.15-4 12 1.35-8.05 3.68-15.71 7-23 1.88-1.18 4.05-1.84 6.5-2 9.54.89 18.88 1.56 28 2 .65-2.22 2.15-3.39 4.5-3.5-1.33-.67-1.33-1.33 0-2 .95-.48 1.95-.65 3-.5-.26-1.48.07-2.81 1-4-.39 1.39.44 2.39 2.5 3-.15-1.32.02-2.49.5-3.5-.67-.33-1.33-.67-2-1 1.5-.83 2.67-2 3.5-3.5.33.67.67 1.33 1 2 .66-3.66 2.82-5.49 6.5-5.5-2.27-1.08-2.43-2.58-.5-4.5.72.95 1.55 1.12 2.5.5-.95-.72-1.12-1.55-.5-2.5 1 1.33 2 1.33 3 0 .68-1.28.52-2.45-.5-3.5 1.8-.32 2.13-.98 1-2 1.73-1.85 2.9-1.69 3.5.5.57-1.99 1.74-3.49 3.5-4.5-1-.33-2-.67-3-1 3.72-3.67 7.38-7.33 11-11l-1-1c2.18-.44 2.85-1.44 2-3 .96-1.42 1.79-2.92 2.5-4.5.67 1.33 1.33 1.33 2 0 .49-1.63.66-3.3.5-5h3c-.16-1.37.01-2.71.5-4l1 1c1.85-1.73 1.69-2.9-.5-3.5 1.17-.5 2-1.33 2.5-2.5.56 2.1 1.06 2.26 1.5.5-1.33-2.67-1.33-5.33 0-8-.8-1.09-1.46-2.26-2-3.5.91-5.96 1.25-11.96 1-18h-5c5.8-3.94 12.14-6.94 19-9z"/><path style="opacity:1" fill="#7147d6" d="M2400.5 1300.5c5.28 1.74 9.95 4.41 14 8-.74 16.15-2.74 32.15-6 48 .33.67.67 1.33 1 2-.35 1.2-.85 1.2-1.5 0-.68 1.28-.52 2.45.5 3.5-2.31.35-2.64 1.35-1 3-2.22 6.67-4.56 13.67-7 21 .46.41.79.91 1 1.5l-3 6c-1.8.64-3.3 1.64-4.5 3-.58-1.88-.41-3.71.5-5.5-.11-1.72-.61-1.89-1.5-.5.05 3.15-1.11 5.65-3.5 7.5 1 1.67 2 3.33 3 5-.7 1.89-1.53 3.73-2.5 5.5-.72-1.56-1.89-2.56-3.5-3-2.99-3.96-5.99-7.96-9-12 1.52.01 2.68.68 3.5 2 4.96-6.97 7.79-14.13 8.5-21.5.89-1.22 1.89-2.55 3-4l-1-1c3.64-9.85 6.14-20.02 7.5-30.5.54-12.07 1.71-23.9 3.5-35.5-1.26-.42-1.92-1.25-2-2.5z"/><path style="opacity:.996" fill="#873be3" d="M1573.5 1303.5a85.855 85.855 0 0 1 19 10 5.576 5.576 0 0 1-3-1c-7.83 10.98-14.66 22.64-20.5 35a817.683 817.683 0 0 0-11.5 38c-1.91-.58-3.58-1.58-5-3-.76-1.39-1.43-2.89-2-4.5.93-3.14 1.09-6.31.5-9.5-.33 1-.67 2-1 3-.17-.67-.33-1.33-.5-2 2.19-6.56 2.19-13.06 0-19.5.63-2.14 1.13-4.3 1.5-6.5a356.214 356.214 0 0 1 16-32c1.96-2.96 4.12-5.63 6.5-8z"/><path style="opacity:1" fill="#7246d6" d="M1733.5 1307.5c3.75 2.64 7.25 5.64 10.5 9 8.53 10.4 15.53 21.74 21 34 .56-.52 1.23-.86 2-1 1.76.44 1.6.94-.5 1.5 2.55.76 5.05 1.59 7.5 2.5.33-.67.67-1.33 1-2 .75 1.83 1.75 3.5 3 5-.44-2.89-.44-5.56 0-8a27.1 27.1 0 0 0 6.5 1.5c.47 1.3.47 2.8 0 4.5 1.64.02 2.98-.65 4-2 1.27.93 2.6 1.09 4 .5-.67-.33-1.33-.67-2-1 2.39-1.31 2.39-2.31 0-3 1.27-.9 2.27-2.07 3-3.5 1.2.35 1.2.85 0 1.5 4.69.82 8.36 2.32 11 4.5v3c1.95-.27 3.45.39 4.5 2 1.85-1.73 1.69-2.9-.5-3.5 2.27-1.61 3.27-.78 3 2.5 2.42-.31 4.76.03 7 1-2.19 1.88-1.53 2.38 2 1.5-1.2-.65-1.2-1.15 0-1.5 1.4 1.02 2.73 2.02 4 3 .32 1.55 1.32 2.21 3 2-.16 1.37.01 2.71.5 4 4.43 3.8 9.26 6.96 14.5 9.5.17 1.12.5 2.28 1 3.5 1.83.56 3.16 1.56 4 3-5.45-.86-10.12-3.2-14-7-1.24 3.81-1.9 3.81-2 0-2.96-.02-5.46-1.02-7.5-3-.45 2.43-1.28 2.6-2.5.5 1.12-1.61.62-2.78-1.5-3.5-1.73 2.58-3.56 2.58-5.5 0a6.816 6.816 0 0 1-4 1c.37 3.41-.63 3.91-3 1.5.81-.31 1.47-.81 2-1.5a72.38 72.38 0 0 0-8-6.5c-1.13.11-2.13.61-3 1.5-.67-.17-1.33-.33-2-.5 1.46-.42 1.96-1.26 1.5-2.5-.67.75-1.5 1.09-2.5 1-1.45-1.11-3.11-1.28-5-.5-.18 1.66.49 3.33 2 5 .07 2.47.07 4.97 0 7.5a84.967 84.967 0 0 1-7.5-5 7.379 7.379 0 0 1-2 3c-1.65-.43-3.15-1.77-4.5-4-1.76-.19-3.6-.19-5.5 0-.5-3.05-2-4.05-4.5-3-.67-1-1.33-2-2-3 .19 1.19-.31 2.52-1.5 4-.22-1.44-.72-2.77-1.5-4h-5c-3.28-1.96-5.95-3.96-8-6-.69.53-1.19 1.19-1.5 2-1.3-1.62-2.8-2.96-4.5-4-1.53.03-2.7.7-3.5 2-5.85-3.59-10.18-8.59-13-15l-11.5-11.5c.23-.4.56-.57 1-.5 3.92 3.17 7.75 5.84 11.5 8-.55-2.59-2.05-4.76-4.5-6.5 1.33-2 1.33-4 0-6 .53-.69 1.19-1.19 2-1.5 2.48 1.98 4.82 4.15 7 6.5.67.67 1.33.67 2 0 .58-1.86-.09-3.53-2-5 .36-3.01.69-6.01 1-9a95.563 95.563 0 0 0-9-9c.35-1.26 1.02-1.59 2-1 1.85 2.02 3.85 3.85 6 5.5.79-1.2.79-2.53 0-4z"/><path style="opacity:1" fill="#6d9ef3" d="M2202.5 1315.5c5.87 2.1 10.87 5.43 15 10 .64 1.83 1.64 2.17 3 1 1.68-4.02 3.35-8.02 5-12 .92-2.59 2.59-4.59 5-6 2.83-1.98 5.83-3.81 9-5.5 1-.67 2-.67 3 0a7.379 7.379 0 0 0-3 2c1.64 3.55 2.97 7.22 4 11-1.27 3.91-2.77 7.74-4.5 11.5-2.48 1.38-3.31 3.21-2.5 5.5a81.33 81.33 0 0 0-11 5c-7.53 1.47-14.53.3-21-3.5-2.58.92-3.25.08-2-2.5-5.36-4.77-7.7-10.61-7-17.5 2.36.17 4.69.51 7 1z"/><path style="opacity:.996" fill="#920de3" d="M2604.5 1307.5c.99 45.59 1.33 91.26 1 137-9.26 13.53-18.26 27.2-27 41-1-47.16-1.33-94.5-1-142a545.85 545.85 0 0 1 16.5-26c3.37-3.54 6.87-6.87 10.5-10z"/><path style="opacity:.998" fill="#9c08ec" d="M1453.5 1298.5c.11.62.44 1.12 1 1.5-1.89 1.97-3.22 4.3-4 7 1.11 2.74 1.28 5.57.5 8.5-8.49 29.25-12.99 58.92-13.5 89-5.08 10.42-8.25 21.42-9.5 33-.33 88.33-.67 176.67-1 265-.98 1.48-2.15 2.81-3.5 4-12.65 1-25.32 1.33-38 1v-2h27c-.01-129.84-.01-259.51 0-389 12.56-8.44 26.22-14.44 41-18z"/><path style="opacity:.4" fill="#6d72e2" d="M2186.5 1306.5c4.36 1.84 8.36 4.18 12 7-4.73-1.35-8.73-3.69-12-7z"/><path style="opacity:1" fill="#7241d4" d="M2414.5 1308.5a39.3 39.3 0 0 1 10 11c-2.31 2.65-2.64 5.65-1 9-.67 1.33-1.33 2.67-2 4 .82 4.11.82 7.94 0 11.5-.25 1.33-.92 2.33-2 3 .79 2.43 1.13 4.77 1 7-3.17 10.84-6.34 21.68-9.5 32.5-3.83 9.42-7.33 18.58-10.5 27.5.79 1.09 1.46 2.25 2 3.5-.75.24-1.58.57-2.5 1-.33-.67-.67-1.33-1-2-1.48.97-2.31 2.3-2.5 4a60.247 60.247 0 0 1-10-15c1.61.44 2.78 1.44 3.5 3 .97-1.77 1.8-3.61 2.5-5.5-1-1.67-2-3.33-3-5 2.39-1.85 3.55-4.35 3.5-7.5.89-1.39 1.39-1.22 1.5.5-.91 1.79-1.08 3.62-.5 5.5 1.2-1.36 2.7-2.36 4.5-3l3-6c-.21-.59-.54-1.09-1-1.5 2.44-7.33 4.78-14.33 7-21-1.64-1.65-1.31-2.65 1-3-1.02-1.05-1.18-2.22-.5-3.5.65 1.2 1.15 1.2 1.5 0-.33-.67-.67-1.33-1-2 3.26-15.85 5.26-31.85 6-48z"/><path style="opacity:1" fill="#8540e3" d="M1592.5 1313.5c7.21 3.1 13.54 7.43 19 13-1.93-.74-3.76-1.74-5.5-3-9.99 12.02-17.99 25.35-24 40-3.95 12.8-7.12 25.8-9.5 39-4.6-5.94-9.6-11.6-15-17 3.52-12.75 7.36-25.42 11.5-38 5.84-12.36 12.67-24.02 20.5-35 .92.63 1.92.96 3 1z"/><path style="opacity:.999" fill="#6541ca" d="M2016.5 1312.5h5c.25 6.04-.09 12.04-1 18 .54 1.24 1.2 2.41 2 3.5-1.33 2.67-1.33 5.33 0 8-.44 1.76-.94 1.6-1.5-.5-.5 1.17-1.33 2-2.5 2.5 2.19.6 2.35 1.77.5 3.5l-1-1a8.394 8.394 0 0 0-.5 4h-3c.16 1.7-.01 3.37-.5 5-.67 1.33-1.33 1.33-2 0-.71 1.58-1.54 3.08-2.5 4.5.85 1.56.18 2.56-2 3l1 1c-3.62 3.67-7.28 7.33-11 11 1 .33 2 .67 3 1-1.76 1.01-2.93 2.51-3.5 4.5-.6-2.19-1.77-2.35-3.5-.5 1.13 1.02.8 1.68-1 2 1.02 1.05 1.18 2.22.5 3.5-1 1.33-2 1.33-3 0-.62.95-.45 1.78.5 2.5-.95.62-1.78.45-2.5-.5-1.93 1.92-1.77 3.42.5 4.5-3.68.01-5.84 1.84-6.5 5.5-.33-.67-.67-1.33-1-2-.83 1.5-2 2.67-3.5 3.5.67.33 1.33.67 2 1-.48 1.01-.65 2.18-.5 3.5-2.06-.61-2.89-1.61-2.5-3-.93 1.19-1.26 2.52-1 4-1.05-.15-2.05.02-3 .5-1.33.67-1.33 1.33 0 2-2.35.11-3.85 1.28-4.5 3.5-9.12-.44-18.46-1.11-28-2-2.45.16-4.62.82-6.5 2 .53-4.6 1.87-8.93 4-13 7.37 1.55 14.87 2.55 22.5 3 1.33-.25 2.33-.92 3-2 .33.67.67 1.33 1 2 1-2.33 2-4.67 3-7 .33.67.67 1.33 1 2 .67-2 2-3.33 4-4 .62-.95.45-1.78-.5-2.5 3.07-2.49 6.4-4.49 10-6-1.33-.33-2.67-.67-4-1 2.8-1.13 4.96-2.97 6.5-5.5 1.07.78 2.24.61 3.5-.5-1.47-2.61-.97-4.77 1.5-6.5.95.41 1.61 1.07 2 2 1.51-1.8 1.67-3.63.5-5.5 2.72-1.28 4.72-3.28 6-6 4-.67 4-1.33 0-2 1.61-.47 3.27-1.14 5-2l-1-1c1.9-2.77 3.74-5.6 5.5-8.5l1 1c1.13-1.85 1.63-3.85 1.5-6h3c-.59-7.17-1.26-14.33-2-21.5.42-1.99 1.09-3.82 2-5.5 1.01-1.17 2.35-1.84 4-2z"/><path style="opacity:.996" fill="#9221e7" d="M1518.5 1290.5c-3.26 6.6-6.42 13.27-9.5 20-.71-1.47-1.88-2.14-3.5-2 .02 2.1-.64 3.93-2 5.5.13 1.06.63 1.89 1.5 2.5.42-1.46 1.26-1.96 2.5-1.5-3.5 7.83-6.17 16-8 24.5.43.79.76 1.63 1 2.5-2.72 8.71-4.56 17.55-5.5 26.5.33-1 .67-2 1-3 1.33 1.38 1.5 2.71.5 4a96.267 96.267 0 0 0-28 8c-.17-16 0-32 .5-48 .33-1.33.67-2.67 1-4 .65 1.2 1.15 1.2 1.5 0-.68-2.67-.35-5.34 1-8 1.88-.7 2.22-1.7 1-3 2.26-7.8 5.26-15.13 9-22 .79-.28 1.46-.78 2-1.5 11.33-.5 22.66-.67 34-.5z"/><path style="opacity:1" fill="#774ddd" d="M1717.5 1329.5c-.44-.07-.77.1-1 .5l11.5 11.5c2.82 6.41 7.15 11.41 13 15 .8-1.3 1.97-1.97 3.5-2 1.7 1.04 3.2 2.38 4.5 4 .31-.81.81-1.47 1.5-2 2.05 2.04 4.72 4.04 8 6h5c.78 1.23 1.28 2.56 1.5 4 1.19-1.48 1.69-2.81 1.5-4 .67 1 1.33 2 2 3 2.5-1.05 4-.05 4.5 3 1.9-.19 3.74-.19 5.5 0 1.35 2.23 2.85 3.57 4.5 4 .91-.83 1.58-1.83 2-3 2.37 1.77 4.87 3.44 7.5 5 .07-2.53.07-5.03 0-7.5-1.51-1.67-2.18-3.34-2-5 1.89-.78 3.55-.61 5 .5-.7 1.57-1.03 3.07-1 4.5 2.33.33 4.67.67 7 1 .57 1.21 1.24 2.37 2 3.5.93 1.14 1.76 1.14 2.5 0 .17.33.33.67.5 1-3.78 1.5-3.78 3.16 0 5-.74.68-1.41 1.35-2 2-3.17.1-6.17-.57-9-2-3.87.99-3.87.49 0-1.5-4.88-.89-6.54-.73-5 .5.36 2.77 1.02 5.43 2 8-20.44-13.09-42.78-17.76-67-14 1.45-1.66 3.45-2.5 6-2.5-2.69.05-4.52-1.11-5.5-3.5-.52 1.02-1.35 1.68-2.5 2a39.093 39.093 0 0 0-8-2.5c-7.91-9.07-17.58-15.57-29-19.5-1.21.77-1.21 1.61 0 2.5 3.79 1.39 7.45 3.06 11 5 1.2.65 1.2 1.15 0 1.5-11.96-7.05-24.62-8.72-38-5-.06-.54-.39-.88-1-1l-6 3c-.81-.31-1.47-.81-2-1.5 2.46-1.56 5.12-2.56 8-3a29.18 29.18 0 0 1 4-6c1.05-.49 2.05-.33 3 .5.81-.31 1.47-.81 2-1.5-.28-2.47-.28-5.14 0-8 3-.33 6-.67 9-1-12.98.19-13.32-1.31-1-4.5-2.59-.98-5.25-1.31-8-1v-3c2.75.31 5.41-.02 8-1-2.95-.65-5.95-.81-9-.5l-1-1c1.26-.42 1.92-1.25 2-2.5 6.03-.07 12.03.26 18 1 .14-1.62-.53-2.79-2-3.5.67-.17 1.33-.33 2-.5 11.9 3.28 22.57 8.62 32 16z"/><path style="opacity:.996" fill="#653bc7" d="M2012.5 1314.5c-.91 1.68-1.58 3.51-2 5.5.74 7.17 1.41 14.33 2 21.5h-3c.13 2.15-.37 4.15-1.5 6l-1-1c-1.76 2.9-3.6 5.73-5.5 8.5l1 1c-1.73.86-3.39 1.53-5 2 4 .67 4 1.33 0 2-1.28 2.72-3.28 4.72-6 6 1.17 1.87 1.01 3.7-.5 5.5-.39-.93-1.05-1.59-2-2-2.47 1.73-2.97 3.89-1.5 6.5-1.26 1.11-2.43 1.28-3.5.5-1.54 2.53-3.7 4.37-6.5 5.5 1.33.33 2.67.67 4 1-3.6 1.51-6.93 3.51-10 6 .95.72 1.12 1.55.5 2.5-2 .67-3.33 2-4 4-.33-.67-.67-1.33-1-2-1 2.33-2 4.67-3 7-.33-.67-.67-1.33-1-2-.67 1.08-1.67 1.75-3 2-7.63-.45-15.13-1.45-22.5-3 1.82-3.51 3.82-6.84 6-10 1.29-.56 2.12-1.56 2.5-3 2.3.73 4.97 1.39 8 2 1.5-.17 3-.33 4.5-.5-.95-.72-1.12-1.55-.5-2.5.67 1.33 1.33 1.33 2 0 .33 1 .67 2 1 3 .98-2.24 1.48-4.57 1.5-7 1.05.15 2.05-.02 3-.5 1.43-2.22 3.43-3.72 6-4.5-.85-3.67.82-5.5 5-5.5.33-1.16.33-2.5 0-4 3.2-1.79 5.86-4.12 8-7-.24-.87-.57-1.71-1-2.5 2.25-1.29 4.42-2.29 6.5-3 .62-.95.45-1.78-.5-2.5 3.35-3.18 6.35-6.68 9-10.5.24-5.23.24-10.57 0-16 3.95-3.98 8.62-6.98 14-9z"/><path style="opacity:.999" fill="#a004ee" d="M1412.5 1316.5c-.01 129.49-.01 259.16 0 389h-27c-.74.13-1.41-.04-2-.5 1.33-60.29 2-120.79 2-181.5 0-60.74-.34-121.4-1-182 2.73-4.24 6.06-8.07 10-11.5 5.88-4.72 11.88-9.22 18-13.5z"/><path style="opacity:1" fill="#7f4ee3" d="M1667.5 1316.5c-.08 1.25-.74 2.08-2 2.5l1 1c3.05-.31 6.05-.15 9 .5-2.59.98-5.25 1.31-8 1v3c2.75-.31 5.41.02 8 1-12.32 3.19-11.98 4.69 1 4.5-3 .33-6 .67-9 1-.28 2.86-.28 5.53 0 8-.53.69-1.19 1.19-2 1.5-.95-.83-1.95-.99-3-.5a29.18 29.18 0 0 0-4 6c-2.88.44-5.54 1.44-8 3 .53.69 1.19 1.19 2 1.5l6-3c.61.12.94.46 1 1-5.8 2.73-11.46 5.73-17 9-5.02 5.18-9.85 10.52-14.5 16-4.69 10.4-9.19 20.9-13.5 31.5.67.33 1.33.67 2 1-3.81 1.3-4.81 3.3-3 6-2 1.33-3.67 3-5 5 1.11 1.81.44 2.65-2 2.5.19 1.6-.31 2.94-1.5 4-.33-.67-.67-1.33-1-2-2.12 3.66-4.12 7.33-6 11-.68 1.28-.52 2.45.5 3.5-1.32 2.43-2.98 4.6-5 6.5.83.95.99 1.95.5 3a55.057 55.057 0 0 0-5.5 4.5c2.67.67 2.67 1.33 0 2 1.15 2.08.48 3.58-2 4.5 2.15 3.45 1.99 6.45-.5 9-1.8 5.56-1.3 10.89 1.5 16-1.49 3-2.82 6-4 9v-33c.83-6.15 1.33-12.49 1.5-19l1 1c.02-2.81 1.02-5.14 3-7 .52-7.92 1.35-7.92 2.5 0 .82-2.61 1.32-5.27 1.5-8 .92-.43 1.75-.76 2.5-1-3.87-.99-3.87-2.15 0-3.5-1.31-1.39-.98-2.39 1-3v-18c1.02-.52 1.68-1.35 2-2.5 3.49-22.15 13.16-40.98 29-56.5a7.379 7.379 0 0 0-3-2c5.2-5.11 10.53-9.28 16-12.5 8.66-4 17.66-7 27-9z"/><path style="opacity:1" fill="#704ed7" d="M2381.5 1297.5c6.53-.16 12.87.84 19 3 .08 1.25.74 2.08 2 2.5-1.79 11.6-2.96 23.43-3.5 35.5a139.515 139.515 0 0 1-7.5 30.5l1 1c-1.11 1.45-2.11 2.78-3 4-.71 7.37-3.54 14.53-8.5 21.5-.82-1.32-1.98-1.99-3.5-2-1.33-2-2.67-4-4-6 1.27.59 2.27.59 3 0-.07-2.53-.07-5.03 0-7.5 2.41-7.22 4.91-14.72 7.5-22.5 1.32-7.77 2.82-15.43 4.5-23-1.17-2.37-1-4.71.5-7 .67-8 .67-16 0-24-.31-1.27-.81-2.43-1.5-3.5-2.35-.24-4.35-1.07-6-2.5z"/><path style="opacity:.985" fill="#6334c4" d="M1998.5 1323.5c.24 5.43.24 10.77 0 16a67.425 67.425 0 0 1-9 10.5c.95.72 1.12 1.55.5 2.5-2.08.71-4.25 1.71-6.5 3 .43.79.76 1.63 1 2.5-2.14 2.88-4.8 5.21-8 7 .33 1.5.33 2.84 0 4-4.18 0-5.85 1.83-5 5.5-2.57.78-4.57 2.28-6 4.5-.95.48-1.95.65-3 .5-.02 2.43-.52 4.76-1.5 7-.33-1-.67-2-1-3-.67 1.33-1.33 1.33-2 0-.62.95-.45 1.78.5 2.5-1.5.17-3 .33-4.5.5-3.03-.61-5.7-1.27-8-2-.38 1.44-1.21 2.44-2.5 3 9.78-20.36 23.12-38.2 40-53.5 4.9-3.75 9.9-7.25 15-10.5z"/><path style="opacity:.576" fill="#6b75e2" d="M2225.5 1314.5c-1.65 3.98-3.32 7.98-5 12-1.36 1.17-2.36.83-3-1 .88.13 1.54-.2 2-1 1.01-4.03 3.01-7.36 6-10z"/><path style="opacity:1" fill="#8347e4" d="M1643.5 1320.5a25.305 25.305 0 0 1-4 4.5c.23.4.56.57 1 .5-5.47 3.22-10.8 7.39-16 12.5 1.17.42 2.17 1.09 3 2-15.84 15.52-25.51 34.35-29 56.5-.32 1.15-.98 1.98-2 2.5v18c-1.98.61-2.31 1.61-1 3-3.87 1.35-3.87 2.51 0 3.5-.75.24-1.58.57-2.5 1-.18 2.73-.68 5.39-1.5 8-1.15-7.92-1.98-7.92-2.5 0-1.98 1.86-2.98 4.19-3 7l-1-1c-.17 6.51-.67 12.85-1.5 19 1.32-19.38-2.34-37.71-11-55 2.38-13.2 5.55-26.2 9.5-39 6.01-14.65 14.01-27.98 24-40 1.74 1.26 3.57 2.26 5.5 3 4.27 2.93 8.27 6.27 12 10 6.42-5.76 13.08-11.09 20-16z"/><path style="opacity:.997" fill="#a401f1" d="M1384.5 1341.5c.66 60.6 1 121.26 1 182 0 60.71-.67 121.21-2 181.5.59.46 1.26.63 2 .5v2c-17.54-1.84-29.71-10.84-36.5-27-1.15-42.3-1.65-84.64-1.5-127 .17-40.33.33-80.67.5-121 1.77-29.99 11.11-57.32 28-82 2.33-3.5 5.17-6.5 8.5-9z"/><path style="opacity:.999" fill="#7434d2" d="M2431.5 1330.5a80.09 80.09 0 0 1 12 17c1.66 5.03.66 9.36-3 13 .94-.01 1.61.49 2 1.5-5.24 26.44-15.41 51.6-30.5 75.5a18.25 18.25 0 0 1-3.5 2c-1.33-2-2.67-4-4-6 2.27-1.69 2.6-3.86 1-6.5 7.32-13.29 13.65-26.63 19-40a7.239 7.239 0 0 1-2-2.5c1.22.39 2.05-.28 2.5-2 2.2-6.18 4.37-12.35 6.5-18.5-.14-.77-.48-1.44-1-2 2.27-2.73 2.93-5.73 2-9a52.73 52.73 0 0 0 2-10c.24-2.35-.59-4.18-2.5-5.5-.5-2.31-.66-4.64-.5-7z"/><path style="opacity:.997" fill="#8d10de" d="M2577.5 1343.5c-.33 47.5 0 94.84 1 142-5.33 11-5.33 22 0 33-1.31 48.19-1.31 96.19 0 144a1779.747 1779.747 0 0 1-31-47c.84-1.14 1.51-2.47 2-4-.35-75.26-.69-150.26-1-225a494.61 494.61 0 0 1 29-43z"/><path style="opacity:1" fill="#7e54e4" d="M1725.5 1370.5c-9.84 1.95-19.18 5.28-28 10 3.94-2.98 8.28-5.48 13-7.5-2.4-.73-4.57-1.9-6.5-3.5a6.603 6.603 0 0 0-3 3c-4.64-3.5-9.48-3.5-14.5 0-9.94-4.35-19.61-3.85-29 1.5 3.33 0 6.5-.83 9.5-2.5.17.33.33.67.5 1-2.62 1.26-5.28 2.43-8 3.5-.57 1.21-1.24 2.37-2 3.5-3.56 1.39-5.89 3.89-7 7.5l-6 3c1.33.67 1.33 1.33 0 2-1.73-.41-3.39-.24-5 .5 1 .83 2 1.67 3 2.5-.95.62-1.78.45-2.5-.5a21.903 21.903 0 0 1-7.5 6c.21.59.54 1.09 1 1.5-2.13.92-2.8 2.25-2 4-3.16 1.93-5.16 4.77-6 8.5a12.341 12.341 0 0 1-5 4.5c.67.33 1.33.67 2 1-1.35.77-2.18 1.94-2.5 3.5-.32-1.8-.98-2.13-2-1-.33 1.67-.67 3.33-1 5-2.48 1.38-3.31 3.21-2.5 5.5a77.699 77.699 0 0 1-4 5.5c1.22 2.41.56 4.24-2 5.5.83.91 1.83 1.58 3 2-.95.48-1.95.65-3 .5.15 1.05-.02 2.05-.5 3l-1-1c-.9 1.2-2.07 2.03-3.5 2.5 2.15 2.47 1.98 4.3-.5 5.5-.56 2.11-1.39 4.11-2.5 6 .32 2.59-1.02 4.42-4 5.5l1 1c-3.04 2.46-4.04 5.46-3 9-.8 1.09-1.46 2.26-2 3.5.73 1.65.89 3.32.5 5-1.1-1.89-2.43-2.56-4-2-.69 2.07-.52 4.07.5 6-4.29 2.86-4.96 6.19-2 10-1.17 1.41-.83 2.57 1 3.5-2.07.32-2.4 1.16-1 2.5-.31.81-.81 1.47-1.5 2-.33 3.67-.67 7.33-1 11-.17 18.5-.67 36.84-1.5 55v-84c1.18-3 2.51-6 4-9-2.8-5.11-3.3-10.44-1.5-16 2.49-2.55 2.65-5.55.5-9 2.48-.92 3.15-2.42 2-4.5 2.67-.67 2.67-1.33 0-2 1.74-1.62 3.57-3.12 5.5-4.5.49-1.05.33-2.05-.5-3 2.02-1.9 3.68-4.07 5-6.5-1.02-1.05-1.18-2.22-.5-3.5 1.88-3.67 3.88-7.34 6-11 .33.67.67 1.33 1 2 1.19-1.06 1.69-2.4 1.5-4 2.44.15 3.11-.69 2-2.5 1.33-2 3-3.67 5-5-1.81-2.7-.81-4.7 3-6-.67-.33-1.33-.67-2-1 4.31-10.6 8.81-21.1 13.5-31.5 4.65-5.48 9.48-10.82 14.5-16 5.54-3.27 11.2-6.27 17-9 13.38-3.72 26.04-2.05 38 5 1.2-.35 1.2-.85 0-1.5a81.222 81.222 0 0 0-11-5c-1.21-.89-1.21-1.73 0-2.5 11.42 3.93 21.09 10.43 29 19.5 2.76.55 5.43 1.38 8 2.5 1.15-.32 1.98-.98 2.5-2 .98 2.39 2.81 3.55 5.5 3.5-2.55 0-4.55.84-6 2.5z"/><path style="opacity:1" fill="#6c78e3" d="M2294.5 1298.5c2.8.47 4.13 2.13 4 5v78h-1a38.22 38.22 0 0 0-2.5-5 164.21 164.21 0 0 1-22.5 20.5c.67.33 1.33.67 2 1-1.73 2.06-3.73 2.56-6 1.5-18.15 9.13-36.48 14.63-55 16.5 1.77.54 2.1 1.37 1 2.5-2.5.62-4.83-.05-7-2-1.17.99-2.33 1.99-3.5 3-1-.67-2-1.33-3-2-.5.33-1 .67-1.5 1 1.15 1.19 1.15 2.19 0 3a266.384 266.384 0 0 0-19-24c1.52.01 2.68.68 3.5 2 .39-.93 1.05-1.59 2-2 2.41.52 4.58 1.52 6.5 3 2.33-1.34 4-.67 5 2 1.52-.38 3.19-.55 5-.5-1.39-.89-1.22-1.39.5-1.5 8.84 1.79 17.68 2.45 26.5 2 1.56-.22 2.89-.89 4-2 1.81 1.36 3.31 1.03 4.5-1 1.71 1.43 3.05 1.09 4-1l1 1c2.7-.78 5.03-2.11 7-4 2.19 1.08 3.86.42 5-2l1 1c.32-1.8.98-2.13 2-1 4.79-3.62 9.62-6.45 14.5-8.5l-1-1c2.17-.83 3.67-2.33 4.5-4.5l1 1c7.26-7.16 13.6-15.16 19-24 .33 2.33.67 4.67 1 7 .5-9.33.67-18.66.5-28 .33-11.35 0-22.69-1-34a7.48 7.48 0 0 1-2-3z"/><path style="opacity:1" fill="#6a66da" d="M2094.5 1292.5c1.22.66 2.55 1.33 4 2-4.38 22.44-2.05 44.1 7 65-.53.69-1.19 1.19-2 1.5 1.21 1.11 1.21 2.28 0 3.5.74 2.75 2.41 4.41 5 5h-9c-5.71-.19-11.38.15-17 1 .42-.72 1.08-1.22 2-1.5-.67-2.24-.17-4.41 1.5-6.5l1 1c1.83-2.39 1.66-4.73-.5-7 .67-.33 1.33-.67 2-1-3.39-6.36-4.05-12.86-2-19.5-.11-1.72-.61-1.89-1.5-.5-.56-2.37-.4-4.7.5-7 .02-1.87-.48-2.21-1.5-1-.67-8-.67-16 0-24l1 1c.56-2.37.4-4.7-.5-7 .35-1.29 1.02-2.12 2-2.5-.14-.77-.48-1.44-1-2 2.98-.5 5.98-.66 9-.5z"/><path style="opacity:.997" fill="#683fcb" d="M1887.5 1380.5c3.31 7.27 5.64 14.93 7 23-1.43-1.28-2.1-2.95-2-5-3.96-.75-7.96-2.42-12-5-2.96.97-5.96 1.14-9 .5 1-.33 2-.67 3-1-3.4-1.74-6.74-3.58-10-5.5-1.82 2.56-3.65 2.56-5.5 0l-1 1c-1.04-1.12-1.71-2.46-2-4l-1 1a20.46 20.46 0 0 1-2.5-3.5c-1.88.1-3.55-.07-5-.5-.84-1.44-2.17-2.44-4-3-.5-1.22-.83-2.38-1-3.5a67.155 67.155 0 0 1-14.5-9.5 8.394 8.394 0 0 1-.5-4c-1.68.21-2.68-.45-3-2 1 .03 1.66-.47 2-1.5-.15-1.73-.81-1.89-2-.5a20.148 20.148 0 0 0-4-3.5c1.44-.22 2.77-.72 4-1.5-2.17-1.39-4.01-1.06-5.5 1-4.61-3.99-3.78-5.16 2.5-3.5-.54-.72-1.21-1.22-2-1.5.49-.97.99-1.97 1.5-3 1.32 2.89 3.32 3.56 6 2 1.37 1.08 2.87 1.91 4.5 2.5 1.24 3.36 2.08 3.19 2.5-.5 2.94 1.28 5.61 2.95 8 5 1.6-1.15 3.27-1.15 5 0 1.1.88 1.6 1.88 1.5 3 .67-.33 1.33-.67 2-1 2.07 2.14 4.57 3.48 7.5 4h6c1.19 1.06 1.69 2.4 1.5 4 1.37-.16 2.71.01 4 .5a25.62 25.62 0 0 1 7 6c4.88.11 6.88 2.61 6 7.5 1.82.33 3.49 1 5 2z"/><path style="opacity:1" fill="#723bd3" d="M2424.5 1319.5c2.72 3.39 5.05 7.06 7 11-.16 2.36 0 4.69.5 7 1.91 1.32 2.74 3.15 2.5 5.5a52.73 52.73 0 0 1-2 10c.93 3.27.27 6.27-2 9 .52.56.86 1.23 1 2-2.13 6.15-4.3 12.32-6.5 18.5-.45 1.72-1.28 2.39-2.5 2 .48.98 1.14 1.81 2 2.5-5.35 13.37-11.68 26.71-19 40 1.6 2.64 1.27 4.81-1 6.5-3.43-3.86-6.1-8.19-8-13 .19-1.7 1.02-3.03 2.5-4 .33.67.67 1.33 1 2 .92-.43 1.75-.76 2.5-1-.54-1.25-1.21-2.41-2-3.5 3.17-8.92 6.67-18.08 10.5-27.5 3.16-10.82 6.33-21.66 9.5-32.5.13-2.23-.21-4.57-1-7 1.08-.67 1.75-1.67 2-3 .82-3.56.82-7.39 0-11.5.67-1.33 1.33-2.67 2-4-1.64-3.35-1.31-6.35 1-9z"/><path style="opacity:.997" fill="#742ed1" d="M2443.5 1347.5c3.65 5.3 7.32 10.63 11 16-1.43.95-2.76 2.11-4 3.5.52.56.86 1.23 1 2-.39 1.01-1.06 1.51-2 1.5.33.67.67 1.33 1 2-3.51 13.35-8.17 25.85-14 37.5.46.41.79.91 1 1.5a792.194 792.194 0 0 0-17 33c1.23.78 2.56 1.28 4 1.5-1.43.47-2.6 1.3-3.5 2.5-.45-2.43-1.28-2.6-2.5-.5.83.91 1.83 1.58 3 2 .34 1.63-.33 3.13-2 4.5-3.9-4.78-7.57-9.78-11-15a18.25 18.25 0 0 0 3.5-2c15.09-23.9 25.26-49.06 30.5-75.5-.39-1.01-1.06-1.51-2-1.5 3.66-3.64 4.66-7.97 3-13z"/><path style="opacity:1" fill="#6c73e1" d="M2297.5 1381.5v17c-.79-1.11-1.29-2.44-1.5-4-14.81 14.89-32.31 24.39-52.5 28.5-1.33.67-2.67 1.33-4 2-1.33.67-1.33 1.33 0 2-1.59.86-3.25 1.53-5 2l1 1c-1.93.25-3.77.75-5.5 1.5-1.42-2.5-2.42-2.17-3 1-1.39-1.05-2.89-1.22-4.5-.5 1.77.54 2.1 1.37 1 2.5-2.94-1.07-5.94-1.24-9-.5 2.38.97 2.04 1.64-1 2 .67.33 1.33.67 2 1-2.06.31-4.06.31-6 0-.18 1.66.49 3.33 2 5-.33.17-.67.33-1 .5l-6-12a37.64 37.64 0 0 1-5-9c1.15-.81 1.15-1.81 0-3 .5-.33 1-.67 1.5-1 1 .67 2 1.33 3 2 1.17-1.01 2.33-2.01 3.5-3 2.17 1.95 4.5 2.62 7 2 1.1-1.13.77-1.96-1-2.5 18.52-1.87 36.85-7.37 55-16.5 2.27 1.06 4.27.56 6-1.5-.67-.33-1.33-.67-2-1a164.21 164.21 0 0 0 22.5-20.5 38.22 38.22 0 0 1 2.5 5z"/><path style="opacity:1" fill="#6b4dd3" d="M1804.5 1379.5c1.21.73 2.21 1.73 3 3 2.5-.62 4.83.05 7 2 .75.88 1.25 1.88 1.5 3 .2-1.76.7-3.42 1.5-5 1.02 2.53 2.18 2.53 3.5 0 1.07.69 2.23 1.19 3.5 1.5-1.33.67-1.33 1.33 0 2 2.88.68 5.55 1.85 8 3.5 1.62-2.35 3.12-2.35 4.5 0l1-1c2.19 1.74 4.69 2.9 7.5 3.5-.67.33-1.33.67-2 1 1.96 1.57 4.13 2.73 6.5 3.5.31-.81.81-1.47 1.5-2 4.11 4.24 8.95 6.24 14.5 6 4.61 1.85 8.94 4.19 13 7 .31-.81.81-1.47 1.5-2 3.61 2.63 7.45 4.96 11.5 7 1.26-.26 2.26-.93 3-2 .16 2.69.99 5.02 2.5 7 1.4 7.55 2.23 15.22 2.5 23 .5 14 .67 28 .5 42a943.21 943.21 0 0 0-3.5-56c-5.9 1.69-11.07.35-15.5-4-.69.53-1.19 1.19-1.5 2-1.74-1.82-3.91-2.82-6.5-3a86.11 86.11 0 0 1-4.5-4c-.33.67-.67 1.33-1 2-.28-2.39-1.28-3.05-3-2-4.08-.75-7.75-2.42-11-5l-1 1c-.33-1.33-.67-2.67-1-4-2.26 2.5-3.59 1.83-4-2-.33 1.33-.67 2.67-1 4-.32-2.07-1.16-2.4-2.5-1-2.3-.93-4.63-1.77-7-2.5l1-1c-3.88-.22-6.72-2.05-8.5-5.5-1.57-.56-2.9.11-4 2-.32-1.8-.98-2.13-2-1-1.26-2.3-3.1-3.13-5.5-2.5 2.4.81 2.23 1.64-.5 2.5-2.34-2.78-5.34-4.45-9-5-1.38.18-2.21.85-2.5 2-4.64-4.97-9.31-9.97-14-15-.98-2.57-1.64-5.23-2-8-1.54-1.23.12-1.39 5-.5-3.87 1.99-3.87 2.49 0 1.5 2.83 1.43 5.83 2.1 9 2z"/><path style="opacity:1" fill="#7e5ae6" d="M1697.5 1380.5c-2.66 1.66-5.33 3.33-8 5-1.14-.84-2.47-1.51-4-2-1.01.44-1.01 1.1 0 2-6.27-.27-12.27 1.07-18 4-.59-.21-1.09-.54-1.5-1a38.635 38.635 0 0 1-6.5 4c-.4-1.03-1.06-1.19-2-.5a83.9 83.9 0 0 0-9 10c-1.49 1.37-2.99 1.53-4.5.5-1.58 2.12-1.75 4.29-.5 6.5-1.83.75-3.5 1.75-5 3 .71 1.34.38 2.68-1 4 .95.72 1.12 1.55.5 2.5a6.603 6.603 0 0 0-3 3c-.33-.67-.67-1.33-1-2-1 2.24-2.5 4.08-4.5 5.5 1.08 2.19.42 3.86-2 5 .67.33 1.33.67 2 1-1.92.36-3.59 1.19-5 2.5.53.69 1.19 1.19 2 1.5-2.17 1.59-4.5 2.92-7 4 .04 4.37.04 8.71 0 13-1.33 2-2.67 4-4 6l1 1c-2.96.84-3.3 1.84-1 3-1.62.85-1.96 1.85-1 3-.95.62-1.78.45-2.5-.5-.82 2.13-1.98 3.96-3.5 5.5.98 2.44.65 4.77-1 7 1.54.29 2.88.96 4 2a36.173 36.173 0 0 0-4.5 3.5c-.62.95-.45 1.78.5 2.5-2.42.66-4.08 2.16-5 4.5.93 2.95.26 5.62-2 8 1.14.93 1.14 1.76 0 2.5.67.33 1.33.67 2 1-1.38 3.27-3.38 6.1-6 8.5 1.14.93 1.14 1.76 0 2.5 2.49.63 2.49 1.46 0 2.5.39 2.14.39 4.14 0 6a14.931 14.931 0 0 0-3 3.5c1.14.74 1.14 1.57 0 2.5-3.12 1.19-3.45 2.69-1 4.5-2.56 1.85-2.56 3.68 0 5.5a91.281 91.281 0 0 1-4 10.5c2.5.83 2.67 2 .5 3.5l-1-1c-.36 1.92-1.19 3.59-2.5 5 .1 2.48.1 4.98 0 7.5.45 1.29 1.12 2.45 2 3.5-.67 1.33-1.33 2.67-2 4 .53.69 1.19 1.19 2 1.5-1.66 9.15-2.66 18.48-3 28 1.32 7.47 1.32 14.97 0 22.5 1.1 18.37 1.6 36.71 1.5 55 .33-2.33.67-4.67 1-7 1.62 8.52 3.79 16.52 6.5 24-5.26-5.18-8.42-11.51-9.5-19-.5-33.33-.67-66.67-.5-100 .83-18.16 1.33-36.5 1.5-55 .33-3.67.67-7.33 1-11 .69-.53 1.19-1.19 1.5-2-1.4-1.34-1.07-2.18 1-2.5-1.83-.93-2.17-2.09-1-3.5-2.96-3.81-2.29-7.14 2-10-1.02-1.93-1.19-3.93-.5-6 1.57-.56 2.9.11 4 2 .39-1.68.23-3.35-.5-5 .54-1.24 1.2-2.41 2-3.5-1.04-3.54-.04-6.54 3-9l-1-1c2.98-1.08 4.32-2.91 4-5.5 1.11-1.89 1.94-3.89 2.5-6 2.48-1.2 2.65-3.03.5-5.5 1.43-.47 2.6-1.3 3.5-2.5l1 1c.48-.95.65-1.95.5-3 1.05.15 2.05-.02 3-.5a7.379 7.379 0 0 1-3-2c2.56-1.26 3.22-3.09 2-5.5 1.42-1.79 2.76-3.62 4-5.5-.81-2.29.02-4.12 2.5-5.5.33-1.67.67-3.33 1-5 1.02-1.13 1.68-.8 2 1 .32-1.56 1.15-2.73 2.5-3.5-.67-.33-1.33-.67-2-1 2.09-1.04 3.75-2.54 5-4.5.84-3.73 2.84-6.57 6-8.5-.8-1.75-.13-3.08 2-4-.46-.41-.79-.91-1-1.5 2.95-1.45 5.45-3.45 7.5-6 .72.95 1.55 1.12 2.5.5-1-.83-2-1.67-3-2.5 1.61-.74 3.27-.91 5-.5 1.33-.67 1.33-1.33 0-2l6-3c1.11-3.61 3.44-6.11 7-7.5.76-1.13 1.43-2.29 2-3.5 2.72-1.07 5.38-2.24 8-3.5-.17-.33-.33-.67-.5-1-3 1.67-6.17 2.5-9.5 2.5 9.39-5.35 19.06-5.85 29-1.5 5.02-3.5 9.86-3.5 14.5 0a6.603 6.603 0 0 1 3-3c1.93 1.6 4.1 2.77 6.5 3.5-4.72 2.02-9.06 4.52-13 7.5z"/><path style="opacity:.997" fill="#6947cf" d="M1847.5 1381.5c1.45.43 3.12.6 5 .5a20.46 20.46 0 0 0 2.5 3.5l1-1c.29 1.54.96 2.88 2 4l1-1c1.85 2.56 3.68 2.56 5.5 0 3.26 1.92 6.6 3.76 10 5.5-1 .33-2 .67-3 1 3.04.64 6.04.47 9-.5 4.04 2.58 8.04 4.25 12 5-.1 2.05.57 3.72 2 5 1.75 4.39 2.75 9.06 3 14-1.51-1.98-2.34-4.31-2.5-7-.74 1.07-1.74 1.74-3 2a82.588 82.588 0 0 1-11.5-7c-.69.53-1.19 1.19-1.5 2a65.909 65.909 0 0 0-13-7c-5.55.24-10.39-1.76-14.5-6-.69.53-1.19 1.19-1.5 2-2.37-.77-4.54-1.93-6.5-3.5.67-.33 1.33-.67 2-1-2.81-.6-5.31-1.76-7.5-3.5l-1 1c-1.38-2.35-2.88-2.35-4.5 0a24.154 24.154 0 0 0-8-3.5c-1.33-.67-1.33-1.33 0-2-1.27-.31-2.43-.81-3.5-1.5-1.32 2.53-2.48 2.53-3.5 0-.8 1.58-1.3 3.24-1.5 5a6.866 6.866 0 0 0-1.5-3c-2.17-1.95-4.5-2.62-7-2-.79-1.27-1.79-2.27-3-3 .59-.65 1.26-1.32 2-2-3.78-1.84-3.78-3.5 0-5-.17-.33-.33-.67-.5-1-.74 1.14-1.57 1.14-2.5 0-.76-1.13-1.43-2.29-2-3.5-2.33-.33-4.67-.67-7-1-.03-1.43.3-2.93 1-4.5 1 .09 1.83-.25 2.5-1 .46 1.24-.04 2.08-1.5 2.5.67.17 1.33.33 2 .5.87-.89 1.87-1.39 3-1.5a72.38 72.38 0 0 1 8 6.5c-.53.69-1.19 1.19-2 1.5 2.37 2.41 3.37 1.91 3-1.5 1.43.08 2.76-.25 4-1 1.94 2.58 3.77 2.58 5.5 0 2.12.72 2.62 1.89 1.5 3.5 1.22 2.1 2.05 1.93 2.5-.5 2.04 1.98 4.54 2.98 7.5 3 .1 3.81.76 3.81 2 0 3.88 3.8 8.55 6.14 14 7z"/><path style="opacity:1" fill="#6b6dde" d="M2297.5 1398.5c.17 4.35 0 8.68-.5 13-.33-.67-.67-1.33-1-2-12.83 9.64-26.33 17.48-40.5 23.5l1 1c-3.45.74-5.78 2.74-7 6-3.94.83-6.94 2.16-9 4-1.33.67-1.33 1.33 0 2a54.79 54.79 0 0 1-7 2c1.33 1.84 1.17 2.34-.5 1.5-2.13 1.64-4.63 2.47-7.5 2.5v3a34.847 34.847 0 0 1-10 2c1.33.33 2.67.67 4 1-.95.48-1.95.65-3 .5.15 1.05-.02 2.05-.5 3a109.58 109.58 0 0 1-4-14c-.38.56-.88.89-1.5 1a99.049 99.049 0 0 1-6-18l6 12c.33-.17.67-.33 1-.5-1.51-1.67-2.18-3.34-2-5 1.94.31 3.94.31 6 0-.67-.33-1.33-.67-2-1 3.04-.36 3.38-1.03 1-2 3.06-.74 6.06-.57 9 .5 1.1-1.13.77-1.96-1-2.5 1.61-.72 3.11-.55 4.5.5.58-3.17 1.58-3.5 3-1 1.73-.75 3.57-1.25 5.5-1.5l-1-1c1.75-.47 3.41-1.14 5-2-1.33-.67-1.33-1.33 0-2 1.33-.67 2.67-1.33 4-2 20.19-4.11 37.69-13.61 52.5-28.5.21 1.56.71 2.89 1.5 4z"/><path style="opacity:.998" fill="#7917d0" d="M2467.5 1383.5c5.41 6.48 10.07 13.48 14 21v195a1240.93 1240.93 0 0 1-33 49c-.7-68.98-1.36-137.65-2-206 .72-3.93 2.39-7.77 5-11.5-.46-.41-.79-.91-1-1.5 7.43-12.48 12.43-24.81 15-37 1.88-.7 2.22-1.7 1-3 .67-.33 1.33-.67 2-1a9.127 9.127 0 0 1-1-5z"/><path style="opacity:.999" fill="#6d53d5" d="M1873.5 1421.5c-5.29.18-5.29.68 0 1.5-1.12.25-2.12.75-3 1.5 6.65 4.12 6.32 4.78-1 2 .27-2.68-.73-4.18-3-4.5.04 2.3.37 4.63 1 7-1.15.64-2.15 1.48-3 2.5-2-.41-3.84-1.74-5.5-4-3.8 1.02-7.63.85-11.5-.5.67-.33 1.33-.67 2-1a25.77 25.77 0 0 0-8-2c1-.33 2-.67 3-1-2.63-.42-4.8-1.59-6.5-3.5-.83 1-1.67 2-2.5 3a56.366 56.366 0 0 0-7-5c-.59.21-1.09.54-1.5 1-1.92-3.67-3.59-3.67-5 0-.31-.81-.81-1.47-1.5-2a6.816 6.816 0 0 1-4 1c.22 2.94.88 5.77 2 8.5-.03 1.07-.36 1.9-1 2.5-1.9-10.38-5.57-20.05-11-29 .29-1.15 1.12-1.82 2.5-2 3.66.55 6.66 2.22 9 5 2.73-.86 2.9-1.69.5-2.5 2.4-.63 4.24.2 5.5 2.5 1.02-1.13 1.68-.8 2 1 1.1-1.89 2.43-2.56 4-2 1.78 3.45 4.62 5.28 8.5 5.5l-1 1c2.37.73 4.7 1.57 7 2.5 1.34-1.4 2.18-1.07 2.5 1 .33-1.33.67-2.67 1-4 .41 3.83 1.74 4.5 4 2 .33 1.33.67 2.67 1 4l1-1c3.25 2.58 6.92 4.25 11 5 1.72-1.05 2.72-.39 3 2 .33-.67.67-1.33 1-2a86.11 86.11 0 0 0 4.5 4z"/><path style="opacity:1" fill="#7528d0" d="M2454.5 1363.5c2.5 2.99 4.5 6.33 6 10-2.65 7.89-5.31 15.89-8 24 .32 1.15.98 1.98 2 2.5-.67.33-1.33.67-2 1 .95.72 1.12 1.55.5 2.5-1.01-.84-2.18-1.17-3.5-1-.16 2.03 0 4.03.5 6 .75.63 1.58 1.13 2.5 1.5-1.56.32-2.73 1.15-3.5 2.5-.33-.67-.67-1.33-1-2-2.36 4.88-4.86 9.71-7.5 14.5.67.33 1.33.67 2 1-.3 1.65-1.64 2.99-4 4 2.28 1.48 2.28 3.15 0 5-4 .67-4 1.33 0 2-1.33.67-2.67 1.33-4 2 .89 1.9.55 3.73-1 5.5-1.49.03-2.82.53-4 1.5.67.33 1.33.67 2 1-2.13 5.25-4.8 10.09-8 14.5a36.58 36.58 0 0 1-4-7c1.67-1.37 2.34-2.87 2-4.5a7.379 7.379 0 0 1-3-2c1.22-2.1 2.05-1.93 2.5.5.9-1.2 2.07-2.03 3.5-2.5-1.44-.22-2.77-.72-4-1.5a792.194 792.194 0 0 1 17-33c-.21-.59-.54-1.09-1-1.5 5.83-11.65 10.49-24.15 14-37.5-.33-.67-.67-1.33-1-2 .94.01 1.61-.49 2-1.5-.14-.77-.48-1.44-1-2 1.24-1.39 2.57-2.55 4-3.5z"/><path style="opacity:.998" fill="#8613d9" d="M2548.5 1386.5c.31 74.74.65 149.74 1 225-.49 1.53-1.16 2.86-2 4-7.64-9.92-14.8-20.25-21.5-31-3.08-3.79-6.91-6.45-11.5-8 .33-49.57 0-99.07-1-148.5.92-.28 1.58-.78 2-1.5 4.53-2.02 8.36-5.02 11.5-9 6.7-10.75 13.86-21.08 21.5-31z"/><path style="opacity:1" fill="#7b68e9" d="M1666.5 1421.5c-.5 3.99-1 7.99-1.5 12-.33 89.33-.67 178.67-1 268-.42 1.26-1.25 1.92-2.5 2 1-64.26 1.33-128.6 1-193 .17-23 0-46-.5-69-1.49 1.61-1.66 3.28-.5 5-1.48.98-2.81 2.15-4 3.5.81.31 1.47.81 2 1.5-.81 1.31-1.81 2.48-3 3.5.83.91 1.83 1.58 3 2-1.99.71-3.66 2.38-5 5l3 3-6 3c3.58 2.02 3.58 3.68 0 5 1.41.37 2.41 1.2 3 2.5a31.362 31.362 0 0 1-4 4.5v5a7.379 7.379 0 0 0-3 2c.14 1.6.14 3.1 0 4.5-1.33 1.67-2.67 3.33-4 5 .59 1.3 1.59 2.13 3 2.5-1.54 1.11-2.2 2.61-2 4.5-1.05-.15-2.05.02-3 .5l1 1c-1 .83-2 1.67-3 2.5 1.03-.2 2.03.3 3 1.5-.56 2.24-1.56 4.24-3 6a6.603 6.603 0 0 0 3 3c-1.43 1.71-1.09 3.05 1 4l-1.5 1.5c-1.6-1.54-3.43-2.04-5.5-1.5.81.31 1.47.81 2 1.5-1 .83-2 1.67-3 2.5 2.39.69 2.39 1.69 0 3 .67.33 1.33.67 2 1-3.32 1.26-3.65 2.93-1 5-1.67 3-4 5.33-7 7 .15 1.97.48 3.97 1 6-.86 1.79-1.86 3.62-3 5.5.64 1.23.81 2.57.5 4l6-6c-.37 2.42-1.7 4.42-4 6-.67 1-.67 2 0 3 .65-1.2 1.15-1.2 1.5 0a32.202 32.202 0 0 0-4 5.5c1.24.46 2.08-.04 2.5-1.5.88 1.77 2.05 2.44 3.5 2-2.17 3-4.33 6-6.5 9 .9.66 1.23 1.99 1 4a18.76 18.76 0 0 1-4.5 5.5c.75 1.49 1.59 1.65 2.5.5.37.92.87 1.75 1.5 2.5-1.33.67-1.33 1.33 0 2-.83.91-1.83 1.58-3 2 .67.33 1.33.67 2 1-2.98 3.22-2.64 6.05 1 8.5-2.34 2.7-2.34 5.2 0 7.5-2.54 1.77-2.54 3.61 0 5.5-.87 1.91-1.87 3.75-3 5.5.83.91 1.83 1.58 3 2-1.04 1.62-2.2 1.78-3.5.5-2.05 2.01-1.55 3.01 1.5 3 .22 1.18-.11 2.18-1 3-1.11-1.09-2.11-1.09-3 0 1.53 1.36 3.2 2.53 5 3.5-.67 1.33-1.33 2.67-2 4 1.07 1.25 1.07 2.58 0 4 1.92 2.47 1.92 5.14 0 8 1.15.91.99 1.75-.5 2.5-1-2.53-1.83-2.53-2.5 0-.07 2.17.6 2.5 2 1 .74 1.85 1.74 2.52 3 2-.09 4.94-.75 9.94-2 15 1 .67 2 1.33 3 2-.77 1.21-1.61 1.21-2.5 0 .81 2.67.64 5.34-.5 8-1.23-4.45-2.4-8.78-3.5-13-.66 3.85-1.5 3.85-2.5 0 .61-3.18 1.28-6.35 2-9.5-.92-1.81-1.76-1.64-2.5.5-.78-1.93-.28-3.43 1.5-4.5-.67-.33-1.33-.67-2-1 1.27-3.53 1.27-7.03 0-10.5 1.86-3.06 1.86-5.89 0-8.5 1.6-1.91 1.27-3.41-1-4.5 1.62-1.37 2.12-3.04 1.5-5-.42 1.46-1.26 1.96-2.5 1.5 1.86-3.25 3.53-6.58 5-10-1.8-.64-3.14-1.8-4-3.5.68-3.09 1.01-6.09 1-9-.17-.67-.33-1.33-.5-2-.65 1.2-1.15 1.2-1.5 0 2.74-4.25 5.07-8.25 7-12a4.502 4.502 0 0 0-2-1.5c1.15-.91.99-1.75-.5-2.5-1.56.71-2.72.04-3.5-2 .86-.79 1.69-.46 2.5 1 2.03-1.24 2.87-2.74 2.5-4.5 3.75.04 4.41-.96 2-3l2-2c-.79-3.08-1.29-6.24-1.5-9.5-.33.67-.67 1.33-1 2l-5.5-5.5c1.39-1.3 1.89-2.8 1.5-4.5l-1 1c-.5-1.17-1.33-2-2.5-2.5a93.43 93.43 0 0 0 11-12c-2.94.89-5.44 2.73-7.5 5.5 1.58-3.61 4.08-6.78 7.5-9.5 4.18.34 4.52-.5 1-2.5-1.63 1.24-2.63.74-3-1.5l1.5-4.5c.65 1.2 1.15 1.2 1.5 0-1.83-.93-2.17-2.09-1-3.5-.67-.33-1.33-.67-2-1 3.19-.98 3.52-2.31 1-4 1.21-1.11 1.21-2.28 0-3.5.48-.98 1.14-1.81 2-2.5-3.75-.76-3.92-1.93-.5-3.5.68-1.28.52-2.45-.5-3.5.81-.31 1.47-.81 2-1.5-.97-2.97-.97-5.8 0-8.5 1.07-1.28 2.41-1.62 4-1 1.13-1.02.8-1.68-1-2 1.55-1.1 2.89-2.43 4-4-1.33-1-2.67-2-4-3 3.58-1.7 3.92-3.86 1-6.5 1.54-.19 2.88-1.36 4-3.5-1-.33-2-.67-3-1 1.55-3.89 4.22-6.89 8-9-1.67.33-3.33.67-5 1 2.78-2.78 2.12-4.45-2-5 .46-.41.79-.91 1-1.5-.67-.33-1.33-.67-2-1 2.16-1.91 4.49-3.58 7-5-1.09-.61-2.25-.27-3.5 1-.7-1.19-1.53-2.19-2.5-3 .67 0 1-.33 1-1 4.27-1.82 4.6-2.48 1-2-1.2-.35-1.2-.85 0-1.5 3-1.67 6-3.33 9-5-1-.33-2-.67-3-1 1.96-.95 3.62-2.29 5-4a6.603 6.603 0 0 0-3-3c.46-.41.79-.91 1-1.5-2.94-5.15-2.44-5.82 1.5-2 1.2-1.36 2.7-2.36 4.5-3 1.56-3.11 1.23-5.95-1-8.5 2.53-2.15 5.2-2.65 8-1.5-.17-3.34 1.16-4.51 4-3.5-2.21-2.98-1.71-3.15 1.5-.5.78-2.2 1.94-2.2 3.5 0a9.127 9.127 0 0 0-1 5z"/><path style="opacity:1" fill="#6b59d6" d="M1873.5 1421.5c2.59.18 4.76 1.18 6.5 3 .31-.81.81-1.47 1.5-2 4.43 4.35 9.6 5.69 15.5 4a943.21 943.21 0 0 1 3.5 56v53c-.81-14.51-1.48-29.17-2-44v-30c.17-3.35 0-6.68-.5-10-.31.81-.81 1.47-1.5 2-4.15-.43-7.65-2.1-10.5-5-1.39 1.05-2.89 1.22-4.5.5l1-1c-2.33-.33-4.67-.67-7-1 .81-.31 1.47-.81 2-1.5-1.45.44-2.62-.23-3.5-2-2.55 2.25-5.05 1.92-7.5-1-2.6-.09-5.27.58-8 2-2.33-1.33-4.67-2.67-7-4-2.29 1.52-4.29 1.19-6-1-1.3 1.22-2.3.88-3-1-1.82.15-3.82.31-6 .5a31.362 31.362 0 0 0-6-4.5c-.38 1.52-.55 3.19-.5 5a86.84 86.84 0 0 0-8.5-7c-.67 3.14-1.33 6.14-2 9-.59-4.35-1.25-8.69-2-13 .64-.6.97-1.43 1-2.5a27.675 27.675 0 0 1-2-8.5c1.43.08 2.76-.25 4-1 .69.53 1.19 1.19 1.5 2 1.41-3.67 3.08-3.67 5 0 .41-.46.91-.79 1.5-1 2.46 1.49 4.79 3.15 7 5 .83-1 1.67-2 2.5-3 1.7 1.91 3.87 3.08 6.5 3.5-1 .33-2 .67-3 1 2.79.24 5.46.91 8 2-.67.33-1.33.67-2 1 3.87 1.35 7.7 1.52 11.5.5 1.66 2.26 3.5 3.59 5.5 4 .85-1.02 1.85-1.86 3-2.5-.63-2.37-.96-4.7-1-7 2.27.32 3.27 1.82 3 4.5 7.32 2.78 7.65 2.12 1-2 .88-.75 1.88-1.25 3-1.5-5.29-.82-5.29-1.32 0-1.5z"/><path style="opacity:.981" d="M1091.5 1416.5c41.47-2.32 70.64 15.35 87.5 53 12.58 42.59.42 76.09-36.5 100.5-32.71 16.16-63.71 13.49-93-8-32.6-31.42-38.43-67.25-17.5-107.5 14.26-21.38 34.1-34.05 59.5-38z"/><path style="opacity:.992" fill="#8014d5" d="M2481.5 1404.5c4.68 5.5 9.01 11.33 13 17.5 6.42 4.38 13.42 5.88 21 4.5-.42.72-1.08 1.22-2 1.5 1 49.43 1.33 98.93 1 148.5-6.43-.8-12.43.36-18 3.5-5.25 6.4-10.25 12.9-15 19.5v-195z"/><path style="opacity:1" fill="#7b61e6" d="M1689.5 1385.5c-10.71 10.1-18.38 22.1-23 36-.14-1.76.19-3.43 1-5-1.56-2.2-2.72-2.2-3.5 0-3.21-2.65-3.71-2.48-1.5.5-2.84-1.01-4.17.16-4 3.5-2.8-1.15-5.47-.65-8 1.5 2.23 2.55 2.56 5.39 1 8.5-1.8.64-3.3 1.64-4.5 3-3.94-3.82-4.44-3.15-1.5 2-.21.59-.54 1.09-1 1.5 1.33.67 2.33 1.67 3 3-1.38 1.71-3.04 3.05-5 4 1 .33 2 .67 3 1-3 1.67-6 3.33-9 5-1.2.65-1.2 1.15 0 1.5 3.6-.48 3.27.18-1 2-.73-.44-1.73-.61-3-.5 2.76-1.54 2.6-2.71-.5-3.5-1.86-4.23-1.03-7.9 2.5-11-1.03-2.56-.03-3.89 3-4-.2-1.89.46-3.39 2-4.5-.89-2.22-.89-4.72 0-7.5-.19 1.32.48 2.65 2 4 .81-.31 1.47-.81 2-1.5.61-2.18-.06-4.18-2-6 1.94-2.47 3.1-5.3 3.5-8.5 2.73-.86 2.9-1.69.5-2.5 1.2-.9 2.03-2.07 2.5-3.5.32 1.8.98 2.13 2 1 2.05-5.24 5.22-9.57 9.5-13 2.28-1.11 4.45-2.44 6.5-4 .41.46.91.79 1.5 1 5.73-2.93 11.73-4.27 18-4-1.01-.9-1.01-1.56 0-2 1.53.49 2.86 1.16 4 2z"/><path style="opacity:1" fill="#6c60d9" d="M1898.5 1461.5c-1.37-.16-2.71.01-4 .5l1 1c-2.86.21-4.7 1.04-5.5 2.5-.83-.17-1.67-.33-2.5-.5a8.95 8.95 0 0 0 4-3c-2.73-.73-5.4-.56-8 .5-1.91-3.06-4.57-4.23-8-3.5 1.15.91.99 1.75-.5 2.5-1.66-2.66-3.32-2.66-5 0-1.76-.44-1.6-.94.5-1.5-9.16-2.78-18.49-5.12-28-7-1.56-.32-2.73-1.15-3.5-2.5-.41.46-.91.79-1.5 1-.33-.67-.67-1.33-1-2-1.04 2.49-1.87 2.49-2.5 0-.41.46-.91.79-1.5 1-2.61-1.58-5.11-3.25-7.5-5-1.14.23-2.3.56-3.5 1 .94 2.44.27 4.44-2 6v-11c.67-2.86 1.33-5.86 2-9a86.84 86.84 0 0 1 8.5 7c-.05-1.81.12-3.48.5-5 2.18 1.26 4.18 2.76 6 4.5 2.18-.19 4.18-.35 6-.5.7 1.88 1.7 2.22 3 1 1.71 2.19 3.71 2.52 6 1 2.33 1.33 4.67 2.67 7 4 2.73-1.42 5.4-2.09 8-2 2.45 2.92 4.95 3.25 7.5 1 .88 1.77 2.05 2.44 3.5 2-.53.69-1.19 1.19-2 1.5 2.33.33 4.67.67 7 1l-1 1c1.61.72 3.11.55 4.5-.5 2.85 2.9 6.35 4.57 10.5 5 .69-.53 1.19-1.19 1.5-2 .5 3.32.67 6.65.5 10z"/><path style="opacity:1" fill="#7b6dea" d="M1662.5 1510.5c-.77.67-1.43 1.51-2 2.5 1.14 2.57 1.14 5.07 0 7.5-1 .67-2 1.33-3 2v5a9.345 9.345 0 0 1-3 3c.76.41 1.76.58 3 .5l-3 3c.67.33 1.33.67 2 1a39.813 39.813 0 0 0-6 4.5c.44 1.01 1.1 1.01 2 0 .79.74 1.45 1.58 2 2.5a39.705 39.705 0 0 0-8 7c.67.33 1.33.67 2 1-1.56.94-2.89 2.11-4 3.5.64 1.23.81 2.57.5 4 3.51-4.11 4.01-3.94 1.5.5.67.33 1.33.67 2 1l-3 3c.67.33 1.33.67 2 1l-8 8c2.46 1.15 2.46 2.49 0 4 .81.31 1.47.81 2 1.5-1.33 1.33-1.33 2.67 0 4-2.53 1.32-2.53 2.48 0 3.5-1.33.67-2.67 1.33-4 2 .67.33 1.33.67 2 1-2.46 1.51-2.46 2.85 0 4-2.03 1.19-2.36 2.69-1 4.5a32.606 32.606 0 0 0-3 4.5c2.5 2.26 1.83 3.59-2 4 2.01.88 2.01 2.21 0 4 .81.31 1.47.81 2 1.5-.33 2-.67 4-1 6l2 2a53.995 53.995 0 0 0-4 9l2 2c-2.93 2.95-2.6 4.11 1 3.5a26.479 26.479 0 0 0-3 6.5l2 2c-.67 2-1.33 4-2 6 .35 1.2.85 1.2 1.5 0 .63 2.21.46 4.38-.5 6.5.98.38 1.65 1.21 2 2.5-.73 1.65-.89 3.32-.5 5 .54-1.77 1.37-2.1 2.5-1-.71 3.15-1.38 6.31-2 9.5.54 2.1 1.54 2.94 3 2.5-1.02 1.93-1.19 3.93-.5 6 .66-3.85 1.5-3.85 2.5 0-1.6 2.66-1.26 4.99 1 7l-2 2c1.72 2.37 2.39 5.03 2 8h3c-.16 2.36 0 4.69.5 7 .75.63 1.58 1.13 2.5 1.5-.92.28-1.58.78-2 1.5-6.63.16-13.13.16-19.5 0-1.19-5.07-2.02-10.24-2.5-15.5.21-1.87.87-3.53 2-5-.44-1.76-.94-1.6-1.5.5-.17-.67-.33-1.33-.5-2 .35-1.29 1.02-2.12 2-2.5-.07-.76-.4-1.26-1-1.5 1.14-2.66 1.31-5.33.5-8 .89 1.21 1.73 1.21 2.5 0-1-.67-2-1.33-3-2 1.25-5.06 1.91-10.06 2-15-1.26.52-2.26-.15-3-2-1.4 1.5-2.07 1.17-2-1 .67-2.53 1.5-2.53 2.5 0 1.49-.75 1.65-1.59.5-2.5 1.92-2.86 1.92-5.53 0-8 1.07-1.42 1.07-2.75 0-4 .67-1.33 1.33-2.67 2-4-1.8-.97-3.47-2.14-5-3.5.89-1.09 1.89-1.09 3 0 .89-.82 1.22-1.82 1-3-3.05.01-3.55-.99-1.5-3 1.3 1.28 2.46 1.12 3.5-.5a7.379 7.379 0 0 1-3-2c1.13-1.75 2.13-3.59 3-5.5-2.54-1.89-2.54-3.73 0-5.5-2.34-2.3-2.34-4.8 0-7.5-3.64-2.45-3.98-5.28-1-8.5-.67-.33-1.33-.67-2-1a7.379 7.379 0 0 0 3-2c-1.33-.67-1.33-1.33 0-2a9.186 9.186 0 0 1-1.5-2.5c-.91 1.15-1.75.99-2.5-.5a18.76 18.76 0 0 0 4.5-5.5c.23-2.01-.1-3.34-1-4 2.17-3 4.33-6 6.5-9-1.45.44-2.62-.23-3.5-2-.42 1.46-1.26 1.96-2.5 1.5 1.14-1.97 2.47-3.81 4-5.5-.35-1.2-.85-1.2-1.5 0-.67-1-.67-2 0-3 2.3-1.58 3.63-3.58 4-6l-6 6c.31-1.43.14-2.77-.5-4 1.14-1.88 2.14-3.71 3-5.5a34.79 34.79 0 0 1-1-6c3-1.67 5.33-4 7-7-2.65-2.07-2.32-3.74 1-5-.67-.33-1.33-.67-2-1 2.39-1.31 2.39-2.31 0-3 1-.83 2-1.67 3-2.5a4.502 4.502 0 0 0-2-1.5c2.07-.54 3.9-.04 5.5 1.5l1.5-1.5c-2.09-.95-2.43-2.29-1-4a6.603 6.603 0 0 1-3-3c1.44-1.76 2.44-3.76 3-6-.97-1.2-1.97-1.7-3-1.5 1-.83 2-1.67 3-2.5l-1-1c.95-.48 1.95-.65 3-.5-.2-1.89.46-3.39 2-4.5-1.41-.37-2.41-1.2-3-2.5 1.33-1.67 2.67-3.33 4-5 .14-1.4.14-2.9 0-4.5.83-.91 1.83-1.58 3-2v-5c1.46-1.35 2.79-2.85 4-4.5-.59-1.3-1.59-2.13-3-2.5 3.58-1.32 3.58-2.98 0-5l6-3-3-3c1.34-2.62 3.01-4.29 5-5a7.379 7.379 0 0 1-3-2c1.19-1.02 2.19-2.19 3-3.5a4.502 4.502 0 0 0-2-1.5c1.19-1.35 2.52-2.52 4-3.5-1.16-1.72-.99-3.39.5-5 .5 23 .67 46 .5 69z"/><path style="opacity:1" fill="#7f60e8" d="M1659.5 1392.5c-4.28 3.43-7.45 7.76-9.5 13-1.02 1.13-1.68.8-2-1-.47 1.43-1.3 2.6-2.5 3.5 2.4.81 2.23 1.64-.5 2.5-.4 3.2-1.56 6.03-3.5 8.5 1.94 1.82 2.61 3.82 2 6-.53.69-1.19 1.19-2 1.5-1.52-1.35-2.19-2.68-2-4-.89 2.78-.89 5.28 0 7.5-1.54 1.11-2.2 2.61-2 4.5-3.03.11-4.03 1.44-3 4-3.53 3.1-4.36 6.77-2.5 11 3.1.79 3.26 1.96.5 3.5 1.27-.11 2.27.06 3 .5 0 .67-.33 1-1 1-.72.42-1.22 1.08-1.5 2-1.67-.84-1.83-.34-.5 1.5-1.52 1.7-2.52 1.2-3-1.5-.5-1.02-1.17-1.19-2-.5.61 2.56.78 5.39.5 8.5-1.57-4.02-2.74-3.86-3.5.5 2.4.51 3.07 1.67 2 3.5 2.03 2.9 1.37 5.57-2 8 1.98 1.25 2.31 2.75 1 4.5.67.33 1.33.67 2 1-1.42 1.36-2.26 2.86-2.5 4.5-.33-.67-.67-1.33-1-2-.27 1.83-1.11 3.33-2.5 4.5.46.41.79.91 1 1.5-3.84 1.36-3.84 2.86 0 4.5-1.42 2.1-2.76 4.27-4 6.5.67 1 1.33 2 2 3-.77 1.21-1.61 1.21-2.5 0-.67 2.67-1.33 2.67-2 0-1.7 1.85-1.54 3.68.5 5.5-.56 2.24-1.56 4.24-3 6 .96 1.15.62 2.15-1 3 1.17 1.41.83 2.57-1 3.5h4c-.53.69-1.19 1.19-2 1.5.84 1.67.34 1.83-1.5.5-.37.92-.87 1.75-1.5 2.5.07 2.87.07 5.7 0 8.5-2.18 1.78-2.18 3.78 0 6-.64 1.15-1.48 2.15-2.5 3-.89-1.21-1.73-1.21-2.5 0 .97 1.46.64 2.8-1 4 .35 1.2.85 1.2 1.5 0l1.5 3c-1.67 1-3 2.33-4 4 .35 1.2.85 1.2 1.5 0-.31 1.43-.14 2.77.5 4a26.087 26.087 0 0 1-5 7c1.14.93 1.14 1.76 0 2.5.81.31 1.47.81 2 1.5-.67 1-1.33 2-2 3 2.53 1.02 2.53 2.18 0 3.5l2 2a25.482 25.482 0 0 0-4 4.5c.48.98 1.14 1.81 2 2.5-.86.69-1.52 1.52-2 2.5 1.33 1.33 1.33 2.67 0 4 2.49 1.75 2.33 3.41-.5 5 .47 3.81-.36 7.47-2.5 11 1.28 2.55 1.62 5.05 1 7.5 2.42 1.9 2.42 3.9 0 6 1.17.42 2.17 1.09 3 2-3.29 2.79-3.96 5.79-2 9-1.63 5.04-1.13 5.88 1.5 2.5.53 2.08.03 3.92-1.5 5.5 2.08 1.38 2.41 3.05 1 5 .45 1.29 1.12 2.45 2 3.5-.9.17-1.9.5-3 1 2.18 2.23 2.51 4.73 1 7.5 2.83 4.86 4.67 10.02 5.5 15.5-.81-1.46-1.64-1.79-2.5-1a13.02 13.02 0 0 1 3 4c-.83 1.97-1 3.97-.5 6 1.81 2.21 3.48 4.55 5 7-.06 4.48.77 8.65 2.5 12.5l-1 1c2.6.92 5.27 1.59 8 2 1.26.42 1.92 1.25 2 2.5-10.85-1.27-19.85-5.94-27-14-2.71-7.48-4.88-15.48-6.5-24-.33 2.33-.67 4.67-1 7 .1-18.29-.4-36.63-1.5-55 1.32-7.53 1.32-15.03 0-22.5.34-9.52 1.34-18.85 3-28-.81-.31-1.47-.81-2-1.5.67-1.33 1.33-2.67 2-4-.88-1.05-1.55-2.21-2-3.5.1-2.52.1-5.02 0-7.5 1.31-1.41 2.14-3.08 2.5-5l1 1c2.17-1.5 2-2.67-.5-3.5 1.54-3.39 2.87-6.89 4-10.5-2.56-1.82-2.56-3.65 0-5.5-2.45-1.81-2.12-3.31 1-4.5 1.14-.93 1.14-1.76 0-2.5.81-1.31 1.81-2.48 3-3.5.39-1.86.39-3.86 0-6 2.49-1.04 2.49-1.87 0-2.5 1.14-.74 1.14-1.57 0-2.5 2.62-2.4 4.62-5.23 6-8.5-.67-.33-1.33-.67-2-1 1.14-.74 1.14-1.57 0-2.5 2.26-2.38 2.93-5.05 2-8 .92-2.34 2.58-3.84 5-4.5-.95-.72-1.12-1.55-.5-2.5 1.41-1.29 2.91-2.45 4.5-3.5-1.12-1.04-2.46-1.71-4-2 1.65-2.23 1.98-4.56 1-7 1.52-1.54 2.68-3.37 3.5-5.5.72.95 1.55 1.12 2.5.5-.96-1.15-.62-2.15 1-3-2.3-1.16-1.96-2.16 1-3l-1-1c1.33-2 2.67-4 4-6 .04-4.29.04-8.63 0-13 2.5-1.08 4.83-2.41 7-4-.81-.31-1.47-.81-2-1.5 1.41-1.31 3.08-2.14 5-2.5-.67-.33-1.33-.67-2-1 2.42-1.14 3.08-2.81 2-5 2-1.42 3.5-3.26 4.5-5.5.33.67.67 1.33 1 2a6.603 6.603 0 0 1 3-3c.62-.95.45-1.78-.5-2.5 1.38-1.32 1.71-2.66 1-4 1.5-1.25 3.17-2.25 5-3-1.25-2.21-1.08-4.38.5-6.5 1.51 1.03 3.01.87 4.5-.5a83.9 83.9 0 0 1 9-10c.94-.69 1.6-.53 2 .5z"/><path style="opacity:1" fill="#6959d5" d="M2298.5 1433.5v13c-.97 2.45-1.31 5.11-1 8-1.43-.08-2.76.25-4 1-1.36-2.48-2.36-2.15-3 1 .21.59.54 1.09 1 1.5-1.92.36-3.59 1.19-5 2.5.53.69 1.19 1.19 2 1.5a26.479 26.479 0 0 0-3 6.5c-.82.89-1.82 1.22-3 1-2.36 4.54-5.36 8.71-9 12.5.84 1.01 1.17 2.18 1 3.5-1.81-.01-3.48.49-5 1.5.35 1.63.35 3.46 0 5.5-2.61-.22-4.28.94-5 3.5-2.16.25-3.83 1.25-5 3 3.04.36 3.38 1.03 1 2 2.4 1.61 2.4 2.28 0 2a9.186 9.186 0 0 1-1.5-2.5 59.446 59.446 0 0 1-4 10l-2-2c-1.91 1.49-3.08 2.99-3.5 4.5 1.13 1.02.8 1.68-1 2l1 1c-3.75 2.12-4.75 5.12-3 9-1.79 1.16-3.79 1.83-6 2l1 1c-.94 1.06-1.94 2.23-3 3.5.53.69 1.19 1.19 2 1.5-1.58.71-3.08 1.54-4.5 2.5l-1-1c-.26 1.66.24 3.16 1.5 4.5-1.22 1.74-2.88 2.74-5 3 1.33.33 2.67.67 4 1-1.8.32-2.13.98-1 2-1.76.2-3.42.7-5 1.5.93 1.82.26 3.16-2 4 2.56 1.62 2.56 3.12 0 4.5.67 1 1.33 2 2 3-1.32-.15-2.49.02-3.5.5-1.98 2.57-1.82 4.9.5 7-1.24-.02-2.57.64-4 2-.94-.11-1.78-.44-2.5-1-.46 1.24.04 2.08 1.5 2.5-4 .67-4 1.33 0 2 .44 1.52-.22 2.69-2 3.5 1.14.93 1.14 1.76 0 2.5 2.67.67 2.67 1.33 0 2 2.49 1.25 2.32 2.42-.5 3.5l-1-1c-1.07.69-2.23 1.19-3.5 1.5 1.27.31 2.43.81 3.5 1.5 11.83 19.73 20.66 39.9 26.5 60.5-.14.77-.48 1.44-1 2 4.81 18.54 6.14 37.38 4 56.5-3.51-.42-6.84-1.42-10-3-3.39-1.03-6.06-3.03-8-6 1-.09 1.83.25 2.5 1 .67-9 .67-18 0-27-3.25-30.49-13.75-58.16-31.5-83 1.17-1.41.83-2.57-1-3.5 2.19-.6 2.35-1.77.5-3.5-.38.56-.88.89-1.5 1 13.58-25.21 19.91-52.21 19-81 1.2 10.85 1.2 21.85 0 33 1.37.16 2.71-.01 4-.5-1.13-1.02-.8-1.68 1-2-5.13-.47-5.13-1.47 0-3l-1-1c1.77-2.11 3.27-1.95 4.5.5l1.5-3c-1.49-.03-2.82-.53-4-1.5 1.33-.33 2.67-.67 4-1-1.33-.67-1.33-1.33 0-2-3.69-.91-3.35-1.58 1-2-1-.33-2-.67-3-1 2.5-1.08 4.83-2.41 7-4l-1-1c2.97-1.44 4.13-3.61 3.5-6.5 1.73 1.08 3.56 1.24 5.5.5a6.866 6.866 0 0 1-3-1.5c1.06-1.27 2.06-2.44 3-3.5l-1-1h4l-1-1c1.34-2.69 3.01-4.35 5-5-.84-1.67-.34-1.83 1.5-.5 3.16-7.25 7.33-12.09 12.5-14.5 2.21-2.92 4.05-6.09 5.5-9.5 1.51 1.03 3.01.87 4.5-.5-2.67-.67-2.67-1.33 0-2l-1-1c1.4-1.44 3.07-2.27 5-2.5 1.41-4.22 3.75-7.89 7-11 3.14-1.67 5.97-3 8.5-4 1.95-1.68 3.95-2.35 6-2 .18-3.86.68-7.52 1.5-11z"/><path style="opacity:.995" fill="#6c66dc" d="M1898.5 1461.5v15c-1.38 1.3-3.05 2.13-5 2.5 1.29.49 2.63.66 4 .5v3c-2.03.16-4.03 0-6-.5 3.92-.8 3.92-1.3 0-1.5-2.01.34-4.01.67-6 1v-3c-3.55 1.82-6.55 1.15-9-2-.69.53-1.19 1.19-1.5 2-.96-2.16-2.46-2.49-4.5-1-3.96-2.18-8.13-2.51-12.5-1-1.65-1.62-3.98-3.29-7-5-6.34 1.5-12 .17-17-4-.95.41-1.61 1.07-2 2-1.8-1.27-3.63-1.27-5.5 0-1.2-.35-1.2-.85 0-1.5-1.6-.27-3.1-.77-4.5-1.5-.26 2.24-1.1 4.24-2.5 6v-20c2.27-1.56 2.94-3.56 2-6 1.2-.44 2.36-.77 3.5-1 2.39 1.75 4.89 3.42 7.5 5 .59-.21 1.09-.54 1.5-1 .63 2.49 1.46 2.49 2.5 0 .33.67.67 1.33 1 2 .59-.21 1.09-.54 1.5-1 .77 1.35 1.94 2.18 3.5 2.5 9.51 1.88 18.84 4.22 28 7-2.1.56-2.26 1.06-.5 1.5 1.68-2.66 3.34-2.66 5 0 1.49-.75 1.65-1.59.5-2.5 3.43-.73 6.09.44 8 3.5 2.6-1.06 5.27-1.23 8-.5a8.95 8.95 0 0 1-4 3c.83.17 1.67.33 2.5.5.8-1.46 2.64-2.29 5.5-2.5l-1-1c1.29-.49 2.63-.66 4-.5z"/><path style="opacity:1" fill="#6959d5" d="M2004.5 1441.5a282.369 282.369 0 0 0-8 32c.32-3.07-.02-6.07-1-9-5.51-.2-11.01-.2-16.5 0-.67-1.08-1.67-1.75-3-2-3.26-.62-6.76-.62-10.5 0-1.57-1.96-3.57-2.29-6-1-1.63-.38-3.13-1.04-4.5-2-10.46.39-20.96.39-31.5 0 .24-1.29-.1-2.29-1-3 .87-2.22 1.2-4.55 1-7 21.12-.91 42.12.75 63 5 1.9-1.98 3.9-3.81 6-5.5-1.02-1.05-1.18-2.22-.5-3.5 2.86 2.52 5.69 2.52 8.5 0-1.4-1.34-1.07-2.18 1-2.5-2.78-2.17-2.61-2.67.5-1.5 1.39-2.34 2.23-2.34 2.5 0z"/><path style="opacity:.995" fill="#741acc" d="M2460.5 1373.5c3.1 2.77 5.44 6.11 7 10-.14 1.76.19 3.43 1 5-.67.33-1.33.67-2 1 1.22 1.3.88 2.3-1 3-2.57 12.19-7.57 24.52-15 37 .21.59.54 1.09 1 1.5-2.61 3.73-4.28 7.57-5 11.5.64 68.35 1.3 137.02 2 206-9.09 13.84-18.42 27.51-28 41-1.33-22.66-2-45.66-2-69 .34-23.64.34-46.97 0-70 5.9-9.45 12.06-18.78 18.5-28 7.12-11.52 8.12-23.52 3-36-5.51-8.36-11.01-16.7-16.5-25 3.2-4.41 5.87-9.25 8-14.5-.67-.33-1.33-.67-2-1 1.18-.97 2.51-1.47 4-1.5 1.55-1.77 1.89-3.6 1-5.5 1.33-.67 2.67-1.33 4-2-4-.67-4-1.33 0-2 2.28-1.85 2.28-3.52 0-5 2.36-1.01 3.7-2.35 4-4-.67-.33-1.33-.67-2-1 2.64-4.79 5.14-9.62 7.5-14.5.33.67.67 1.33 1 2 .77-1.35 1.94-2.18 3.5-2.5-.92-.37-1.75-.87-2.5-1.5-.5-1.97-.66-3.97-.5-6 1.32-.17 2.49.16 3.5 1 .62-.95.45-1.78-.5-2.5.67-.33 1.33-.67 2-1-1.02-.52-1.68-1.35-2-2.5 2.69-8.11 5.35-16.11 8-24z"/><path style="opacity:.999" fill="#6854d2" d="M2298.5 1446.5c-.12 9.68-.62 19.35-1.5 29-2.64 2.39-5.14 4.89-7.5 7.5.33 1 .67 2 1 3-2.02.45-3.85 1.28-5.5 2.5.47 3.61-1.03 6.45-4.5 8.5 1.13 1.02.8 1.68-1 2v3c-4.03 1.71-6.7 4.71-8 9 3.35.09 3.85 1.26 1.5 3.5l-2-2c-.52 3.37-1.85 6.37-4 9-1.61-.37-3.11.3-4.5 2 2.4 2.1 2.07 3.93-1 5.5l1 1c-1.26 1.11-2.43 1.28-3.5.5-.5 1.17-1.33 2-2.5 2.5 1 .33 2 .67 3 1-1.33.67-1.33 1.33 0 2-1.85 2.09-4.18 3.43-7 4 1 .33 2 .67 3 1l-4 4c1 .33 2 .67 3 1-.52 1.89-2.19 3.22-5 4l2 2c-3.07 2.05-5.07 4.38-6 7 3.04.36 3.38 1.03 1 2l1 1c-1.67.33-3.33.67-5 1 .67.33 1.33.67 2 1a20.148 20.148 0 0 1-4 3.5l2 2c-1.33 1-1.33 2 0 3a33.34 33.34 0 0 0-6 3.5c1 .33 2 .67 3 1l-3 3c2.38.97 2.04 1.64-1 2 2.65.31 3.31 1.48 2 3.5 2.65 3.29 4.15 6.96 4.5 11-1.71-3.78-2.38-3.78-2 0a20.46 20.46 0 0 1 2.5 3.5c.95.62 1.78.45 2.5-.5 16.89 32.97 23.73 67.97 20.5 105 1.91-.28 3.58.05 5 1-4.79-.6-9.13.07-13 2-2.75.31-5.41-.02-8-1-4.57-1.07-8.57-3.07-12-6 3.16 1.58 6.49 2.58 10 3 2.14-19.12.81-37.96-4-56.5.52-.56.86-1.23 1-2-5.84-20.6-14.67-40.77-26.5-60.5-1.07-.69-2.23-1.19-3.5-1.5 1.27-.31 2.43-.81 3.5-1.5l1 1c2.82-1.08 2.99-2.25.5-3.5 2.67-.67 2.67-1.33 0-2 1.14-.74 1.14-1.57 0-2.5 1.78-.81 2.44-1.98 2-3.5-4-.67-4-1.33 0-2-1.46-.42-1.96-1.26-1.5-2.5.72.56 1.56.89 2.5 1 1.43-1.36 2.76-2.02 4-2-2.32-2.1-2.48-4.43-.5-7 1.01-.48 2.18-.65 3.5-.5-.67-1-1.33-2-2-3 2.56-1.38 2.56-2.88 0-4.5 2.26-.84 2.93-2.18 2-4 1.58-.8 3.24-1.3 5-1.5-1.13-1.02-.8-1.68 1-2-1.33-.33-2.67-.67-4-1 2.12-.26 3.78-1.26 5-3-1.26-1.34-1.76-2.84-1.5-4.5l1 1c1.42-.96 2.92-1.79 4.5-2.5-.81-.31-1.47-.81-2-1.5 1.06-1.27 2.06-2.44 3-3.5l-1-1c2.21-.17 4.21-.84 6-2-1.75-3.88-.75-6.88 3-9l-1-1c1.8-.32 2.13-.98 1-2 .42-1.51 1.59-3.01 3.5-4.5l2 2c1.64-3.22 2.97-6.55 4-10 .37.92.87 1.75 1.5 2.5 2.4.28 2.4-.39 0-2 2.38-.97 2.04-1.64-1-2 1.17-1.75 2.84-2.75 5-3 .72-2.56 2.39-3.72 5-3.5.35-2.04.35-3.87 0-5.5a8.765 8.765 0 0 1 5-1.5c.17-1.32-.16-2.49-1-3.5 3.64-3.79 6.64-7.96 9-12.5 1.18.22 2.18-.11 3-1 .71-2.31 1.71-4.48 3-6.5-.81-.31-1.47-.81-2-1.5 1.41-1.31 3.08-2.14 5-2.5-.46-.41-.79-.91-1-1.5.64-3.15 1.64-3.48 3-1a6.816 6.816 0 0 1 4-1c-.31-2.89.03-5.55 1-8z"/><path style="opacity:1" fill="#6a5fd7" d="M1922.5 1456.5c.9.71 1.24 1.71 1 3 10.54.39 21.04.39 31.5 0 1.37.96 2.87 1.62 4.5 2 2.43-1.29 4.43-.96 6 1 3.74-.62 7.24-.62 10.5 0 1.33.25 2.33.92 3 2 5.49-.2 10.99-.2 16.5 0a21.15 21.15 0 0 1 1 9c-.74 11.99-1.08 23.99-1 36h-1v-30c-23.57-5.69-48.24-8.69-74-9 .59 4.47-.08 8.47-2 12 .17-4.68.5-9.35 1-14 1.19-.47 1.86-1.47 2-3 .66-2.97.99-5.97 1-9z"/><path style="opacity:1" fill="#6a65da" d="M2297.5 1381.5h1v35c-.83 5.15-1.33 10.48-1.5 16-8.48 6.9-17.82 11.24-28 13-1.67 3.67-4.5 5.83-8.5 6.5-.78 2.58-2.45 4.25-5 5 .46.41.79.91 1 1.5-1.23.78-2.56 1.28-4 1.5.85 1.56.18 2.56-2 3 1.46.42 1.96 1.26 1.5 2.5-2.5-1.1-5-.93-7.5.5 1.13 1.02.8 1.68-1 2 1.21 1.11 1.21 2.28 0 3.5.94 2.27 2.27 4.27 4 6-.88.75-1.88 1.25-3 1.5 6.67.67 6.67 1.33 0 2-.43.92-.76 1.75-1 2.5-1.37-1.62-3.04-2.12-5-1.5.46.41.79.91 1 1.5-5.97 1.03-11.97 1.86-18 2.5 2.38.97 2.04 1.64-1 2 1.59.86 3.25 1.53 5 2-1.33 1-2.67 2-4 3 3.18 2.09 6.18 4.43 9 7-1.92-.03-3.58-.86-5-2.5-.79.86-.46 1.69 1 2.5-2.09 1.11-4.43 1.28-7 .5-.47-5.83-1.14-11.5-2-17a181.04 181.04 0 0 0-7-35c.62-.11 1.12-.44 1.5-1 1.02 4.76 2.36 9.42 4 14 .48-.95.65-1.95.5-3 1.05.15 2.05-.02 3-.5-1.33-.33-2.67-.67-4-1 3.46-.18 6.79-.85 10-2v-3c2.87-.03 5.37-.86 7.5-2.5 1.67.84 1.83.34.5-1.5a54.79 54.79 0 0 0 7-2c-1.33-.67-1.33-1.33 0-2 2.06-1.84 5.06-3.17 9-4 1.22-3.26 3.55-5.26 7-6l-1-1c14.17-6.02 27.67-13.86 40.5-23.5.33.67.67 1.33 1 2 .5-4.32.67-8.65.5-13v-17z"/><path style="opacity:1" fill="#7d66e9" d="M1634.5 1454.5c.97.81 1.8 1.81 2.5 3 1.25-1.27 2.41-1.61 3.5-1a41.076 41.076 0 0 0-7 5c.67.33 1.33.67 2 1-.21.59-.54 1.09-1 1.5 4.12.55 4.78 2.22 2 5 1.67-.33 3.33-.67 5-1-3.78 2.11-6.45 5.11-8 9 1 .33 2 .67 3 1-1.12 2.14-2.46 3.31-4 3.5 2.92 2.64 2.58 4.8-1 6.5 1.33 1 2.67 2 4 3-1.11 1.57-2.45 2.9-4 4 1.8.32 2.13.98 1 2-1.59-.62-2.93-.28-4 1-.97 2.7-.97 5.53 0 8.5-.53.69-1.19 1.19-2 1.5 1.02 1.05 1.18 2.22.5 3.5-3.42 1.57-3.25 2.74.5 3.5-.86.69-1.52 1.52-2 2.5 1.21 1.22 1.21 2.39 0 3.5 2.52 1.69 2.19 3.02-1 4 .67.33 1.33.67 2 1-1.17 1.41-.83 2.57 1 3.5-.35 1.2-.85 1.2-1.5 0l-1.5 4.5c.37 2.24 1.37 2.74 3 1.5 3.52 2 3.18 2.84-1 2.5-3.42 2.72-5.92 5.89-7.5 9.5 2.06-2.77 4.56-4.61 7.5-5.5a93.43 93.43 0 0 1-11 12c1.17.5 2 1.33 2.5 2.5l1-1c.39 1.7-.11 3.2-1.5 4.5l5.5 5.5c.33-.67.67-1.33 1-2 .21 3.26.71 6.42 1.5 9.5l-2 2c2.41 2.04 1.75 3.04-2 3 .37 1.76-.47 3.26-2.5 4.5-.81-1.46-1.64-1.79-2.5-1 .78 2.04 1.94 2.71 3.5 2 1.49.75 1.65 1.59.5 2.5.81.31 1.47.81 2 1.5-1.93 3.75-4.26 7.75-7 12 .35 1.2.85 1.2 1.5 0 .17.67.33 1.33.5 2 .01 2.91-.32 5.91-1 9 .86 1.7 2.2 2.86 4 3.5a98.153 98.153 0 0 1-5 10c1.24.46 2.08-.04 2.5-1.5.62 1.96.12 3.63-1.5 5 2.27 1.09 2.6 2.59 1 4.5 1.86 2.61 1.86 5.44 0 8.5 1.27 3.47 1.27 6.97 0 10.5.67.33 1.33.67 2 1-1.78 1.07-2.28 2.57-1.5 4.5.74-2.14 1.58-2.31 2.5-.5-.72 3.15-1.39 6.32-2 9.5 1 3.85 1.84 3.85 2.5 0 1.1 4.22 2.27 8.55 3.5 13 .6.24.93.74 1 1.5-.98.38-1.65 1.21-2 2.5.17.67.33 1.33.5 2 .56-2.1 1.06-2.26 1.5-.5-1.13 1.47-1.79 3.13-2 5 .48 5.26 1.31 10.43 2.5 15.5 6.37.16 12.87.16 19.5 0h15c-.3.65-.64 1.32-1 2-12.98 1-25.98 1.33-39 1-.08-1.25-.74-2.08-2-2.5-2.73-.41-5.4-1.08-8-2l1-1c-1.73-3.85-2.56-8.02-2.5-12.5a65.764 65.764 0 0 0-5-7c-.5-2.03-.33-4.03.5-6a13.02 13.02 0 0 0-3-4c.86-.79 1.69-.46 2.5 1-.83-5.48-2.67-10.64-5.5-15.5 1.51-2.77 1.18-5.27-1-7.5 1.1-.5 2.1-.83 3-1-.88-1.05-1.55-2.21-2-3.5 1.41-1.95 1.08-3.62-1-5 1.53-1.58 2.03-3.42 1.5-5.5-2.63 3.38-3.13 2.54-1.5-2.5-1.96-3.21-1.29-6.21 2-9a7.379 7.379 0 0 0-3-2c2.42-2.1 2.42-4.1 0-6 .62-2.45.28-4.95-1-7.5 2.14-3.53 2.97-7.19 2.5-11 2.83-1.59 2.99-3.25.5-5 1.33-1.33 1.33-2.67 0-4 .48-.98 1.14-1.81 2-2.5a7.239 7.239 0 0 1-2-2.5c1.15-1.65 2.48-3.15 4-4.5l-2-2c2.53-1.32 2.53-2.48 0-3.5.67-1 1.33-2 2-3a4.502 4.502 0 0 0-2-1.5c1.14-.74 1.14-1.57 0-2.5 2.05-2.05 3.72-4.39 5-7-.64-1.23-.81-2.57-.5-4-.65 1.2-1.15 1.2-1.5 0 1-1.67 2.33-3 4-4l-1.5-3c-.65 1.2-1.15 1.2-1.5 0 1.64-1.2 1.97-2.54 1-4 .77-1.21 1.61-1.21 2.5 0 1.02-.85 1.86-1.85 2.5-3-2.18-2.22-2.18-4.22 0-6 .07-2.8.07-5.63 0-8.5.63-.75 1.13-1.58 1.5-2.5 1.84 1.33 2.34 1.17 1.5-.5.81-.31 1.47-.81 2-1.5h-4c1.83-.93 2.17-2.09 1-3.5 1.62-.85 1.96-1.85 1-3 1.44-1.76 2.44-3.76 3-6-2.04-1.82-2.2-3.65-.5-5.5.67 2.67 1.33 2.67 2 0 .89 1.21 1.73 1.21 2.5 0-.67-1-1.33-2-2-3 1.24-2.23 2.58-4.4 4-6.5-3.84-1.64-3.84-3.14 0-4.5-.21-.59-.54-1.09-1-1.5 1.39-1.17 2.23-2.67 2.5-4.5.33.67.67 1.33 1 2 .24-1.64 1.08-3.14 2.5-4.5-.67-.33-1.33-.67-2-1 1.31-1.75.98-3.25-1-4.5 3.37-2.43 4.03-5.1 2-8 1.07-1.83.4-2.99-2-3.5.76-4.36 1.93-4.52 3.5-.5.28-3.11.11-5.94-.5-8.5.83-.69 1.5-.52 2 .5.48 2.7 1.48 3.2 3 1.5-1.33-1.84-1.17-2.34.5-1.5.28-.92.78-1.58 1.5-2z"/><path style="opacity:.999" fill="#684ed0" d="M2298.5 1303.5c1 61.83 1.33 123.83 1 186-1.48 4.75-2.32 9.75-2.5 15-2.82 1.08-2.99 2.25-.5 3.5-1.33.33-2.67.67-4 1l1 1a14.931 14.931 0 0 0-3 3.5c.25 1.27.25 2.44 0 3.5a20.61 20.61 0 0 1-4.5 2.5c-.69.83-.52 1.5.5 2 .9-1.01 1.56-1.01 2 0a26.84 26.84 0 0 0-3.5 6h-4c.43 1.63.6 3.13.5 4.5-2.74 1.61-4.9 3.78-6.5 6.5l-1-1c.47 1.83 1.3 3.67 2.5 5.5l-3 3c.67.33 1.33.67 2 1-1.33 1-2.67 2-4 3 1.51 2.45.85 4.12-2 5l1 1c-2.21.17-4.21.84-6 2 .75 1.49 1.59 1.65 2.5.5.46 1.24-.04 2.08-1.5 2.5.67 1 1.33 2 2 3-1.8 1.26-3.14 2.93-4 5-1.24.31-2.24-.19-3-1.5-.33.5-.67 1-1 1.5.92 1.15.92 2.15 0 3 2.73.64 3.23 1.81 1.5 3.5l-1-1c-.49 1.05-.33 2.05.5 3-2 .83-4 1.67-6 2.5 1.12 1.04 2.46 1.71 4 2-.67.33-1.33.67-2 1 1.34 3.73 3 6.73 5 9-1.13 1.02-.8 1.68 1 2l-1 1c1.89 3.52 3.89 6.35 6 8.5.57 1.56 1.24 3.06 2 4.5l-1 1c3.36 2.35 4.36 5.35 3 9 2.46 3.85 4.46 8.02 6 12.5-.21.59-.54 1.09-1 1.5 2.89 6.13 4.89 12.3 6 18.5-.11.94-.44 1.78-1 2.5 2.12 1.52 2.45 3.36 1 5.5 2.09 2.29 2.43 4.79 1 7.5 1.39 2.46 2.05 5.13 2 8a61.15 61.15 0 0 0 0 22c.09 2.71-.58 5.21-2 7.5 2.61.82 5.27 1.32 8 1.5-6.99.5-13.99.67-21 .5-1.42-.95-3.09-1.28-5-1 3.23-37.03-3.61-72.03-20.5-105-.72.95-1.55 1.12-2.5.5a20.46 20.46 0 0 0-2.5-3.5c-.38-3.78.29-3.78 2 0-.35-4.04-1.85-7.71-4.5-11 1.31-2.02.65-3.19-2-3.5 3.04-.36 3.38-1.03 1-2l3-3c-1-.33-2-.67-3-1a33.34 33.34 0 0 1 6-3.5c-1.33-1-1.33-2 0-3l-2-2c1.48-.98 2.81-2.15 4-3.5-.67-.33-1.33-.67-2-1 1.67-.33 3.33-.67 5-1l-1-1c2.38-.97 2.04-1.64-1-2 .93-2.62 2.93-4.95 6-7l-2-2c2.81-.78 4.48-2.11 5-4-1-.33-2-.67-3-1l4-4c-1-.33-2-.67-3-1 2.82-.57 5.15-1.91 7-4-1.33-.67-1.33-1.33 0-2-1-.33-2-.67-3-1 1.17-.5 2-1.33 2.5-2.5 1.07.78 2.24.61 3.5-.5l-1-1c3.07-1.57 3.4-3.4 1-5.5 1.39-1.7 2.89-2.37 4.5-2 2.15-2.63 3.48-5.63 4-9l2 2c2.35-2.24 1.85-3.41-1.5-3.5 1.3-4.29 3.97-7.29 8-9v-3c1.8-.32 2.13-.98 1-2 3.47-2.05 4.97-4.89 4.5-8.5 1.65-1.22 3.48-2.05 5.5-2.5-.33-1-.67-2-1-3 2.36-2.61 4.86-5.11 7.5-7.5.88-9.65 1.38-19.32 1.5-29v-143z"/><path style="opacity:1" fill="#6d6ddf" d="M1898.5 1476.5v15c-.93 1.07-1.27 2.4-1 4-2.01.51-4.01.68-6 .5l1-1c-4.26.02-8.26-.82-12-2.5-1.66 1.52-2.82 1.19-3.5-1-.31.81-.81 1.47-1.5 2a40 40 0 0 1-6-3c-2.42.87-4.58.2-6.5-2h-6c-.85 3.02-2.35 3.52-4.5 1.5 2.1-.56 2.26-1.06.5-1.5-4.3-.42-9.47-.42-15.5 0-1.2-.35-1.2-.85 0-1.5-1.78-.7-3.61-1.2-5.5-1.5-2.48.83-4.98 1-7.5.5-1.72-.45-2.39-1.28-2-2.5-1.23 1.15-1.23 2.32 0 3.5-.66 1.52-1.66 2.69-3 3.5v-18c1.4-1.76 2.24-3.76 2.5-6 1.4.73 2.9 1.23 4.5 1.5-1.2.65-1.2 1.15 0 1.5 1.87-1.27 3.7-1.27 5.5 0 .39-.93 1.05-1.59 2-2 5 4.17 10.66 5.5 17 4 3.02 1.71 5.35 3.38 7 5 4.37-1.51 8.54-1.18 12.5 1 2.04-1.49 3.54-1.16 4.5 1 .31-.81.81-1.47 1.5-2 2.45 3.15 5.45 3.82 9 2v3c1.99-.33 3.99-.66 6-1 3.92.2 3.92.7 0 1.5 1.97.5 3.97.66 6 .5v-3c-1.37.16-2.71-.01-4-.5 1.95-.37 3.62-1.2 5-2.5z"/><path style="opacity:.999" fill="#6a5fd7" d="M2298.5 1416.5v17c-.82 3.48-1.32 7.14-1.5 11-2.05-.35-4.05.32-6 2-2.53 1-5.36 2.33-8.5 4-3.25 3.11-5.59 6.78-7 11-1.93.23-3.6 1.06-5 2.5l1 1c-2.67.67-2.67 1.33 0 2-1.49 1.37-2.99 1.53-4.5.5a44.639 44.639 0 0 1-5.5 9.5c-5.17 2.41-9.34 7.25-12.5 14.5-1.84-1.33-2.34-1.17-1.5.5-1.99.65-3.66 2.31-5 5l1 1h-4l1 1c-.94 1.06-1.94 2.23-3 3.5.88.75 1.88 1.25 3 1.5-1.94.74-3.77.58-5.5-.5.63 2.89-.53 5.06-3.5 6.5l1 1c-2.17 1.59-4.5 2.92-7 4 1 .33 2 .67 3 1-4.35.42-4.69 1.09-1 2-1.33.67-1.33 1.33 0 2-1.33.33-2.67.67-4 1 1.18.97 2.51 1.47 4 1.5l-1.5 3c-1.23-2.45-2.73-2.61-4.5-.5l1 1c-5.13 1.53-5.13 2.53 0 3-1.8.32-2.13.98-1 2-1.29.49-2.63.66-4 .5 1.2-11.15 1.2-22.15 0-33v-15c.86 5.5 1.53 11.17 2 17 2.57.78 4.91.61 7-.5-1.46-.81-1.79-1.64-1-2.5 1.42 1.64 3.08 2.47 5 2.5a72.346 72.346 0 0 0-9-7c1.33-1 2.67-2 4-3-1.75-.47-3.41-1.14-5-2 3.04-.36 3.38-1.03 1-2 6.03-.64 12.03-1.47 18-2.5-.21-.59-.54-1.09-1-1.5 1.96-.62 3.63-.12 5 1.5.24-.75.57-1.58 1-2.5 6.67-.67 6.67-1.33 0-2 1.12-.25 2.12-.75 3-1.5a18.294 18.294 0 0 1-4-6c1.21-1.22 1.21-2.39 0-3.5 1.8-.32 2.13-.98 1-2 2.5-1.43 5-1.6 7.5-.5.46-1.24-.04-2.08-1.5-2.5 2.18-.44 2.85-1.44 2-3 1.44-.22 2.77-.72 4-1.5-.21-.59-.54-1.09-1-1.5 2.55-.75 4.22-2.42 5-5 4-.67 6.83-2.83 8.5-6.5 10.18-1.76 19.52-6.1 28-13 .17-5.52.67-10.85 1.5-16z"/><path style="opacity:.999" fill="#6a67db" d="M1994.5 1497.5c-.77-.67-1.43-1.51-2-2.5-20.94-3.59-42.77-6.09-65.5-7.5-2.17.33-4.33.67-6.5 1-.93 3.93-1.27 7.93-1 12 .32 4.53-.02 8.87-1 13v-31c1.92-3.53 2.59-7.53 2-12 25.76.31 50.43 3.31 74 9v18z"/><path style="opacity:.996" fill="#6d73e2" d="M1898.5 1491.5c.52 14.83 1.19 29.49 2 44 .17 55 0 110-.5 165-.28.92-.78 1.58-1.5 2v-188c.17-3.68 0-7.35-.5-11-.5 2.65-.66 5.31-.5 8-1.05.15-2.05-.02-3-.5l1-1c-4.19-.34-8.36-.84-12.5-1.5-1.33-.25-2.33-.92-3-2-.31.81-.81 1.47-1.5 2-2.21-.62-4.21-1.62-6-3-.69.53-1.19 1.19-1.5 2-3.75-.8-7.58-1.3-11.5-1.5-1.56-.32-2.73-1.15-3.5-2.5-2.27.79-4.6 1.46-7 2l-2-2c-2.05 1.19-4.05 1.19-6 0-1.02 2.53-2.18 2.53-3.5 0-3.24 1.07-6.41.74-9.5-1-2.08.52-4.08 1.18-6 2-.9 2.43-1.74 4.76-2.5 7v-21c1.34-.81 2.34-1.98 3-3.5-1.23-1.18-1.23-2.35 0-3.5-.39 1.22.28 2.05 2 2.5 2.52.5 5.02.33 7.5-.5 1.89.3 3.72.8 5.5 1.5-1.2.65-1.2 1.15 0 1.5 6.03-.42 11.2-.42 15.5 0 1.76.44 1.6.94-.5 1.5 2.15 2.02 3.65 1.52 4.5-1.5h6c1.92 2.2 4.08 2.87 6.5 2a40 40 0 0 0 6 3c.69-.53 1.19-1.19 1.5-2 .68 2.19 1.84 2.52 3.5 1 3.74 1.68 7.74 2.52 12 2.5l-1 1c1.99.18 3.99.01 6-.5-.27-1.6.07-2.93 1-4z"/><path style="opacity:.999" fill="#6b6dde" d="M1994.5 1497.5v12c-.72-.42-1.22-1.08-1.5-2-20.47-4.01-41.47-6.68-63-8-3.58.04-7.08.37-10.5 1-.27-4.07.07-8.07 1-12 2.17-.33 4.33-.67 6.5-1 22.73 1.41 44.56 3.91 65.5 7.5.57.99 1.23 1.83 2 2.5z"/><path style="opacity:.997" fill="#6747cd" d="M2299.5 1489.5v37c-1.66 1.45-2.5 3.45-2.5 6-.56-2.1-1.06-2.26-1.5-.5 2.19 1.89 2.36 4.05.5 6.5-1.33.67-2.67 1.33-4 2-.62.95-.45 1.78.5 2.5-2.06 2.07-3.23 4.57-3.5 7.5-.54-1.77-1.37-2.1-2.5-1 .61 2.18-.06 4.18-2 6 .43.79.76 1.63 1 2.5-1.2 1.52-2.7 2.69-4.5 3.5-.62.95-.45 1.78.5 2.5-1.89 1.08-2.23 2.41-1 4-2.14 3.98-4.47 7.15-7 9.5 9.41 16.84 17.25 34.5 23.5 53 1.06 23.32 1.56 46.66 1.5 70-.24 2.76-1.58 4.93-4 6.5-12.33.5-24.66.67-37 .5 3.87-1.93 8.21-2.6 13-2 7.01.17 14.01 0 21-.5-2.73-.18-5.39-.68-8-1.5 1.42-2.29 2.09-4.79 2-7.5a61.15 61.15 0 0 1 0-22c.05-2.87-.61-5.54-2-8 1.43-2.71 1.09-5.21-1-7.5 1.45-2.14 1.12-3.98-1-5.5.56-.72.89-1.56 1-2.5-1.11-6.2-3.11-12.37-6-18.5.46-.41.79-.91 1-1.5-1.54-4.48-3.54-8.65-6-12.5 1.36-3.65.36-6.65-3-9l1-1c-.76-1.44-1.43-2.94-2-4.5-2.11-2.15-4.11-4.98-6-8.5l1-1c-1.8-.32-2.13-.98-1-2-2-2.27-3.66-5.27-5-9 .67-.33 1.33-.67 2-1-1.54-.29-2.88-.96-4-2 2-.83 4-1.67 6-2.5-.83-.95-.99-1.95-.5-3l1 1c1.73-1.69 1.23-2.86-1.5-3.5.92-.85.92-1.85 0-3 .33-.5.67-1 1-1.5.76 1.31 1.76 1.81 3 1.5.86-2.07 2.2-3.74 4-5-.67-1-1.33-2-2-3 1.46-.42 1.96-1.26 1.5-2.5-.91 1.15-1.75.99-2.5-.5 1.79-1.16 3.79-1.83 6-2l-1-1c2.85-.88 3.51-2.55 2-5 1.33-1 2.67-2 4-3-.67-.33-1.33-.67-2-1l3-3c-1.2-1.83-2.03-3.67-2.5-5.5l1 1c1.6-2.72 3.76-4.89 6.5-6.5.1-1.37-.07-2.87-.5-4.5h4a26.84 26.84 0 0 1 3.5-6c-.44-1.01-1.1-1.01-2 0-1.02-.5-1.19-1.17-.5-2a20.61 20.61 0 0 0 4.5-2.5c.25-1.06.25-2.23 0-3.5.81-1.31 1.81-2.48 3-3.5l-1-1c1.33-.33 2.67-.67 4-1-2.49-1.25-2.32-2.42.5-3.5.18-5.25 1.02-10.25 2.5-15z"/><path style="opacity:.994" fill="#6e79e4" d="M1898.5 1514.5c-.49 3.49-1.66 6.82-3.5 10-1.2-2.29-2.86-2.62-5-1a12.347 12.347 0 0 0-4-3c-3.04 1.54-6.2 2.04-9.5 1.5 1.2-.65 1.2-1.15 0-1.5-.98.48-1.81 1.14-2.5 2-1.44-1.22-3.1-1.89-5-2-1.91.91-3.74.91-5.5 0-.69.53-1.19 1.19-1.5 2-1.93-2.79-3.93-3.12-6-1-1.72-.11-1.89-.61-.5-1.5-2.29-.02-4.46-.18-6.5-.5-1.31 2.16-2.98 2.49-5 1-.33.67-.67 1.33-1 2-3.46-3.75-7.13-3.75-11 0-3.01-2.45-5.84-2.12-8.5 1-.17-.9-.5-1.9-1-3-.64 4.55-1.64 8.88-3 13v-22c.76-2.24 1.6-4.57 2.5-7 1.92-.82 3.92-1.48 6-2 3.09 1.74 6.26 2.07 9.5 1 1.32 2.53 2.48 2.53 3.5 0 1.95 1.19 3.95 1.19 6 0l2 2c2.4-.54 4.73-1.21 7-2 .77 1.35 1.94 2.18 3.5 2.5 3.92.2 7.75.7 11.5 1.5.31-.81.81-1.47 1.5-2 1.79 1.38 3.79 2.38 6 3 .69-.53 1.19-1.19 1.5-2 .67 1.08 1.67 1.75 3 2 4.14.66 8.31 1.16 12.5 1.5l-1 1c.95.48 1.95.65 3 .5-.16-2.69 0-5.35.5-8 .5 3.65.67 7.32.5 11z"/><path style="opacity:.999" fill="#6c75e1" d="M1994.5 1509.5h1c.56 8.72 1.56 17.39 3 26-1.43-.38-2.26-1.38-2.5-3-.31.81-.81 1.47-1.5 2-2.53-1.28-5.03-1.61-7.5-1-.95-2.09-2.29-2.43-4-1-1.31-2.16-2.98-2.49-5-1-.95-2.09-2.29-2.43-4-1-1.4-2.03-3.06-2.36-5-1-1.67-2.2-3.67-2.53-6-1-1.67-2.2-3.67-2.53-6-1-2.21-2.21-4.71-2.54-7.5-1-3-2.1-6.16-2.43-9.5-1-6.38-2.24-12.88-2.57-19.5-1 .35 4.18 1.02 8.18 2 12-.22 2.78.11 5.45 1 8 .16 3.79.83 7.46 2 11 1.32 5.95 2.32 11.95 3 18-6.12-19.4-9.46-39.4-10-60 .98-4.13 1.32-8.47 1-13 3.42-.63 6.92-.96 10.5-1 21.53 1.32 42.53 3.99 63 8 .28.92.78 1.58 1.5 2z"/><path style="opacity:1" fill="#7973ea" d="M1662.5 1510.5c.33 64.4 0 128.74-1 193 0 .67-.33 1-1 1h-15c.42-.72 1.08-1.22 2-1.5-.92-.37-1.75-.87-2.5-1.5-.5-2.31-.66-4.64-.5-7h-3c.39-2.97-.28-5.63-2-8l2-2c-2.26-2.01-2.6-4.34-1-7-1-3.85-1.84-3.85-2.5 0-.69-2.07-.52-4.07.5-6-1.46.44-2.46-.4-3-2.5.62-3.19 1.29-6.35 2-9.5-1.13-1.1-1.96-.77-2.5 1-.39-1.68-.23-3.35.5-5-.35-1.29-1.02-2.12-2-2.5.96-2.12 1.13-4.29.5-6.5-.65 1.2-1.15 1.2-1.5 0 .67-2 1.33-4 2-6l-2-2c.71-2.31 1.71-4.48 3-6.5-3.6.61-3.93-.55-1-3.5l-2-2c1.06-3.12 2.39-6.12 4-9l-2-2c.33-2 .67-4 1-6a4.502 4.502 0 0 0-2-1.5c2.01-1.79 2.01-3.12 0-4 3.83-.41 4.5-1.74 2-4 .88-1.59 1.88-3.09 3-4.5-1.36-1.81-1.03-3.31 1-4.5-2.46-1.15-2.46-2.49 0-4-.67-.33-1.33-.67-2-1 1.33-.67 2.67-1.33 4-2-2.53-1.02-2.53-2.18 0-3.5-1.33-1.33-1.33-2.67 0-4a4.502 4.502 0 0 0-2-1.5c2.46-1.51 2.46-2.85 0-4l8-8c-.67-.33-1.33-.67-2-1l3-3c-.67-.33-1.33-.67-2-1 2.51-4.44 2.01-4.61-1.5-.5.31-1.43.14-2.77-.5-4 1.11-1.39 2.44-2.56 4-3.5-.67-.33-1.33-.67-2-1 2.37-2.71 5.04-5.04 8-7a11.45 11.45 0 0 0-2-2.5c-.9 1.01-1.56 1.01-2 0 1.86-1.69 3.86-3.19 6-4.5-.67-.33-1.33-.67-2-1l3-3c-1.24.08-2.24-.09-3-.5a9.345 9.345 0 0 0 3-3v-5c1-.67 2-1.33 3-2 1.14-2.43 1.14-4.93 0-7.5.57-.99 1.23-1.83 2-2.5z"/><path style="opacity:.995" fill="#920de3" d="M2578.5 1518.5c9.59 14.19 18.93 28.52 28 43-.67 44.57-1.34 89.24-2 134-2.89-1.38-5.39-3.38-7.5-6a716.227 716.227 0 0 1-18.5-27c-1.31-47.81-1.31-95.81 0-144z"/><path style="opacity:.986" fill="#6e80e7" d="M1898.5 1514.5v12c-.67 3.19-1.33 6.52-2 10-.67-.33-1.33-.67-2-1-3.55.39-6.89 1.39-10 3-.41-.76-.58-1.76-.5-3-1.94 1.36-3.6 1.03-5-1-.48.95-.65 1.95-.5 3-4.03-.17-8.03-.67-12-1.5 3.69-.42 3.86-1.26.5-2.5-3.69 1.83-7.69 3.17-12 4-.5-.17-1-.33-1.5-.5 2.53-1 2.53-1.83 0-2.5-1.85 1.01-3.68 2.01-5.5 3a7.239 7.239 0 0 0-2.5-2c-5.07 1.04-10.24 1.04-15.5 0-.69.86-1.52 1.52-2.5 2-1.95-.76-3.78-1.09-5.5-1-.76 2.27-.59 4.44.5 6.5-1.98.61-2.31 1.61-1 3-.59.46-1.26.63-2 .5v-13c1.36-4.12 2.36-8.45 3-13 .5 1.1.83 2.1 1 3 2.66-3.12 5.49-3.45 8.5-1 3.87-3.75 7.54-3.75 11 0 .33-.67.67-1.33 1-2 2.02 1.49 3.69 1.16 5-1 2.04.32 4.21.48 6.5.5-1.39.89-1.22 1.39.5 1.5 2.07-2.12 4.07-1.79 6 1 .31-.81.81-1.47 1.5-2 1.76.91 3.59.91 5.5 0 1.9.11 3.56.78 5 2 .69-.86 1.52-1.52 2.5-2 1.2.35 1.2.85 0 1.5 3.3.54 6.46.04 9.5-1.5 1.53.72 2.86 1.72 4 3 2.14-1.62 3.8-1.29 5 1 1.84-3.18 3.01-6.51 3.5-10z"/><path style="opacity:1" fill="#6d7fe6" d="M1998.5 1535.5c1.2 4.27 2.2 8.6 3 13-.72-.42-1.22-1.08-1.5-2-.33 1.67-.67 3.33-1 5-21-7.89-42.67-11.89-65-12a41.27 41.27 0 0 0-11.5-3c-.98-3.82-1.65-7.82-2-12 6.62-1.57 13.12-1.24 19.5 1 3.34-1.43 6.5-1.1 9.5 1 2.79-1.54 5.29-1.21 7.5 1 2.33-1.53 4.33-1.2 6 1 2.33-1.53 4.33-1.2 6 1 1.94-1.36 3.6-1.03 5 1 1.71-1.43 3.05-1.09 4 1 2.02-1.49 3.69-1.16 5 1 1.71-1.43 3.05-1.09 4 1 2.47-.61 4.97-.28 7.5 1 .69-.53 1.19-1.19 1.5-2 .24 1.62 1.07 2.62 2.5 3z"/><path style="opacity:.998" fill="#6e86ea" d="M1898.5 1526.5v13c-.98 3.46-1.31 7.13-1 11-1.9.07-3.73-.27-5.5-1a13.218 13.218 0 0 1-5 2c-3.76-.39-7.43-1.06-11-2-1.09 2.35-2.42 2.35-4 0-2.07.26-4.07.26-6 0-.67 1.08-1.67 1.75-3 2-1.67-.67-3.33-1.33-5-2-3.44.36-6.77 1.69-10 4l-3-3a108.94 108.94 0 0 0-11 4c-.95-.41-1.61-1.07-2-2-3.33 1.33-6.67 2.67-10 4-.42 3.89-1.25 7.56-2.5 11v-21c.74.13 1.41-.04 2-.5-1.31-1.39-.98-2.39 1-3-1.09-2.06-1.26-4.23-.5-6.5 1.72-.09 3.55.24 5.5 1 .98-.48 1.81-1.14 2.5-2 5.26 1.04 10.43 1.04 15.5 0 .98.48 1.81 1.14 2.5 2 1.82-.99 3.65-1.99 5.5-3 2.53.67 2.53 1.5 0 2.5.5.17 1 .33 1.5.5 4.31-.83 8.31-2.17 12-4 3.36 1.24 3.19 2.08-.5 2.5 3.97.83 7.97 1.33 12 1.5-.15-1.05.02-2.05.5-3 1.4 2.03 3.06 2.36 5 1-.08 1.24.09 2.24.5 3 3.11-1.61 6.45-2.61 10-3 .67.33 1.33.67 2 1 .67-3.48 1.33-6.81 2-10z"/><path style="opacity:.978" fill="#6540ca" d="M2299.5 1526.5c.33 58.17 0 116.17-1 174 .06-23.34-.44-46.68-1.5-70a315.245 315.245 0 0 0-23.5-53c2.53-2.35 4.86-5.52 7-9.5-1.23-1.59-.89-2.92 1-4-.95-.72-1.12-1.55-.5-2.5 1.8-.81 3.3-1.98 4.5-3.5-.24-.87-.57-1.71-1-2.5 1.94-1.82 2.61-3.82 2-6 1.13-1.1 1.96-.77 2.5 1 .27-2.93 1.44-5.43 3.5-7.5-.95-.72-1.12-1.55-.5-2.5 1.33-.67 2.67-1.33 4-2 1.86-2.45 1.69-4.61-.5-6.5.44-1.76.94-1.6 1.5.5 0-2.55.84-4.55 2.5-6z"/><path style="opacity:1" fill="#6d86e9" d="M1922.5 1536.5c3.96.44 7.79 1.44 11.5 3 22.33.11 44 4.11 65 12 .33-1.67.67-3.33 1-5 .28.92.78 1.58 1.5 2 1.57 2.72 2.57 5.72 3 9 .21 2.74 1.21 5.07 3 7 1.43 1.28 2.1 2.95 2 5-.81-.93-1.65-1.93-2.5-3-6.36-1.67-12.86-3.84-19.5-6.5-10.55-3.06-20.88-5.56-31-7.5-2.42 1-4.75.66-7-1-2.19 1.05-3.69.72-4.5-1-3.36 1.54-6.52 1.2-9.5-1-3.32 1.26-6.66 1.26-10 0-.53-1.84-1.19-3.5-2-5-.89-2.55-1.22-5.22-1-8z"/><path style="opacity:1" fill="#6d8beb" d="M1923.5 1544.5c.81 1.5 1.47 3.16 2 5 3.34 1.26 6.68 1.26 10 0 2.98 2.2 6.14 2.54 9.5 1 .81 1.72 2.31 2.05 4.5 1 2.25 1.66 4.58 2 7 1 10.12 1.94 20.45 4.44 31 7.5 6.64 2.66 13.14 4.83 19.5 6.5.85 1.07 1.69 2.07 2.5 3 4.08 7.16 8.41 14.16 13 21-1.29-.79-2.46-1.79-3.5-3-.33.67-.67 1.33-1 2a182.26 182.26 0 0 0-9.5-6.5c-1.28-.68-2.45-.52-3.5.5a6.603 6.603 0 0 1-3-3h-3c-1.01-1.76-2.51-2.93-4.5-3.5 2.09-3.12 1.42-3.29-2-.5v-3c-2.6 2.5-5.1 2.5-7.5 0-.41.46-.91.79-1.5 1-2.97-1.34-3.3-2.84-1-4.5-.33-.17-.67-.33-1-.5-1.37 1.62-3.04 2.12-5 1.5.83-.91 1.83-1.58 3-2-1.28-.68-2.45-.52-3.5.5-.31-.81-.81-1.47-1.5-2-1.65-.43-3.48-.43-5.5 0-1.67-2.42-3.51-2.42-5.5 0 .1-1.12-.4-2.12-1.5-3-1 .67-2 1.33-3 2-1.01-.39-1.51-1.06-1.5-2-1.3.59-2.13 1.59-2.5 3-.64-1.9-1.97-2.23-4-1-1.33-.25-2.33-.92-3-2-6.51.73-13.01.23-19.5-1.5-.78-2.67-1.78-5.17-3-7.5a40.319 40.319 0 0 1-2-11z"/><path style="opacity:1" fill="#6e8cec" d="M1898.5 1539.5v15c-.7 3.06-1.37 6.23-2 9.5-4 .67-8 .67-12 0-2.25-2.22-4.92-3.22-8-3 1.33 1 2.67 2 4 3-4.3.37-8.46 1.21-12.5 2.5-.39-.93-1.05-1.59-2-2-3.33 1.52-6.66 1.85-10 1-1.77 2.54-3.61 2.54-5.5 0-8.99 3.28-17.99 5.78-27 7.5-1.16 1.01-1.82 2.34-2 4-.44 4.68-1.11 9.18-2 13.5v-23c1.25-3.44 2.08-7.11 2.5-11 3.33-1.33 6.67-2.67 10-4 .39.93 1.05 1.59 2 2 3.62-1.54 7.28-2.87 11-4l3 3c3.23-2.31 6.56-3.64 10-4 1.67.67 3.33 1.33 5 2 1.33-.25 2.33-.92 3-2 1.93.26 3.93.26 6 0 1.58 2.35 2.91 2.35 4 0 3.57.94 7.24 1.61 11 2 1.81-.33 3.48-.99 5-2 1.77.73 3.6 1.07 5.5 1-.31-3.87.02-7.54 1-11z"/><path style="opacity:.995" fill="#6e1bc7" d="M2418.5 1550.5c.34 23.03.34 46.36 0 70 0 23.34.67 46.34 2 69-5.89 6.2-12.89 10.87-21 14 .24-3.5-.59-3.83-2.5-1-.77-13.18-.6-26.35.5-39.5a328.783 328.783 0 0 0-13-57.5c.18-1.05.51-2.05 1-3-.46-.8-1.12-1.13-2-1 11.31-17.3 22.98-34.3 35-51z"/><path style="opacity:.031" fill="#5a49e4" d="M2004.5 1557.5c1.79 1.93 2.79 4.26 3 7-1.79-1.93-2.79-4.26-3-7z"/><path style="opacity:.989" fill="#6e92ef" d="M1898.5 1554.5v21h-1c-9.23.84-18.4 2.18-27.5 4-1.23-.14-2.39-.48-3.5-1-5.43 1.2-10.6 2.87-15.5 5-1.39-1.31-2.39-.98-3 1-3.24.38-6.57.38-10 0-5.02 2.34-10.02 4.67-15 7-.33-1-.67-2-1-3-.36 7.87-1.19 15.53-2.5 23v-21c.89-4.32 1.56-8.82 2-13.5.18-1.66.84-2.99 2-4 9.01-1.72 18.01-4.22 27-7.5 1.89 2.54 3.73 2.54 5.5 0 3.34.85 6.67.52 10-1 .95.41 1.61 1.07 2 2 4.04-1.29 8.2-2.13 12.5-2.5-1.33-1-2.67-2-4-3 3.08-.22 5.75.78 8 3 4 .67 8 .67 12 0 .63-3.27 1.3-6.44 2-9.5z"/><path style="opacity:1" fill="#6d91ee" d="M1925.5 1555.5c1.22 2.33 2.22 4.83 3 7.5 6.49 1.73 12.99 2.23 19.5 1.5.67 1.08 1.67 1.75 3 2 2.03-1.23 3.36-.9 4 1 .37-1.41 1.2-2.41 2.5-3-.01.94.49 1.61 1.5 2 1-.67 2-1.33 3-2 1.1.88 1.6 1.88 1.5 3 1.99-2.42 3.83-2.42 5.5 0 2.02-.43 3.85-.43 5.5 0 .69.53 1.19 1.19 1.5 2 1.05-1.02 2.22-1.18 3.5-.5a7.379 7.379 0 0 0-3 2c1.96.62 3.63.12 5-1.5.33.17.67.33 1 .5-2.3 1.66-1.97 3.16 1 4.5.59-.21 1.09-.54 1.5-1 2.4 2.5 4.9 2.5 7.5 0v3c3.42-2.79 4.09-2.62 2 .5 1.99.57 3.49 1.74 4.5 3.5h3a6.603 6.603 0 0 0 3 3c1.05-1.02 2.22-1.18 3.5-.5 3.27 2.09 6.44 4.26 9.5 6.5.33-.67.67-1.33 1-2 1.04 1.21 2.21 2.21 3.5 3 9.85 11.19 21.19 20.53 34 28 4.67 2.33 9.33 4.67 14 7-.74-.13-1.41.04-2 .5 3.43 2.99 5.27 6.49 5.5 10.5l1-1c1.5 2.17 3 4.33 4.5 6.5-2.76 1.54-2.6 2.71.5 3.5.83 1.67 1.67 3.33 2.5 5-1.43 1.83-1.93 3.83-1.5 6 1.83-4.85 3.33-4.35 4.5 1.5-.77 2.14-1.43 4.3-2 6.5 2.38 13.56 4.05 27.06 5 40.5-3.18-.05-5.84.78-8 2.5-4.06-.8-8.06-1.8-12-3 1.11-.79 2.44-1.29 4-1.5-1.6-.27-3.1-.77-4.5-1.5.48-9.31.48-18.64 0-28a207.1 207.1 0 0 0-6-22c-12.81-23.47-30.97-41.64-54.5-54.5-13.44-6.67-26.94-12.17-40.5-16.5-1.71 1.43-3.05 1.09-4-1-.72.56-1.56.89-2.5 1-8.54-2.2-17.21-3.7-26-4.5-2.49-.5-3.99-2-4.5-4.5.08 2.62.25 5.29.5 8-1.24-1.71-1.91-3.71-2-6-.68-6.05-1.68-12.05-3-18z"/><path style="opacity:1" fill="#6d98f1" d="M2068.5 1704.5c-10.84-1.62-21.18-4.62-31-9 3.74.43 7.41.93 11 1.5.57-14.99-1.93-29.49-7.5-43.5-5.66-7.66-11.32-15.33-17-23-15.39-14.64-33.22-25.31-53.5-32-.59.21-1.09.54-1.5 1-1.97-1.89-4.3-3.22-7-4-2.67.8-5.34.47-8-1-1.78.98-3.45.65-5-1-.77.14-1.44.48-2 1a55.535 55.535 0 0 0-11-5c-.46.59-.63 1.26-.5 2-.67-.33-1.33-.67-2-1-1.2-3.61-2.2-7.28-3-11-.25-2.71-.42-5.38-.5-8 .51 2.5 2.01 4 4.5 4.5 8.79.8 17.46 2.3 26 4.5.94-.11 1.78-.44 2.5-1 .95 2.09 2.29 2.43 4 1 13.56 4.33 27.06 9.83 40.5 16.5 23.53 12.86 41.69 31.03 54.5 54.5a207.1 207.1 0 0 1 6 22c.48 9.36.48 18.69 0 28 1.4.73 2.9 1.23 4.5 1.5-1.56.21-2.89.71-4 1.5z"/><path style="opacity:.996" fill="#6e98f2" d="M1897.5 1575.5v15a141.07 141.07 0 0 0-31 6c-1.53-.03-2.7-.7-3.5-2-2.07 2.14-4.4 2.81-7 2-.33.67-.67 1.33-1 2-1-1.33-2-1.33-3 0-1.39-2.22-3.06-2.22-5 0-1.05-1.02-2.22-1.18-3.5-.5l1 1c-2.24 1.36-4.57 1.19-7-.5-1.5.58-2.83 1.42-4 2.5 1.25 1.49 1.25 2.99 0 4.5-2.18.61-4.18-.06-6-2-.69.53-1.19 1.19-1.5 2l-1-1c-1.07.69-2.23 1.19-3.5 1.5.12 1.27.45 2.6 1 4-.99 10.32-1.99 20.49-3 30.5v-29c1.31-7.47 2.14-15.13 2.5-23 .33 1 .67 2 1 3 4.98-2.33 9.98-4.66 15-7 3.43.38 6.76.38 10 0 .61-1.98 1.61-2.31 3-1 4.9-2.13 10.07-3.8 15.5-5 1.11.52 2.27.86 3.5 1 9.1-1.82 18.27-3.16 27.5-4z"/><path style="opacity:.981" fill="#990ae8" d="M2606.5 1561.5a933.888 933.888 0 0 1 40 59c-1 27.83-1.33 55.83-1 84h5v3c-11.45 1.05-22.45-.45-33-4.5-4.72-2.02-9.06-4.52-13-7.5.66-44.76 1.33-89.43 2-134z"/><path style="opacity:1" fill="#695ed7" d="M2229.5 1694.5c-6.21-5.58-9.54-12.41-10-20.5-.59-.46-1.26-.63-2-.5.71-.9 1.71-1.24 3-1-3.02-29.58-12.86-56.58-29.5-81-.71.88-1.54 1.55-2.5 2 2.95-4.95 6.29-9.62 10-14 .62-.11 1.12-.44 1.5-1 1.85 1.73 1.69 2.9-.5 3.5 1.83.93 2.17 2.09 1 3.5 17.75 24.84 28.25 52.51 31.5 83 .67 9 .67 18 0 27-.67-.75-1.5-1.09-2.5-1z"/><path style="opacity:1" fill="#6e9ef4" d="M1897.5 1575.5h1v23c-.96 1.76-1.29 3.76-1 6a144.49 144.49 0 0 0-29.5 6 27.99 27.99 0 0 0-3.5-1c-15.13 4.98-28.96 12.31-41.5 22l-1-1c-1.36 14.88-1.36 30.22 0 46 .87 3.79 2.04 7.45 3.5 11-2.68-3.49-4.51-7.49-5.5-12-.5-11.66-.67-23.33-.5-35 1.01-10.01 2.01-20.18 3-30.5-.55-1.4-.88-2.73-1-4 1.27-.31 2.43-.81 3.5-1.5l1 1c.31-.81.81-1.47 1.5-2 1.82 1.94 3.82 2.61 6 2 1.25-1.51 1.25-3.01 0-4.5 1.17-1.08 2.5-1.92 4-2.5 2.43 1.69 4.76 1.86 7 .5l-1-1c1.28-.68 2.45-.52 3.5.5 1.94-2.22 3.61-2.22 5 0 1-1.33 2-1.33 3 0 .33-.67.67-1.33 1-2 2.6.81 4.93.14 7-2 .8 1.3 1.97 1.97 3.5 2a141.07 141.07 0 0 1 31-6v-15z"/><path style="opacity:1" fill="#6d9ff4" d="M2037.5 1695.5h-1c-2.33-1.33-4.67-2.67-7-4-.2-16.82-5.04-32.16-14.5-46-19.34-22.08-43.51-34.75-72.5-38a6.816 6.816 0 0 1 1 4c-1.85-1.53-2.85-3.53-3-6-1.66-4.66-3.33-9.32-5-14-.13-.74.04-1.41.5-2 3.83 1.26 7.49 2.92 11 5 .56-.52 1.23-.86 2-1 1.55 1.65 3.22 1.98 5 1 2.66 1.47 5.33 1.8 8 1 2.7.78 5.03 2.11 7 4 .41-.46.91-.79 1.5-1 20.28 6.69 38.11 17.36 53.5 32 5.68 7.67 11.34 15.34 17 23 5.57 14.01 8.07 28.51 7.5 43.5-3.59-.57-7.26-1.07-11-1.5z"/><path style="opacity:.431" fill="#666edf" d="M1933.5 1590.5c.67.33 1.33.67 2 1 1.67 4.68 3.34 9.34 5 14-3.28-4.46-5.61-9.46-7-15z"/><path style="opacity:.987" fill="#6b22c6" d="M2383.5 1601.5c.88-.13 1.54.2 2 1-.49.95-.82 1.95-1 3a328.783 328.783 0 0 1 13 57.5 278.48 278.48 0 0 0-.5 39.5c1.91-2.83 2.74-2.5 2.5 1a175.59 175.59 0 0 1-20 4c.19-1.7 1.02-3.03 2.5-4 1.06-20.59.22-41.09-2.5-61.5-.25-1.33-.92-2.33-2-3 .67-7.66.67-15.49 0-23.5h-3c2.49-4.98 5.49-9.64 9-14z"/><path style="opacity:1" fill="#6b6ddd" d="M2179.5 1694.5c-3.44 1.7-7.11 3.04-11 4 1.65-1.62 3.65-2.96 6-4 2.43-26.93-2.73-52.26-15.5-76a59.78 59.78 0 0 0-11.5 5c-5.45 1.76-10.95 3.43-16.5 5-.76-.07-1.26-.4-1.5-1 13.83-3.42 26.83-8.75 39-16 1.35-.53 2.68-.69 4-.5 2.29 4.09 4.46 8.25 6.5 12.5 1.83-2.83 3.33-2.67 4.5.5-1.13 1.02-.8 1.68 1 2 .18 1.99-.49 3.99-2 6 6.68 17.77 10.35 36.1 11 55-4.89 2.27-9.55 4.77-14 7.5z"/><path style="opacity:1" fill="#6ea8f7" d="M1898.5 1598.5v104c0 1.33-.67 2-2 2-15.34.17-30.67 0-46-.5a56.498 56.498 0 0 0-10-2.5c-2.7-.34-4.7-1.68-6-4-2-2.67-4.33-5-7-7-1.41-.47-2.07-1.47-2-3a70.066 70.066 0 0 1-3.5-11c-1.36-15.78-1.36-31.12 0-46l1 1c12.54-9.69 26.37-17.02 41.5-22 1.19.26 2.36.59 3.5 1a144.49 144.49 0 0 1 29.5-6c-.29-2.24.04-4.24 1-6z"/><path style="opacity:.978" fill="#6a28c6" d="M2374.5 1615.5h3c.67 8.01.67 15.84 0 23.5 1.08.67 1.75 1.67 2 3 2.72 20.41 3.56 40.91 2.5 61.5-1.48.97-2.31 2.3-2.5 4h-10c2.33-24.42 1.16-48.75-3.5-73-.7-2.23-1.87-2.56-3.5-1 3.51-6.35 7.51-12.35 12-18z"/><path style="opacity:1" fill="#6a65da" d="M2217.5 1673.5c-11.41 9.05-24.08 16.05-38 21 4.45-2.73 9.11-5.23 14-7.5-.65-18.9-4.32-37.23-11-55 1.51-2.01 2.18-4.01 2-6-1.8-.32-2.13-.98-1-2-1.17-3.17-2.67-3.33-4.5-.5-2.04-4.25-4.21-8.41-6.5-12.5-1.32-.19-2.65-.03-4 .5 6.94-5.6 13.61-11.6 20-18 .96-.45 1.79-1.12 2.5-2 16.64 24.42 26.48 51.42 29.5 81-1.29-.24-2.29.1-3 1z"/><path style="opacity:1" fill="#6ea6f7" d="M2029.5 1691.5c-4.23-1.95-8.57-3.62-13-5-3.67-1.5-7.01-3.5-10-6a24.84 24.84 0 0 0-8-5 55.854 55.854 0 0 1-14-11 228.137 228.137 0 0 0-18-18 58.321 58.321 0 0 1-8-10c-1.26-3.52-3.26-6.52-6-9-3.76-4.8-6.76-10.13-9-16 .08-1.43-.25-2.76-1-4 28.99 3.25 53.16 15.92 72.5 38 9.46 13.84 14.3 29.18 14.5 46z"/><path style="opacity:1" fill="#6c73e0" d="M2168.5 1698.5a335.117 335.117 0 0 1-35 9v-3c3.7-.05 7.36-.39 11-1 5.67-1.33 11.34-2.83 17-4.5-1.56-.32-2.73-1.15-3.5-2.5a6.866 6.866 0 0 1-1.5 3l-1-1c2.28-18.35.61-36.35-5-54 .48-.98 1.14-1.81 2-2.5-.95-.62-1.78-.45-2.5.5-2.1-5.37-4.6-10.53-7.5-15.5 2.08-.7 3.75-1.86 5-3.5a59.78 59.78 0 0 1 11.5-5c12.77 23.74 17.93 49.07 15.5 76-2.35 1.04-4.35 2.38-6 4z"/><path style="opacity:.999" fill="#6d8beb" d="M2070.5 1625.5a122.97 122.97 0 0 0 29 5c-3.14.82-6.47 1.32-10 1.5 14.17 23.37 18.51 48.54 13 75.5h-22c2.16-1.72 4.82-2.55 8-2.5-.95-13.44-2.62-26.94-5-40.5.57-2.2 1.23-4.36 2-6.5-1.17-5.85-2.67-6.35-4.5-1.5-.43-2.17.07-4.17 1.5-6-.83-1.67-1.67-3.33-2.5-5-3.1-.79-3.26-1.96-.5-3.5-1.5-2.17-3-4.33-4.5-6.5l-1 1c-.23-4.01-2.07-7.51-5.5-10.5.59-.46 1.26-.63 2-.5z"/><path style="opacity:1" fill="#6c79e3" d="M2147.5 1623.5c-1.25 1.64-2.92 2.8-5 3.5 2.9 4.97 5.4 10.13 7.5 15.5.72-.95 1.55-1.12 2.5-.5-.86.69-1.52 1.52-2 2.5 5.61 17.65 7.28 35.65 5 54l1 1c.75-.88 1.25-1.88 1.5-3 .77 1.35 1.94 2.18 3.5 2.5-5.66 1.67-11.33 3.17-17 4.5-1.45-.8-3.12-1.3-5-1.5 2.79-13.36 2.46-26.69-1-40 1.47-2.09 1.14-3.76-1-5 .78-1.77.61-3.6-.5-5.5-.65 1.2-1.15 1.2-1.5 0 .33-.67.67-1.33 1-2-.67-.33-1.33-.67-2-1 1.07-3.28.07-5.78-3-7.5.46-.41.79-.91 1-1.5a32.114 32.114 0 0 1-4-10c-4.84.88-9.5.88-14 0 4.92-.95 9.92-1.62 15-2 .24.6.74.93 1.5 1 5.55-1.57 11.05-3.24 16.5-5z"/><path style="opacity:.227" fill="#686ee1" d="M1952.5 1627.5c2.74 2.48 4.74 5.48 6 9-2.78-2.45-4.78-5.45-6-9z"/><path style="opacity:1" fill="#6c7ee5" d="M2056.5 1618.5c10.36 4.06 21.03 7.23 32 9.5 8.63 1.14 17.3 1.64 26 1.5 4.5.88 9.16.88 14 0 .76 3.53 2.09 6.86 4 10-.21.59-.54 1.09-1 1.5 3.07 1.72 4.07 4.22 3 7.5.67.33 1.33.67 2 1-.33.67-.67 1.33-1 2 .35 1.2.85 1.2 1.5 0 1.11 1.9 1.28 3.73.5 5.5 2.14 1.24 2.47 2.91 1 5 3.46 13.31 3.79 26.64 1 40 1.88.2 3.55.7 5 1.5-3.64.61-7.3.95-11 1v3h-11c2.21-2.5 3.38-5.5 3.5-9 .67-9 .67-18 0-27-.46-3.95-1.3-7.78-2.5-11.5.52-.56.86-1.23 1-2-2.36-8.03-5.86-16.53-10.5-25.5-4.67-.39-9.5-1.06-14.5-2a122.97 122.97 0 0 1-29-5c-4.67-2.33-9.33-4.67-14-7z"/><path style="opacity:.999" fill="#6d85e9" d="M2099.5 1630.5c5 .94 9.83 1.61 14.5 2 4.64 8.97 8.14 17.47 10.5 25.5-.14.77-.48 1.44-1 2 1.2 3.72 2.04 7.55 2.5 11.5.67 9 .67 18 0 27-.12 3.5-1.29 6.5-3.5 9h-20c5.51-26.96 1.17-52.13-13-75.5 3.53-.18 6.86-.68 10-1.5z"/><path style="opacity:.964" fill="#682ec6" d="M2369.5 1707.5h-20c.19-2.41 1.53-3.41 4-3 1.72-17.8.88-35.47-2.5-53-.33.67-.67 1.33-1 2-.4-.23-.57-.56-.5-1a185.81 185.81 0 0 1 13-19c1.63-1.56 2.8-1.23 3.5 1 4.66 24.25 5.83 48.58 3.5 73z"/><path style="opacity:.961" fill="#a004ee" d="M2646.5 1620.5a6471.32 6471.32 0 0 1 51.5 75c2.42 4.22 1.92 7.88-1.5 11-15.32 1-30.65 1.33-46 1v-3h-5c-.33-28.17 0-56.17 1-84z"/><path style="opacity:.486" fill="#6c76e2" d="M1966.5 1646.5c6.29 5.62 12.29 11.62 18 18-6.98-4.98-12.98-10.98-18-18z"/><path style="opacity:.965" fill="#6636c6" d="M2349.5 1707.5c-9.36.33-18.69 0-28-1-2.33-1.31-3.66-3.31-4-6a911.334 911.334 0 0 1 32-48c-.07.44.1.77.5 1 .33-.67.67-1.33 1-2 3.38 17.53 4.22 35.2 2.5 53-2.47-.41-3.81.59-4 3z"/><path style="opacity:.482" fill="#7070df" d="M1998.5 1675.5a24.84 24.84 0 0 1 8 5c-3.3-.65-5.97-2.32-8-5z"/><path style="opacity:.773" fill="#6c75e1" d="M2016.5 1686.5c4.43 1.38 8.77 3.05 13 5 2.33 1.33 4.67 2.67 7 4-7.2-1.93-13.87-4.93-20-9z"/><path style="opacity:.122" fill="#7076e4" d="M1827.5 1690.5c2.67 2 5 4.33 7 7-3.33-1.33-5.67-3.67-7-7z"/><path style="opacity:.126" fill="#6d82e7" d="M1840.5 1701.5c3.39.52 6.72 1.36 10 2.5 15.33.5 30.66.67 46 .5-.59.65-1.26 1.32-2 2-14 1.33-28 1.33-42 0-4.41-.91-8.41-2.58-12-5z"/></svg>