<svg xmlns="http://www.w3.org/2000/svg" width="2000" height="2000" style="shape-rendering:geometricPrecision;text-rendering:geometricPrecision;image-rendering:optimizeQuality;fill-rule:evenodd;clip-rule:evenodd"><path style="opacity:.998" fill="#e40813" d="M642.5 352.5c85.498-.999 171.165-1.333 257-1a143734.943 143734.943 0 0 0 202 571c84.23 241.68 169.23 483.01 255 724-1.37 1.29-3.2 1.95-5.5 2a4125.022 4125.022 0 0 0-258-22 202981.912 202981.912 0 0 0-192.5-542c.16-1.7-.006-3.37-.5-5a303761.715 303761.715 0 0 0-257.5-727z"/><path style="opacity:1" fill="#6e070a" d="M1356.5 1625.5v-1272h-253c.32 4.202-.02 8.202-1 12v-13h255c.33 424.5 0 848.83-1 1273z"/><path style="opacity:1" fill="#b0060e" d="M1356.5 1569.5c-84.47-244.74-169.14-489.41-254-734v-470c.98-3.798 1.32-7.798 1-12h253v1216z"/><path style="opacity:1" fill="#7a050b" d="M642.5 352.5a303761.715 303761.715 0 0 1 257.5 727c.494 1.63.66 3.3.5 5 .33 19.51-.003 38.84-1 58v-23c.166-5.68-.001-11.34-.5-17a162169.018 162169.018 0 0 1-255-742 162.597 162.597 0 0 0-.5 18v1238c-1-421.17-1.333-842.5-1-1264z"/><path style="opacity:1" fill="#86040b" d="M899.5 1119.5c-86.123-246.7-171.456-493.7-256-741-.166-6.009.001-12.009.5-18a162169.018 162169.018 0 0 0 255 742c.499 5.66.666 11.32.5 17z"/><path style="opacity:1" fill="#8c050c" d="M643.5 378.5c84.544 247.3 169.877 494.3 256 741v16a242822.83 242822.83 0 0 1-256-741v-16z"/><path style="opacity:1" fill="#8e050c" d="M643.5 394.5a242822.83 242822.83 0 0 0 256 741v7c.333 144.5 0 288.83-1 433v-407c.838-9.62-.328-18.95-3.5-28a314597.51 314597.51 0 0 1-251.5-728v-18z"/><path style="opacity:1" fill="#99050d" d="M643.5 412.5a314597.51 314597.51 0 0 0 251.5 728c3.172 9.05 4.338 18.38 3.5 28a239428.741 239428.741 0 0 1-255-736v-20z"/><path style="opacity:1" fill="#9f050d" d="M643.5 432.5a239428.741 239428.741 0 0 0 255 736v18a160169.608 160169.608 0 0 1-255-737v-17z"/><path style="opacity:1" fill="#a5060e" d="M643.5 449.5a160169.608 160169.608 0 0 0 255 737v15a169478.782 169478.782 0 0 1-255-736v-16z"/><path style="opacity:1" fill="#ab060e" d="M643.5 465.5a169478.782 169478.782 0 0 0 255 736v18a239428.741 239428.741 0 0 1-255-736v-18z"/><path style="opacity:1" fill="#b0060e" d="M643.5 483.5a239428.741 239428.741 0 0 0 255 736v356c.229 17.35-.104 34.69-1 52-8.985.67-17.985 1-27 1-10.864-.07-21.53.6-32 2a1023.41 1023.41 0 0 1-57 4c-7.882-.14-15.549.53-23 2-7.211-.04-14.211.62-21 2-6.55-.05-12.883.62-19 2-6.55-.05-12.883.62-19 2-5.788 1.31-11.788 1.98-18 2-10.207.35-20.207 1.35-30 3h-7c.328-10.51-.006-20.85-1-31v-1133z"/><path style="opacity:1" fill="#ab060e" d="M1102.5 835.5c84.86 244.59 169.53 489.26 254 734v18c-84.07-244.89-168.74-489.56-254-734v-18z"/><path style="opacity:1" fill="#a5060e" d="M1102.5 853.5c85.26 244.44 169.93 489.11 254 734v16c-84.27-245.15-168.94-490.15-254-735v-15z"/><path style="opacity:1" fill="#9f050d" d="M1102.5 868.5c85.06 244.85 169.73 489.85 254 735v18c-83.88-245.3-168.54-490.3-254-735v-18z"/><path style="opacity:1" fill="#98050d" d="M1102.5 886.5c85.46 244.7 170.12 489.7 254 735v3c-.82 4.15-1.32 8.48-1.5 13-83.61-244.15-167.61-488.15-252-732-.5-6.325-.67-12.658-.5-19z"/><path style="opacity:1" fill="#8d050c" d="M1102.5 365.5v521c-.17 6.342 0 12.675.5 19 84.39 243.85 168.39 487.85 252 732 .18-4.52.68-8.85 1.5-13v22c-85.77-240.99-170.77-482.32-255-724-.33-185.834 0-371.501 1-557z"/><path style="opacity:1" fill="#74090a" d="M643.5 1616.5c.994 10.15 1.328 20.49 1 31h7c-2.448.97-5.115 1.31-8 1v-32z"/><path style="opacity:.502" fill="#520b08" d="M870.5 1628.5a257.598 257.598 0 0 1-32 2c10.47-1.4 21.136-2.07 32-2z"/><path style="opacity:.718" fill="#530c08" d="M781.5 1634.5c-7.469 1.26-15.135 1.93-23 2 7.451-1.47 15.118-2.14 23-2z"/><path style="opacity:.749" fill="#610909" d="M758.5 1636.5c-6.789 1.38-13.789 2.04-21 2 6.789-1.38 13.789-2.04 21-2z"/><path style="opacity:.749" fill="#560c08" d="M737.5 1638.5c-6.117 1.38-12.45 2.05-19 2 6.117-1.38 12.45-2.05 19-2z"/><path style="opacity:.718" fill="#540c08" d="M718.5 1640.5c-6.117 1.38-12.45 2.05-19 2 6.117-1.38 12.45-2.05 19-2z"/><path style="opacity:.749" fill="#610a09" d="M681.5 1644.5c-9.78 1.78-19.78 2.78-30 3 9.793-1.65 19.793-2.65 30-3z"/></svg>