<?xml version="1.0" encoding="UTF-8" standalone="no"?>
<svg
   xmlns:dc="http://purl.org/dc/elements/1.1/"
   xmlns:cc="http://creativecommons.org/ns#"
   xmlns:rdf="http://www.w3.org/1999/02/22-rdf-syntax-ns#"
   xmlns:svg="http://www.w3.org/2000/svg"
   xmlns="http://www.w3.org/2000/svg"
   viewBox="0 0 4753.8267 3354.6667"
   height="3354.6667"
   width="4753.8267"
   xml:space="preserve"
   id="svg2"
   version="1.1"><metadata
     id="metadata8"><rdf:RDF><cc:Work
         rdf:about=""><dc:format>image/svg+xml</dc:format><dc:type
           rdf:resource="http://purl.org/dc/dcmitype/StillImage" /></cc:Work></rdf:RDF></metadata><defs
     id="defs6" /><g
     transform="matrix(1.3333333,0,0,-1.3333333,0,3354.6667)"
     id="g10"><g
       transform="scale(0.1)"
       id="g12"><path
         id="path14"
         style="fill:#5f6062;fill-opacity:1;fill-rule:nonzero;stroke:none"
         d="m 1837.93,24154.1 c -458.79,0 -832.03,-373.2 -832.03,-832 V 1838 c 0,-458.8 373.24,-832.1 832.03,-832.1 H 33815.7 c 458.8,0 832.1,373.3 832.1,832.1 v 21484.1 c 0,458.8 -373.3,832 -832.1,832 z M 33815.7,0 H 1837.93 C 824.516,0 0,824.5 0,1838 V 23322.1 C 0,24335.5 824.516,25160 1837.93,25160 H 33815.7 c 1013.4,0 1838,-824.5 1838,-1837.9 V 1838 C 35653.7,824.5 34829.1,0 33815.7,0" /><path
         id="path16"
         style="fill:#5e6061;fill-opacity:1;fill-rule:nonzero;stroke:none"
         d="m 34778.3,3756.6 -10258,13795.9 c -814.7,1095.8 -2455.6,1095.8 -3270.4,0 l -6849,-9211.2 C 13927.7,7704.8 13003.4,7627.5 12431,8176.5 l -2074.2,1989.2 c -719.54,690 -1855.13,690 -2574.63,0 L 1045.46,3705.1 C -163.992,2545.2 657.016,503 2332.76,503 h 10294.44 3179 17336.9 c 1675.2,0 2634.8,1909.2 1635.2,3253.6" /><path
         id="path18"
         style="fill:#5e6061;fill-opacity:1;fill-rule:nonzero;stroke:none"
         d="m 10871.3,17609.5 c 0,-1354.5 -1098.09,-2452.6 -2452.66,-2452.6 -1354.57,0 -2452.66,1098.1 -2452.66,2452.6 0,1354.6 1098.09,2452.7 2452.66,2452.7 1354.57,0 2452.66,-1098.1 2452.66,-2452.7" /></g></g></svg>